<?xml version="1.0" encoding="UTF-8" standalone="no"?>
<svg
   xmlns:dc="http://purl.org/dc/elements/1.1/"
   xmlns:cc="http://creativecommons.org/ns#"
   xmlns:rdf="http://www.w3.org/1999/02/22-rdf-syntax-ns#"
   xmlns:svg="http://www.w3.org/2000/svg"
   xmlns="http://www.w3.org/2000/svg"
   version="1.1"
   id="svg2"
   xml:space="preserve"
   width="400"
   height="120"
   viewBox="0 0 400 120"><metadata
     id="metadata8"><rdf:RDF><cc:Work
         rdf:about=""><dc:format>image/svg+xml</dc:format><dc:type
           rdf:resource="http://purl.org/dc/dcmitype/StillImage" /><dc:title></dc:title></cc:Work></rdf:RDF></metadata><defs
     id="defs6"><clipPath
       clipPathUnits="userSpaceOnUse"
       id="clipPath20"><path
         d="M 0,0 H 3807.58 V 2300 H 0 Z"
         id="path18" /></clipPath></defs><g
     id="g10"
     transform="matrix(1.2342002,0,0,-1.2342002,-34.945007,238.59701)"><g
       id="g12"
       transform="scale(0.1)"><g
         id="g14"><g
           id="g16"
           clip-path="url(#clipPath20)"><path
             d="m 633.441,1280.56 c 0,17.32 -6.023,31.19 -18.066,41.71 -12.07,10.51 -33.203,20.38 -63.496,29.61 -51.875,15.66 -91.27,34.08 -118.074,55.33 -26.887,21.16 -40.313,50.09 -40.313,86.74 0,36.86 15.117,66.96 45.379,90.36 30.246,23.35 68.867,35.01 115.813,35.01 49.824,0 89.902,-12.56 120.3,-37.65 30.325,-25.15 45,-58.06 43.965,-98.84 l -0.594,-1.85 h -87.394 c 0,22.42 -6.816,39.7 -20.379,51.71 -13.594,12.07 -32.609,18.11 -57.148,18.11 -22.239,0 -39.426,-5.36 -51.575,-16.1 -12.097,-10.71 -18.203,-24.41 -18.203,-41.07 0,-15.21 6.602,-27.71 19.785,-37.5 13.184,-9.77 35.899,-20.12 68.243,-31.08 49.386,-13.94 87.089,-32.2 113.027,-54.78 25.937,-22.57 38.906,-52.25 38.906,-89.06 0,-38.54 -15.019,-68.9 -45.086,-91.12 -30.078,-22.24 -69.824,-33.35 -119.191,-33.35 -48.438,0 -89.902,12.04 -124.61,36.12 -34.707,24.08 -51.562,60.02 -50.527,107.8 l 0.676,1.85 h 87.344 c 0,-26.58 7.84,-46.14 23.476,-58.7 15.692,-12.56 36.836,-18.83 63.641,-18.83 24.113,0 42.473,5.04 55.109,15.15 12.645,10.08 18.992,23.53 18.992,40.43"
             style="fill:#4f4c4c;fill-opacity:1;fill-rule:nonzero;stroke:none"
             id="path22" /><path
             d="m 796.188,1163.19 h 90.1445 v 449.641 H 796.188 Z"
             style="fill:#4f4c4c;fill-opacity:1;fill-rule:nonzero;stroke:none"
             id="path24" /><path
             d="m 1320.25,1224.68 c -14.03,-18.33 -34.92,-34.24 -62.72,-47.73 -27.78,-13.45 -63.58,-20.21 -107.44,-20.21 -54.37,0 -98.84,17.08 -133.42,51.24 -34.604,34.17 -51.881,78.54 -51.881,133.11 v 93.85 c 0,54.41 16.777,98.67 50.341,132.97 33.54,34.25 76.69,51.41 129.41,51.41 54.95,0 97.04,-13.02 126.32,-39.04 29.23,-26.04 43.31,-60.81 42.28,-104.25 l -0.63,-1.86 h -84.89 c 0,23.92 -6.94,42.47 -20.72,55.76 -13.82,13.3 -33.84,19.93 -60.22,19.93 -27.59,0 -49.79,-10.66 -66.7,-31.97 -16.9,-21.3 -25.32,-48.76 -25.32,-82.29 v -94.51 c 0,-33.94 8.64,-61.68 25.94,-83.09 17.3,-21.39 40.48,-32.12 69.49,-32.12 21.36,0 38.33,2.18 50.78,6.51 12.5,4.31 22.09,9.76 28.88,16.35 v 87.06 h -86.46 v 62.44 h 176.96 v -173.56"
             style="fill:#4f4c4c;fill-opacity:1;fill-rule:nonzero;stroke:none"
             id="path26" /><path
             d="m 1609.92,1386.78 -112.43,-154.06 h 199.18 v -69.53 h -318.99 v 46.98 l 136.81,179.38 -136.81,176.67 v 46.61 h 310.67 v -69.49 h -190.23 l 111.8,-151.31 v -5.25"
             style="fill:#846a50;fill-opacity:1;fill-rule:nonzero;stroke:none"
             id="path28" /><path
             d="m 1866.84,1330.9 h 101.62 l -49.74,158.45 h -1.86 z m 123.5,-70.72 h -145.76 l -30.23,-96.99 h -94.21 l 151.6,449.64 h 92.36 l 151.03,-449.64 h -94.18 l -30.61,96.99"
             style="fill:#4f4c4c;fill-opacity:1;fill-rule:nonzero;stroke:none"
             id="path30" /><path
             d="m 302.973,1686.42 852.817,156.67 2357.17,-156.67"
             style="fill:none;stroke:#bdbcbc;stroke-width:10;stroke-linecap:butt;stroke-linejoin:miter;stroke-miterlimit:10;stroke-dasharray:none;stroke-opacity:1"
             id="path32" /><path
             d="m 302.973,1686.42 852.817,185.03 2357.17,-185.03"
             style="fill:none;stroke:#bdbcbc;stroke-width:10;stroke-linecap:butt;stroke-linejoin:miter;stroke-miterlimit:10;stroke-dasharray:none;stroke-opacity:1"
             id="path34" /><path
             d="m 302.973,1686.42 852.817,213.37 2357.17,-213.37"
             style="fill:none;stroke:#bdbcbc;stroke-width:10;stroke-linecap:butt;stroke-linejoin:miter;stroke-miterlimit:10;stroke-dasharray:none;stroke-opacity:1"
             id="path36" /><path
             d="m 302.973,1686.42 852.817,241.72 2357.17,-241.72"
             style="fill:none;stroke:#bdbcbc;stroke-width:10;stroke-linecap:butt;stroke-linejoin:miter;stroke-miterlimit:10;stroke-dasharray:none;stroke-opacity:1"
             id="path38" /><path
             d="M 2207.96,1845.42 V 960.922"
             style="fill:none;stroke:#bdbcbc;stroke-width:10;stroke-linecap:butt;stroke-linejoin:miter;stroke-miterlimit:10;stroke-dasharray:none;stroke-opacity:1"
             id="path40" /><path
             d="M 3441.12,1739.29 V 960.922"
             style="fill:none;stroke:#bdbcbc;stroke-width:10;stroke-linecap:butt;stroke-linejoin:miter;stroke-miterlimit:10;stroke-dasharray:none;stroke-opacity:1"
             id="path42" /><path
             d="M 293.773,1062.63 H 3512.96"
             style="fill:none;stroke:#bdbcbc;stroke-width:10;stroke-linecap:butt;stroke-linejoin:miter;stroke-miterlimit:10;stroke-dasharray:none;stroke-opacity:1"
             id="path44" /><path
             d="m 2361.77,1224.1 c 0,14.38 -2.83,26.22 -8.5,35.48 -5.68,9.25 -14.02,13.89 -25.02,13.89 -6.66,0 -12.33,-1.51 -17.02,-4.52 -4.69,-3.01 -8.49,-7.11 -11.37,-12.38 v -61.32 c 2.88,-5.23 6.68,-9.33 11.37,-12.25 4.69,-2.94 10.44,-4.39 17.22,-4.39 10.97,0 19.25,4 24.87,12.02 5.63,8.01 8.45,18.34 8.45,31.01 z m 23.09,-2.46 c 0,-18.3 -4.38,-33.05 -13.13,-44.27 -8.74,-11.21 -20.83,-16.82 -36.24,-16.82 -7.81,0 -14.67,1.31 -20.56,3.92 -5.91,2.63 -10.93,6.56 -15.07,11.79 v -62.04 h -23.11 v 175.67 h 17.71 l 3.63,-16.42 c 4.14,6.11 9.32,10.75 15.47,13.96 6.19,3.2 13.39,4.8 21.57,4.8 15.73,0 27.95,-6.23 36.67,-18.71 8.71,-12.46 13.06,-28.94 13.06,-49.42 v -2.46"
             style="fill:#846a50;fill-opacity:1;fill-rule:nonzero;stroke:none"
             id="path46" /><path
             d="m 2415.12,1163 h 23.1094 v 182.934 H 2415.12 Z"
             style="fill:#846a50;fill-opacity:1;fill-rule:nonzero;stroke:none"
             id="path48" /><path
             d="m 2513.38,1179.91 c 8.37,0 15.9,2.13 22.64,6.42 6.71,4.3 11.1,9.24 13.14,14.79 v 20.63 h -25.92 c -9.29,0 -16.75,-2.35 -22.35,-7.02 -5.59,-4.7 -8.38,-10.21 -8.38,-16.54 0,-5.63 1.76,-10.08 5.27,-13.37 3.53,-3.28 8.74,-4.91 15.6,-4.91 z m 38.34,-16.91 c -0.76,3.84 -1.38,7.21 -1.81,10.15 -0.42,2.95 -0.67,5.88 -0.75,8.87 -4.3,-6.12 -9.93,-11.21 -16.84,-15.31 -6.9,-4.13 -14.37,-6.16 -22.32,-6.16 -13.22,0 -23.3,3.38 -30.2,10.14 -6.92,6.77 -10.39,16.07 -10.39,27.97 0,12.13 4.9,21.6 14.73,28.43 9.8,6.84 23.1,10.26 39.93,10.26 h 25.09 v 12.56 c 0,7.41 -2.29,13.32 -6.82,17.63 -4.53,4.36 -10.93,6.53 -19.21,6.53 -7.5,0 -13.57,-1.9 -18.18,-5.65 -4.6,-3.75 -6.91,-8.24 -6.91,-13.48 l -21.93,-0.23 -0.24,0.71 c -0.55,9.21 3.76,17.67 12.94,25.31 9.19,7.67 21.06,11.5 35.59,11.5 14.39,0 25.98,-3.65 34.73,-10.96 8.74,-7.3 13.13,-17.85 13.13,-31.6 v -61.11 c 0,-4.51 0.23,-8.89 0.69,-13.11 0.47,-4.23 1.33,-8.37 2.58,-12.45 h -23.81"
             style="fill:#846a50;fill-opacity:1;fill-rule:nonzero;stroke:none"
             id="path50" /><path
             d="m 2626.43,1289.89 1.62,-18.9 c 4.25,6.73 9.54,11.96 15.9,15.67 6.38,3.7 13.63,5.57 21.76,5.57 13.68,0 24.28,-4 31.78,-12.01 7.51,-8.01 11.26,-20.39 11.26,-37.11 V 1163 h -23.1 v 79.64 c 0,11.15 -2.23,19.1 -6.64,23.79 -4.42,4.7 -11.13,7.04 -20.22,7.04 -7.12,0 -13.16,-1.43 -18.1,-4.28 -4.98,-2.86 -8.91,-6.86 -11.78,-12.02 V 1163 h -23.1 v 126.89 h 20.62"
             style="fill:#846a50;fill-opacity:1;fill-rule:nonzero;stroke:none"
             id="path52" /><path
             d="m 3059.93,1224.46 c 0,14.51 -2.66,26.39 -8.02,35.57 -5.36,9.19 -13.52,13.78 -24.45,13.78 -7.11,0 -13.13,-1.73 -18,-5.21 -4.88,-3.49 -8.78,-8.15 -11.67,-14.01 v -55 c 2.98,-6.25 6.86,-11.15 11.67,-14.66 4.81,-3.52 10.89,-5.27 18.23,-5.27 10.88,0 18.95,3.86 24.27,11.6 5.32,7.75 7.97,17.98 7.97,30.72 z m 23.1,-2.48 c 0,-18.29 -4.38,-33.05 -13.18,-44.27 -8.79,-11.2 -20.89,-16.83 -36.29,-16.83 -8.46,0 -15.77,1.66 -21.96,5 -6.23,3.32 -11.39,8.22 -15.45,14.71 l -3.75,-17.23 h -17.72 v 182.91 h 23.11 v -71.05 c 3.98,5.64 8.93,9.93 14.83,12.91 5.91,2.95 12.81,4.45 20.71,4.45 15.63,0 27.82,-6.27 36.6,-18.77 8.73,-12.51 13.1,-28.96 13.1,-49.35 v -2.48"
             style="fill:#846a50;fill-opacity:1;fill-rule:nonzero;stroke:none"
             id="path54" /><path
             d="m 3150.82,1180.24 c 8.35,0 15.89,2.16 22.61,6.44 6.71,4.32 11.11,9.23 13.16,14.78 v 20.65 h -25.92 c -9.31,0 -16.74,-2.34 -22.33,-7.05 -5.58,-4.68 -8.39,-10.21 -8.39,-16.52 0,-5.64 1.75,-10.1 5.26,-13.38 3.54,-3.28 8.72,-4.92 15.61,-4.92 z m 38.33,-16.88 c -0.79,3.82 -1.38,7.21 -1.8,10.14 -0.44,2.93 -0.68,5.88 -0.76,8.85 -4.32,-6.09 -9.91,-11.2 -16.84,-15.31 -6.91,-4.1 -14.36,-6.16 -22.32,-6.16 -13.22,0 -23.29,3.38 -30.21,10.16 -6.91,6.76 -10.38,16.05 -10.38,27.97 0,12.11 4.92,21.59 14.71,28.44 9.82,6.83 23.13,10.25 39.92,10.25 h 25.12 v 12.54 c 0,7.44 -2.28,13.3 -6.83,17.65 -4.53,4.34 -10.95,6.51 -19.21,6.51 -7.52,0 -13.55,-1.88 -18.18,-5.63 -4.61,-3.75 -6.92,-8.26 -6.92,-13.49 l -21.93,-0.23 -0.21,0.72 c -0.57,9.21 3.76,17.64 12.94,25.31 9.18,7.66 21.06,11.5 35.58,11.5 14.39,0 25.98,-3.65 34.71,-10.97 8.78,-7.31 13.12,-17.85 13.12,-31.6 v -61.1 c 0,-4.53 0.25,-8.9 0.71,-13.12 0.48,-4.22 1.33,-8.37 2.58,-12.43 h -23.8"
             style="fill:#846a50;fill-opacity:1;fill-rule:nonzero;stroke:none"
             id="path56" /><path
             d="m 3323.76,1182.1 c -3.97,-6.79 -9.1,-12.02 -15.35,-15.71 -6.25,-3.67 -13.48,-5.51 -21.71,-5.51 -13.82,0 -24.61,4.44 -32.34,13.26 -7.74,8.83 -11.61,22.6 -11.61,41.28 v 74.82 h 23.09 v -75.06 c 0,-13.52 2,-22.82 5.99,-27.91 3.97,-5.08 10.18,-7.61 18.62,-7.61 8.23,0 14.98,1.64 20.38,4.97 5.33,3.32 9.39,8.03 12.11,14.14 v 91.47 h 23.11 v -126.88 h -20.74 l -1.55,18.74"
             style="fill:#846a50;fill-opacity:1;fill-rule:nonzero;stroke:none"
             id="path58" /><path
             d="M 344.633,1739.29 V 1025.44"
             style="fill:none;stroke:#bdbcbc;stroke-width:10;stroke-linecap:butt;stroke-linejoin:miter;stroke-miterlimit:10;stroke-dasharray:none;stroke-opacity:1"
             id="path60" /><path
             d="m 2860.22,1262.89 h 47.01 v -32.93 h -47.01 v -54.03 h -36.05 v 54.03 h -47.27 v 32.93 h 47.27 v 51.46 h 36.05 v -51.46"
             style="fill:#4f4c4c;fill-opacity:1;fill-rule:nonzero;stroke:none"
             id="path62" /></g></g></g></g></svg>