<?xml version="1.0" encoding="UTF-8" standalone="no"?>
<svg
   xmlns:dc="http://purl.org/dc/elements/1.1/"
   xmlns:cc="http://creativecommons.org/ns#"
   xmlns:rdf="http://www.w3.org/1999/02/22-rdf-syntax-ns#"
   xmlns:svg="http://www.w3.org/2000/svg"
   xmlns="http://www.w3.org/2000/svg"
   xmlns:sodipodi="http://sodipodi.sourceforge.net/DTD/sodipodi-0.dtd"
   xmlns:inkscape="http://www.inkscape.org/namespaces/inkscape"
   viewBox="0 0 400 70"
   height="70"
   width="400"
   xml:space="preserve"
   id="svg2"
   version="1.1"
   sodipodi:docname="logo-small.svg"
   inkscape:version="0.92.3 (2405546, 2018-03-11)"><sodipodi:namedview
     pagecolor="#ffffff"
     bordercolor="#666666"
     borderopacity="1"
     objecttolerance="10"
     gridtolerance="10"
     guidetolerance="10"
     inkscape:pageopacity="0"
     inkscape:pageshadow="2"
     inkscape:window-width="1920"
     inkscape:window-height="1017"
     id="namedview32"
     showgrid="false"
     inkscape:zoom="2.7576426"
     inkscape:cx="199.45816"
     inkscape:cy="125.95166"
     inkscape:window-x="-8"
     inkscape:window-y="-8"
     inkscape:window-maximized="1"
     inkscape:current-layer="svg2" /><metadata
     id="metadata8"><rdf:RDF><cc:Work
         rdf:about=""><dc:format>image/svg+xml</dc:format><dc:type
           rdf:resource="http://purl.org/dc/dcmitype/StillImage" /><dc:title></dc:title></cc:Work></rdf:RDF></metadata><defs
     id="defs6"><clipPath
       id="clipPath20"
       clipPathUnits="userSpaceOnUse"><path
         id="path18"
         d="M 0,0 H 3807.58 V 2300 H 0 Z"
         inkscape:connector-curvature="0" /></clipPath></defs><g
     id="g132"
     transform="matrix(1.0942187,0,0,1.0942187,-14.832877,-43.877851)"><path
       inkscape:connector-curvature="0"
       d="m 44.32218,82.726039 c 0,-2.137635 -0.743359,-3.84947 -2.229706,-5.147849 -1.48968,-1.297144 -4.097915,-2.5153 -7.836678,-3.654467 C 27.853383,71.990966 22.991251,69.717569 19.683101,67.094894 16.364707,64.483326 14.70767,60.912785 14.70767,56.389441 c 0,-4.549262 1.86574,-8.264204 5.600677,-11.152233 3.732962,-2.881857 8.499566,-4.320935 14.293642,-4.320935 6.149279,0 11.095707,1.550156 14.847429,4.646764 3.742712,3.104013 5.553901,7.165766 5.426161,12.198835 l -0.07331,0.228327 H 44.016098 c 0,-2.767077 -0.841231,-4.899775 -2.515176,-6.382049 -1.677772,-1.48968 -4.024604,-2.235137 -7.053208,-2.235137 -2.744737,0 -4.865957,0.661531 -6.365387,1.987062 -1.493012,1.321829 -2.246615,3.012683 -2.246615,5.068861 0,1.877218 0.814819,3.419968 2.441865,4.62825 1.62717,1.205814 4.430656,2.483211 8.422553,3.835894 6.095221,1.720476 10.748526,3.974125 13.949794,6.760949 3.201145,2.78559 4.80178,6.448696 4.80178,10.991787 0,4.756608 -1.853646,8.50364 -5.564515,11.246032 -3.712228,2.744862 -8.61768,4.116058 -14.710556,4.116058 -5.978219,0 -11.095707,-1.485977 -15.379369,-4.457931 -4.283538,-2.971954 -6.363783,-7.40767 -6.236043,-13.304678 l 0.08343,-0.228327 h 10.779998 c 0,3.280504 0.967613,5.694599 2.897408,7.244755 1.936707,1.550155 4.5463,2.323999 7.854574,2.323999 2.976027,0 5.242018,-0.622037 6.801554,-1.869813 1.560646,-1.244074 2.343993,-2.904073 2.343993,-4.989872"
       style="fill:#4f4c4c;fill-opacity:1;fill-rule:nonzero;stroke:none;stroke-width:0.12342002"
       id="path22" /><path
       inkscape:connector-curvature="0"
       d="M 64.408418,97.211847 H 75.534054 V 41.717146 H 64.408418 Z"
       style="fill:#4f4c4c;fill-opacity:1;fill-rule:nonzero;stroke:none;stroke-width:0.12342002"
       id="path24" /><path
       inkscape:connector-curvature="0"
       d="m 129.08816,89.62275 c -1.73158,2.262289 -4.30983,4.225901 -7.7409,5.890837 -3.42861,1.66 -7.84705,2.494319 -13.26025,2.494319 -6.71035,0 -12.198835,-2.108014 -16.466699,-6.324042 -4.270827,-4.217262 -6.403154,-9.693408 -6.403154,-16.428439 V 63.672457 c 0,-6.715284 2.070617,-12.177854 6.213087,-16.411161 4.139507,-4.227135 9.465086,-6.345023 15.971786,-6.345023 6.78193,0 11.97668,1.606929 15.59042,4.818318 3.60756,3.213857 5.34532,7.505171 5.21819,12.866537 l -0.0778,0.229561 h -10.47713 c 0,-2.952207 -0.85653,-5.241648 -2.55726,-6.8819 -1.70566,-1.641486 -4.17653,-2.459761 -7.43235,-2.459761 -3.40516,0 -6.14509,1.315657 -8.232118,3.945738 -2.085798,2.628846 -3.124995,6.01796 -3.124995,10.156233 v 11.664426 c 0,4.188876 1.066349,7.612547 3.201516,10.25497 2.135167,2.639954 4.996047,3.964251 8.576457,3.964251 2.63625,0 4.73069,-0.269056 6.26727,-0.803464 1.54275,-0.531941 2.72635,-1.20458 3.56437,-2.017918 V 75.908317 h -10.6709 v -7.706346 h 21.84041 V 89.62275"
       style="fill:#4f4c4c;fill-opacity:1;fill-rule:nonzero;stroke:none;stroke-width:0.12342002"
       id="path26" /><path
       inkscape:connector-curvature="0"
       d="m 164.83924,69.616365 -13.87612,19.014088 h 24.5828 v 8.581394 h -39.36975 v -5.798273 l 16.8851,-22.139083 -16.8851,-21.804615 v -5.752607 h 38.3429 v 8.576457 h -23.47819 l 13.79836,18.674684 v 0.647955"
       style="fill:#846a50;fill-opacity:1;fill-rule:nonzero;stroke:none;stroke-width:0.12342002"
       id="path28" /><path
       inkscape:connector-curvature="0"
       d="m 196.54831,76.513075 h 12.54194 l -6.13891,-19.555902 h -0.22956 z m 15.24237,8.728264 h -17.9897 l -3.73099,11.970508 h -11.6274 l 18.71048,-55.494578 h 11.39907 l 18.64013,55.494578 h -11.6237 l -3.77789,-11.970508"
       style="fill:#4f4c4c;fill-opacity:1;fill-rule:nonzero;stroke:none;stroke-width:0.12342002"
       id="path30" /><path
       inkscape:connector-curvature="0"
       d="m 257.63258,89.694334 c 0,-1.77478 -0.34928,-3.236073 -1.04907,-4.378943 -0.70103,-1.141635 -1.73035,-1.714304 -3.08797,-1.714304 -0.82198,0 -1.52177,0.186364 -2.10061,0.557859 -0.57884,0.371494 -1.04783,0.877516 -1.40328,1.527939 v 7.568116 c 0.35545,0.645487 0.82444,1.151509 1.40328,1.511895 0.57884,0.362855 1.28851,0.541814 2.12529,0.541814 1.35392,0 2.37584,-0.49368 3.06946,-1.483508 0.69486,-0.988595 1.0429,-2.263524 1.0429,-3.827255 z m 2.84977,0.303613 c 0,2.258586 -0.54058,4.079031 -1.62051,5.463804 -1.07869,1.383538 -2.57084,2.075925 -4.47274,2.075925 -0.96391,0 -1.81057,-0.16168 -2.53751,-0.483807 -0.72942,-0.324594 -1.34898,-0.809635 -1.85994,-1.455122 v 7.656983 h -2.85224 v -21.6812 h 2.18577 l 0.44801,2.026557 c 0.51096,-0.754096 1.15028,-1.326765 1.90931,-1.722943 0.76397,-0.394944 1.65259,-0.592416 2.66217,-0.592416 1.9414,0 3.44959,0.768906 4.52581,2.309188 1.07499,1.537814 1.61187,3.571776 1.61187,6.099418 v 0.303613"
       style="fill:#846a50;fill-opacity:1;fill-rule:nonzero;stroke:none;stroke-width:0.12342002"
       id="path46" /><path
       inkscape:connector-curvature="0"
       d="m 264.21704,97.235297 h 2.85216 V 74.657579 h -2.85216 z"
       style="fill:#846a50;fill-opacity:1;fill-rule:nonzero;stroke:none;stroke-width:0.12342002"
       id="path48" /><path
       inkscape:connector-curvature="0"
       d="m 276.34429,95.148264 c 1.03302,0 1.96238,-0.262884 2.79423,-0.792356 0.82815,-0.530706 1.36996,-1.140401 1.62174,-1.825382 v -2.546155 h -3.19905 c -1.14657,0 -2.06729,0.290037 -2.75844,0.866408 -0.68992,0.580074 -1.03426,1.260119 -1.03426,2.041367 0,0.694855 0.21722,1.244074 0.65043,1.650126 0.43567,0.404818 1.07869,0.605992 1.92535,0.605992 z m 4.73192,2.087033 c -0.0938,-0.473933 -0.17032,-0.889859 -0.22339,-1.252713 -0.0518,-0.36409 -0.0827,-0.72571 -0.0926,-1.094736 -0.53071,0.75533 -1.22556,1.383538 -2.0784,1.88956 -0.85159,0.509725 -1.77354,0.760268 -2.75473,0.760268 -1.63161,0 -2.87569,-0.41716 -3.72729,-1.251479 -0.85406,-0.835554 -1.28233,-1.98336 -1.28233,-3.452058 0,-1.497085 0.60476,-2.665873 1.81798,-3.508831 1.20951,-0.844193 2.851,-1.26629 4.92816,-1.26629 h 3.09661 v -1.550155 c 0,-0.914543 -0.28263,-1.643955 -0.84173,-2.175895 -0.55909,-0.538111 -1.34898,-0.805933 -2.3709,-0.805933 -0.92565,0 -1.67481,0.234498 -2.24377,0.697323 -0.56773,0.462825 -0.85283,1.016981 -0.85283,1.663702 l -2.70661,0.02839 -0.0296,-0.08763 c -0.0679,-1.136698 0.46406,-2.180831 1.59706,-3.12376 1.13423,-0.946632 2.59922,-1.41933 4.39252,-1.41933 1.77601,0 3.20645,0.450483 4.28637,1.352683 1.0787,0.900966 1.62051,2.203047 1.62051,3.900073 v 7.542197 c 0,0.556624 0.0284,1.097204 0.0852,1.618036 0.058,0.522067 0.16415,1.033026 0.31842,1.53658 h -2.93863"
       style="fill:#846a50;fill-opacity:1;fill-rule:nonzero;stroke:none;stroke-width:0.12342002"
       id="path50" /><path
       inkscape:connector-curvature="0"
       d="m 290.29692,81.57453 0.19994,2.332639 c 0.52454,-0.830617 1.17743,-1.476104 1.96238,-1.933992 0.78742,-0.456654 1.68222,-0.687449 2.68562,-0.687449 1.68839,0 2.99664,0.49368 3.92229,1.482274 0.92688,0.988594 1.38971,2.516534 1.38971,4.580117 v 9.887178 h -2.851 v -9.829171 c 0,-1.376133 -0.27523,-2.357322 -0.81951,-2.936162 -0.54552,-0.580074 -1.37367,-0.868877 -2.49556,-0.868877 -0.87875,0 -1.6242,0.176491 -2.2339,0.528238 -0.61463,0.352981 -1.09967,0.846661 -1.45389,1.483508 v 11.622464 h -2.851 V 81.57453 h 2.54492"
       style="fill:#846a50;fill-opacity:1;fill-rule:nonzero;stroke:none;stroke-width:0.12342002"
       id="path52" /><path
       inkscape:connector-curvature="0"
       d="m 343.7995,89.649902 c 0,-1.790824 -0.3283,-3.257054 -0.98983,-4.39005 -0.66153,-1.13423 -1.66864,-1.700728 -3.01762,-1.700728 -0.87751,0 -1.6205,0.213517 -2.22156,0.643019 -0.60229,0.430735 -1.08363,1.005873 -1.44031,1.729114 v 6.788101 c 0.36779,0.771375 0.84666,1.376133 1.44031,1.809338 0.59365,0.434438 1.34405,0.650423 2.24995,0.650423 1.34281,0 2.33881,-0.476401 2.9954,-1.431672 0.6566,-0.956505 0.98366,-2.219092 0.98366,-3.791463 z m 2.851,0.306082 c 0,2.257352 -0.54058,4.079032 -1.62667,5.463804 -1.08486,1.382304 -2.57825,2.077159 -4.47892,2.077159 -1.04413,0 -1.94633,-0.204877 -2.7103,-0.6171 -0.76891,-0.409754 -1.40575,-1.014512 -1.90684,-1.815508 l -0.46282,2.126527 h -2.18701 V 74.61611 h 2.85224 v 8.768992 c 0.49121,-0.696089 1.10214,-1.225561 1.83032,-1.593352 0.72941,-0.364089 1.58101,-0.549219 2.55603,-0.549219 1.92905,0 3.43354,0.773843 4.51717,2.316593 1.07746,1.543985 1.6168,3.574244 1.6168,6.090778 v 0.306082"
       style="fill:#846a50;fill-opacity:1;fill-rule:nonzero;stroke:none;stroke-width:0.12342002"
       id="path54" /><path
       inkscape:connector-curvature="0"
       d="m 355.01715,95.107536 c 1.03055,0 1.96114,-0.266588 2.79052,-0.794825 0.82815,-0.533175 1.3712,-1.139167 1.62421,-1.824148 v -2.548624 h -3.19905 c -1.14904,0 -2.06605,0.288803 -2.75597,0.870111 -0.68868,0.577606 -1.03549,1.260119 -1.03549,2.038899 0,0.696089 0.21599,1.246542 0.64919,1.65136 0.43691,0.404818 1.07622,0.607227 1.92659,0.607227 z m 4.73069,2.08333 c -0.0975,-0.471465 -0.17032,-0.889859 -0.22216,-1.251479 -0.0543,-0.361621 -0.0839,-0.72571 -0.0938,-1.092268 -0.53317,0.751628 -1.22309,1.382305 -2.07839,1.889561 -0.85283,0.506022 -1.77231,0.760267 -2.75474,0.760267 -1.63161,0 -2.87445,-0.417159 -3.72852,-1.253947 -0.85283,-0.83432 -1.2811,-1.980892 -1.2811,-3.452058 0,-1.494617 0.60723,-2.664638 1.81551,-3.510066 1.21199,-0.842958 2.85471,-1.265055 4.92693,-1.265055 h 3.10031 v -1.547687 c 0,-0.918245 -0.2814,-1.641486 -0.84296,-2.178363 -0.55909,-0.535643 -1.35145,-0.803464 -2.3709,-0.803464 -0.92812,0 -1.67234,0.232029 -2.24377,0.694854 -0.56897,0.462825 -0.85407,1.01945 -0.85407,1.664936 l -2.7066,0.02839 -0.0259,-0.08886 c -0.0703,-1.136698 0.46406,-2.177129 1.59706,-3.12376 1.13299,-0.945398 2.59922,-1.41933 4.39128,-1.41933 1.77601,0 3.20645,0.450483 4.28391,1.353917 1.08363,0.902201 1.61927,2.203048 1.61927,3.900073 v 7.540963 c 0,0.559093 0.0309,1.098438 0.0876,1.619271 0.0592,0.520832 0.16415,1.033025 0.31842,1.534111 h -2.93739"
       style="fill:#846a50;fill-opacity:1;fill-rule:nonzero;stroke:none;stroke-width:0.12342002"
       id="path56" /><path
       inkscape:connector-curvature="0"
       d="m 376.3614,94.877974 c -0.48997,0.838022 -1.12312,1.483509 -1.89449,1.938929 -0.77138,0.452951 -1.6637,0.680044 -2.67945,0.680044 -1.70567,0 -3.03737,-0.547985 -3.9914,-1.636549 -0.95528,-1.089799 -1.43291,-2.789293 -1.43291,-5.094779 v -9.234286 h 2.84977 v 9.263907 c 0,1.668639 0.24684,2.816445 0.73928,3.444653 0.48998,0.626974 1.25642,0.939226 2.29808,0.939226 1.01575,0 1.84884,-0.202409 2.5153,-0.613397 0.65783,-0.409755 1.15892,-0.991063 1.49462,-1.745159 v -11.28923 h 2.85224 v 15.659533 h -2.55973 l -0.19131,-2.312892"
       style="fill:#846a50;fill-opacity:1;fill-rule:nonzero;stroke:none;stroke-width:0.12342002"
       id="path58" /><path
       inkscape:connector-curvature="0"
       d="m 319.15129,84.906871 h 5.80197 v 4.064221 h -5.80197 v 6.668384 H 314.702 v -6.668384 h -5.83407 v -4.064221 h 5.83407 v -6.351194 h 4.44929 v 6.351194"
       style="fill:#4f4c4c;fill-opacity:1;fill-rule:nonzero;stroke:none;stroke-width:0.12342002"
       id="path62" /></g></svg>