<?xml version="1.0" encoding="UTF-8" standalone="no"?>
<svg
   xmlns:osb="http://www.openswatchbook.org/uri/2009/osb"
   xmlns:dc="http://purl.org/dc/elements/1.1/"
   xmlns:cc="http://creativecommons.org/ns#"
   xmlns:rdf="http://www.w3.org/1999/02/22-rdf-syntax-ns#"
   xmlns:svg="http://www.w3.org/2000/svg"
   xmlns="http://www.w3.org/2000/svg"
   width="350"
   height="350"
   viewBox="0 0 92.604164 92.604164"
   version="1.1"
   id="svg6801">
  <defs
     id="defs6795">
    <linearGradient
       id="linearGradient7356"
       osb:paint="gradient">
      <stop
         style="stop-color:#846a50;stop-opacity:1;"
         offset="0"
         id="stop7352" />
      <stop
         style="stop-color:#846a50;stop-opacity:0;"
         offset="1"
         id="stop7354" />
    </linearGradient>
  </defs>
  <metadata
     id="metadata6798">
    <rdf:RDF>
      <cc:Work
         rdf:about="">
        <dc:format>image/svg+xml</dc:format>
        <dc:type
           rdf:resource="http://purl.org/dc/dcmitype/StillImage" />
        <dc:title></dc:title>
      </cc:Work>
    </rdf:RDF>
  </metadata>
  <rect
     y="1.7289673e-005"
     x="0"
     height="92.604164"
     width="92.604164"
     id="rect7348"
     style="fill:#846a50;fill-opacity:1;stroke-width:0.2946496" />
  <g
     style="fill:#ffffff"
     transform="matrix(0.07559531,0,0,0.07559531,32.12796,19.016884)"
     id="g1468">
    <path
       style="opacity:1;fill:#ffffff;stroke-width:1.00691271"
       id="path878"
       d="M 0,9.4611599 H 0.25172794 C 0.19131323,9.5215746 0.0604147,9.6524731 0,9.7128878 Z" />
    <path
       style="opacity:1;fill:#ffffff;stroke-width:1.02539051"
       id="path880"
       d="M 91.959877,5.1435378e-4 H 246.72193 C 257.08862,1.4360594 266.85033,9.731461 267.73216,20.508305 c 0.0821,48.213819 -0.0512,96.427635 0.0718,144.641455 0.34863,11.8535 -10.68456,22.76364 -22.50731,22.48679 -9.16697,0.0615 -18.34421,-0.31787 -27.50093,0.15381 -1.90723,5.57813 -3.06592,11.37157 -4.54249,17.07274 -5.4038,21.59471 -10.94091,43.1689 -16.4575,64.7431 -17.89304,0.0615 -35.79635,0.25634 -53.68939,-0.0923 -6.12158,-25.23484 -12.89941,-50.29536 -18.99022,-75.5302 -0.47168,-1.89696 -0.89208,-3.81444 -1.64062,-5.61913 -3.64014,-1.40479 -7.72119,-0.62549 -11.54588,-0.79981 -6.74708,-0.16406 -13.524904,0.45117 -20.25146,-0.20507 -9.607901,-1.96875 -17.534162,-10.55126 -18.569805,-20.34373 -0.451171,-4.39893 -0.08203,-8.8081 -0.102539,-13.20703 -0.01026,-40.32856 0.01026,-80.667387 -0.01026,-120.995958 -0.04102,-6.685531 -0.922864,-13.89402 2.645491,-19.933565 C 77.99407,6.091328 84.823166,1.8872304 91.959877,5.1435378e-4 M 94.933507,20.805669 c -2.040525,0.666503 -2.614743,2.912106 -2.471189,4.81933 0.01026,45.465774 0.01026,90.931551 0,136.397321 -0.08203,1.75342 0.502441,3.42479 1.302246,4.96288 4.009272,0.28712 8.018546,0.20509 12.027816,0.11279 41.7026,0 83.4052,0.0205 125.09754,-0.0103 5.31151,-0.18457 10.66405,0.55372 15.93454,-0.41015 0.8921,-5.2705 0.2256,-10.6333 0.41017,-15.94481 0.0308,-42.35884 0,-84.727939 0.0103,-127.086783 0.29736,-2.748044 -3.03515,-3.1582 -5.05517,-3.1582 -46.14253,-0.05127 -92.29532,0.01026 -138.43785,-0.03076 -2.94287,0.04102 -5.9165,-0.246093 -8.818352,0.348632 z" />
    <path
       style="opacity:1;fill:#ffffff;stroke-width:1.00691366"
       id="path882"
       d="m 151.40229,300.67996 c 8.96152,-0.35242 17.93311,-0.14097 26.90471,-0.12083 0.14097,13.05967 -0.0302,26.11932 0.0403,39.17897 0.0302,6.46439 1.93327,13.03952 6.14216,18.03382 4.78283,6.00119 12.49579,9.21324 20.08791,9.15283 41.28342,-0.0201 82.57691,0.0201 123.86034,-0.0201 6.48452,-0.19132 13.06973,-0.0201 19.34279,1.82252 9.99864,2.47699 19.51397,8.76014 23.95445,18.30567 3.31274,6.14216 3.54433,13.32146 2.95025,20.10805 -0.76524,8.85075 -5.74947,17.1175 -12.96902,22.23263 -8.4178,5.98105 -18.99038,8.55875 -29.24076,8.00496 -97.33825,-0.0906 -194.68658,-0.0201 -292.024827,-0.0302 -4.218964,0.32222 -9.515325,0.0403 -12.324612,3.80614 -1.822512,3.786 -1.772167,9.96844 2.779079,11.77081 5.225877,2.19507 11.065972,1.58085 16.603991,1.66142 97.328189,-0.0503 194.676499,0.0403 292.004689,-0.0403 7.21957,0.50345 14.22768,3.08114 20.41013,6.76644 9.324,5.71926 15.38563,16.43282 15.003,27.42829 0.73505,10.59274 -4.1082,21.41705 -12.75759,27.64984 -6.99804,5.39705 -15.78839,7.34039 -24.34715,8.6091 H 13.334412 c 0.05035,-9.04208 -0.120829,-18.08415 0.08055,-27.12622 108.676098,-0.19131 217.372318,0.0201 326.048418,-0.11077 3.58462,-0.0604 7.81364,-2.0843 8.20634,-6.05155 0.51352,-3.3933 -0.0504,-8.07543 -3.88668,-9.23338 -4.65194,-1.34927 -9.57575,-0.58402 -14.33844,-0.72498 -95.65671,0.0301 -191.32349,-0.0101 -286.980206,0.0201 -9.10249,-0.50346 -18.406364,-2.26557 -26.421389,-6.8168 C 8.2092268,470.59648 2.3993403,462.70229 0.75807259,453.8616 c -1.61106038,-9.0018 -0.87601408,-18.89976 4.37000121,-26.65299 5.1956692,-8.3775 14.5498892,-12.99924 23.8235552,-15.3252 9.726777,-2.11452 19.745558,-1.76211 29.633441,-1.73189 93.98524,-0.0101 187.9604,0.0101 281.94563,-0.0101 3.09123,0.0805 6.5248,-1.7621 6.97791,-5.08492 0.63435,-3.40336 0.49339,-8.08551 -3.15163,-9.74692 -4.35994,-1.94334 -9.28374,-1.12774 -13.90547,-1.17808 -41.29349,0.0403 -82.58698,-0.0302 -123.8704,0.0302 -7.29005,-0.24165 -14.69086,-0.99684 -21.51772,-3.67523 -12.97911,-5.01442 -23.74301,-15.36548 -29.20048,-28.17341 -4.47069,-9.54554 -4.93387,-20.28929 -4.72241,-30.65043 0.19131,-10.32085 -0.29201,-20.66184 0.26179,-30.9827 z" />
  </g>
  <text
     id="text1472"
     y="90.866928"
     x="8.6862602"
     style="font-style:normal;font-variant:normal;font-weight:normal;font-stretch:normal;font-size:10.58333302px;line-height:1.25;font-family:Raleway;-inkscape-font-specification:Raleway;font-variant-ligatures:normal;font-variant-caps:normal;font-variant-numeric:normal;font-feature-settings:normal;text-align:start;letter-spacing:0px;word-spacing:0px;writing-mode:lr-tb;text-anchor:start;fill:#000000;fill-opacity:1;stroke:none;stroke-width:0.26458332"
     xml:space="preserve"><tspan
       style="font-style:normal;font-variant:normal;font-weight:normal;font-stretch:normal;font-family:Raleway;-inkscape-font-specification:Raleway;stroke-width:0.26458332"
       y="100.52242"
       x="8.6862602"
       id="tspan1470" /></text>
  <path
     d="m 25.822712,69.721842 q 0.248047,0.222209 0.408244,0.558105 0.160196,0.335897 0.160196,0.868165 0,0.527099 -0.191202,0.966349 -0.191203,0.439249 -0.537435,0.76481 -0.387573,0.36174 -0.914673,0.53744 -0.521932,0.17053 -1.147217,0.17053 -0.640788,0 -1.260905,-0.15503 -0.620117,-0.14986 -1.018025,-0.33073 v -1.080038 h 0.07751 q 0.43925,0.289388 1.033529,0.480591 0.594279,0.191203 1.147217,0.191203 0.325561,0 0.692464,-0.108521 0.366902,-0.10852 0.594279,-0.320394 0.237711,-0.227376 0.351399,-0.501261 0.118856,-0.273885 0.118856,-0.692464 0,-0.413412 -0.134358,-0.682129 -0.129192,-0.273885 -0.361735,-0.428914 -0.232544,-0.160197 -0.563274,-0.217041 -0.330729,-0.06201 -0.713134,-0.06201 H 23.09936 v -0.857829 h 0.361735 q 0.785482,0 1.250569,-0.325561 0.470256,-0.33073 0.470256,-0.961182 0,-0.279053 -0.118856,-0.485758 -0.118856,-0.211874 -0.330729,-0.346233 -0.222209,-0.134358 -0.475423,-0.186035 -0.253215,-0.05168 -0.573609,-0.05168 -0.490926,0 -1.043863,0.1757 -0.552938,0.1757 -1.043864,0.496093 h -0.05168 v -1.080037 q 0.366903,-0.180867 0.976685,-0.330729 0.614949,-0.155029 1.188558,-0.155029 0.563273,0 0.992187,0.103352 0.428915,0.103353 0.775147,0.33073 0.37207,0.248047 0.563273,0.599446 0.191203,0.3514 0.191203,0.821655 0,0.640788 -0.454753,1.121379 -0.449585,0.475423 -1.064535,0.599447 v 0.07235 q 0.248047,0.04134 0.568441,0.1757 0.320394,0.129191 0.542603,0.325561 z"
     style="font-style:normal;font-variant:normal;font-weight:normal;font-stretch:normal;font-size:medium;line-height:1.25;font-family:Raleway;-inkscape-font-specification:Raleway;font-variant-ligatures:normal;font-variant-caps:normal;font-variant-numeric:normal;font-feature-settings:normal;text-align:start;letter-spacing:0px;word-spacing:0px;writing-mode:lr-tb;text-anchor:start;fill:#ffffff;fill-opacity:1;stroke:none;stroke-width:0.26458332"
     id="path858" />
  <path
     d="m 34.731728,69.587483 q 0,1.049032 -0.459919,1.901693 -0.454754,0.852661 -1.214397,1.322915 -0.5271,0.32556 -1.178223,0.47026 -0.645955,0.14469 -1.705322,0.14469 h -1.943034 v -7.694619 h 1.922364 q 1.126546,0 1.788005,0.165364 0.666625,0.160197 1.126545,0.444417 0.785482,0.490927 1.224732,1.307414 0.439249,0.816488 0.439249,1.937866 z m -1.069702,-0.0155 q 0,-0.904337 -0.315226,-1.524454 -0.315226,-0.620118 -0.940511,-0.976685 -0.454753,-0.258382 -0.966348,-0.356567 -0.511598,-0.103353 -1.224733,-0.103353 h -0.96118 v 5.937622 h 0.96118 q 0.738973,0 1.286743,-0.108521 0.552938,-0.10852 1.012859,-0.403076 0.573608,-0.366903 0.857829,-0.966349 0.289387,-0.599447 0.289387,-1.498617 z"
     style="font-style:normal;font-variant:normal;font-weight:normal;font-stretch:normal;font-size:medium;line-height:1.25;font-family:Raleway;-inkscape-font-specification:Raleway;font-variant-ligatures:normal;font-variant-caps:normal;font-variant-numeric:normal;font-feature-settings:normal;text-align:start;letter-spacing:0px;word-spacing:0px;writing-mode:lr-tb;text-anchor:start;fill:#ffffff;fill-opacity:1;stroke:none;stroke-width:0.26458332"
     id="path860" />
  <path
     d="M 39.377439,70.527994 H 36.15283 v -0.935343 h 3.224609 z"
     style="font-style:normal;font-variant:normal;font-weight:normal;font-stretch:normal;font-size:medium;line-height:1.25;font-family:Raleway;-inkscape-font-specification:Raleway;font-variant-ligatures:normal;font-variant-caps:normal;font-variant-numeric:normal;font-feature-settings:normal;text-align:start;letter-spacing:0px;word-spacing:0px;writing-mode:lr-tb;text-anchor:start;fill:#ffffff;fill-opacity:1;stroke:none;stroke-width:0.26458332"
     id="path862" />
  <path
     d="m 47.712848,69.587483 q 0,1.049032 -0.45992,1.901693 -0.454752,0.852661 -1.214396,1.322915 -0.5271,0.32556 -1.178223,0.47026 -0.645955,0.14469 -1.705322,0.14469 h -1.943034 v -7.694619 h 1.922364 q 1.126546,0 1.788004,0.165364 0.666626,0.160197 1.126546,0.444417 0.785482,0.490927 1.224732,1.307414 0.439249,0.816488 0.439249,1.937866 z m -1.069702,-0.0155 q 0,-0.904337 -0.315226,-1.524454 -0.315226,-0.620118 -0.940511,-0.976685 -0.454753,-0.258382 -0.966349,-0.356567 -0.511597,-0.103353 -1.224732,-0.103353 h -0.961181 v 5.937622 h 0.961181 q 0.738973,0 1.286743,-0.108521 0.552938,-0.10852 1.012858,-0.403076 0.573609,-0.366903 0.857829,-0.966349 0.289388,-0.599447 0.289388,-1.498617 z"
     style="font-style:normal;font-variant:normal;font-weight:normal;font-stretch:normal;font-size:medium;line-height:1.25;font-family:Raleway;-inkscape-font-specification:Raleway;font-variant-ligatures:normal;font-variant-caps:normal;font-variant-numeric:normal;font-feature-settings:normal;text-align:start;letter-spacing:0px;word-spacing:0px;writing-mode:lr-tb;text-anchor:start;fill:#ffffff;fill-opacity:1;stroke:none;stroke-width:0.26458332"
     id="path864" />
  <path
     d="m 52.901161,68.714152 h -0.05168 q -0.217041,-0.05168 -0.423747,-0.07235 -0.201538,-0.02584 -0.48059,-0.02584 -0.449585,0 -0.868164,0.201538 -0.418579,0.196371 -0.806152,0.511597 v 4.097944 h -0.971517 v -5.77226 h 0.971517 v 0.852661 q 0.578776,-0.465088 1.018025,-0.656291 0.444418,-0.19637 0.904338,-0.19637 0.253214,0 0.366903,0.0155 0.113689,0.01033 0.341064,0.04651 z"
     style="font-style:normal;font-variant:normal;font-weight:normal;font-stretch:normal;font-size:medium;line-height:1.25;font-family:Raleway;-inkscape-font-specification:Raleway;font-variant-ligatures:normal;font-variant-caps:normal;font-variant-numeric:normal;font-feature-settings:normal;text-align:start;letter-spacing:0px;word-spacing:0px;writing-mode:lr-tb;text-anchor:start;fill:#ffffff;fill-opacity:1;stroke:none;stroke-width:0.26458332"
     id="path866" />
  <path
     d="M 58.611407,73.427041 H 57.63989 v -0.64079 q -0.490926,0.38758 -0.940511,0.59428 -0.449585,0.20671 -0.992188,0.20671 -0.909505,0 -1.415934,-0.55294 -0.506429,-0.558105 -0.506429,-1.632975 v -3.746541 h 0.971517 v 3.286621 q 0,0.439249 0.04134,0.754476 0.04134,0.310058 0.1757,0.532267 0.139526,0.227376 0.361735,0.330729 0.222209,0.103353 0.645955,0.103353 0.377238,0 0.821656,-0.196371 0.449585,-0.19637 0.837158,-0.501261 v -4.309814 h 0.971517 z"
     style="font-style:normal;font-variant:normal;font-weight:normal;font-stretch:normal;font-size:medium;line-height:1.25;font-family:Raleway;-inkscape-font-specification:Raleway;font-variant-ligatures:normal;font-variant-caps:normal;font-variant-numeric:normal;font-feature-settings:normal;text-align:start;letter-spacing:0px;word-spacing:0px;writing-mode:lr-tb;text-anchor:start;fill:#ffffff;fill-opacity:1;stroke:none;stroke-width:0.26458332"
     id="path868" />
  <path
     d="m 64.791908,73.065311 q -0.485758,0.23254 -0.925008,0.36173 -0.434081,0.12919 -0.925007,0.12919 -0.625286,0 -1.147218,-0.18087 -0.521932,-0.18603 -0.894002,-0.5581 -0.377238,-0.372071 -0.583944,-0.940512 -0.206706,-0.568441 -0.206706,-1.328084 0,-1.415934 0.775147,-2.222087 0.780314,-0.806152 2.056723,-0.806152 0.496094,0 0.971516,0.139526 0.480592,0.139527 0.8785,0.341065 v 1.080037 h -0.05168 q -0.444418,-0.346232 -0.919841,-0.532267 -0.470255,-0.186035 -0.91984,-0.186035 -0.826822,0 -1.307413,0.558105 -0.475424,0.552938 -0.475424,1.627808 0,1.043864 0.465089,1.607137 0.470254,0.558105 1.317748,0.558105 0.294555,0 0.599446,-0.07751 0.304891,-0.07751 0.547771,-0.201538 0.211874,-0.108521 0.397908,-0.227377 0.186036,-0.124023 0.294556,-0.211873 h 0.05168 z"
     style="font-style:normal;font-variant:normal;font-weight:normal;font-stretch:normal;font-size:medium;line-height:1.25;font-family:Raleway;-inkscape-font-specification:Raleway;font-variant-ligatures:normal;font-variant-caps:normal;font-variant-numeric:normal;font-feature-settings:normal;text-align:start;letter-spacing:0px;word-spacing:0px;writing-mode:lr-tb;text-anchor:start;fill:#ffffff;fill-opacity:1;stroke:none;stroke-width:0.26458332"
     id="path870" />
  <path
     d="m 71.282468,73.427041 h -1.281575 l -2.315105,-2.526976 -0.630452,0.599446 v 1.92753 h -0.971517 v -8.040852 h 0.971517 v 5.157308 l 2.80603,-2.888712 h 1.224732 l -2.682006,2.666504 z"
     style="font-style:normal;font-variant:normal;font-weight:normal;font-stretch:normal;font-size:medium;line-height:1.25;font-family:Raleway;-inkscape-font-specification:Raleway;font-variant-ligatures:normal;font-variant-caps:normal;font-variant-numeric:normal;font-feature-settings:normal;text-align:start;letter-spacing:0px;word-spacing:0px;writing-mode:lr-tb;text-anchor:start;fill:#ffffff;fill-opacity:1;stroke:none;stroke-width:0.26458332"
     id="path872" />
</svg>
