<?xml version="1.0" encoding="UTF-8" standalone="no"?>
<svg
   xmlns:osb="http://www.openswatchbook.org/uri/2009/osb"
   xmlns:dc="http://purl.org/dc/elements/1.1/"
   xmlns:cc="http://creativecommons.org/ns#"
   xmlns:rdf="http://www.w3.org/1999/02/22-rdf-syntax-ns#"
   xmlns:svg="http://www.w3.org/2000/svg"
   xmlns="http://www.w3.org/2000/svg"
   width="350"
   height="350"
   viewBox="0 0 92.604166 92.604166"
   version="1.1"
   id="svg6801">
  <defs
     id="defs6795">
    <linearGradient
       id="linearGradient7356"
       osb:paint="gradient">
      <stop
         style="stop-color:#846a50;stop-opacity:1;"
         offset="0"
         id="stop7352" />
      <stop
         style="stop-color:#846a50;stop-opacity:0;"
         offset="1"
         id="stop7354" />
    </linearGradient>
  </defs>
  <metadata
     id="metadata6798">
    <rdf:RDF>
      <cc:Work
         rdf:about="">
        <dc:format>image/svg+xml</dc:format>
        <dc:type
           rdf:resource="http://purl.org/dc/dcmitype/StillImage" />
        <dc:title></dc:title>
      </cc:Work>
    </rdf:RDF>
  </metadata>
  <rect
     y="1.242865e-005"
     x="0"
     height="92.604164"
     width="92.604164"
     id="rect7348"
     style="fill:#846a50;fill-opacity:1;stroke-width:0.29464963" />
  <text
     id="text1472"
     y="90.86692"
     x="8.6862602"
     style="font-style:normal;font-variant:normal;font-weight:normal;font-stretch:normal;font-size:10.58333302px;line-height:1.25;font-family:Raleway;-inkscape-font-specification:Raleway;font-variant-ligatures:normal;font-variant-caps:normal;font-variant-numeric:normal;font-feature-settings:normal;text-align:start;letter-spacing:0px;word-spacing:0px;writing-mode:lr-tb;text-anchor:start;fill:#000000;fill-opacity:1;stroke:none;stroke-width:0.26458332"
     xml:space="preserve"><tspan
       style="font-style:normal;font-variant:normal;font-weight:normal;font-stretch:normal;font-family:Raleway;-inkscape-font-specification:Raleway;stroke-width:0.26458332"
       y="100.52241"
       x="8.6862602"
       id="tspan1470" /></text>
  <g
     transform="matrix(0.11431685,0,0,0.11431685,3.0498347,10.249963)"
     id="#323030ff" />
  <g
     style="fill:#ffffff"
     transform="matrix(0.09565223,0,0,0.09565223,24.499123,16.567393)"
     id="#be1622ff">
    <path
       style="opacity:1;fill:#ffffff"
       d="m 227.39,29.52 c 2.87,-1.11 5.92,0.05 8.21,1.86 40.59,28.74 85.72,51.29 133.53,65.2 9.4,2.68 18.96,4.75 28.44,7.16 2.93,0.76 6.29,2.13 7.19,5.35 1.59,5.48 0.59,11.29 0.86,16.92 0.36,23.33 -1.15,46.7 -4.84,69.74 -5.23,32.39 -15.18,64.02 -29.49,93.55 -29.04,59.2 -73.56,110.94 -128.56,147.46 -3.95,2.54 -7.72,5.45 -12.1,7.24 h -5.03 c -3.59,-1.32 -6.7,-3.59 -9.86,-5.69 C 183,416.5 154.36,388.91 129.65,358.38 105.17,327.93 85.41,293.62 71.98,256.91 55,211.07 48.1,161.71 50.74,112.97 c 0.05,-4.48 3.97,-7.5 8.12,-8.03 42.71,-8.9 83.67,-25.17 121.75,-46.32 13.31,-7.46 26.52,-15.2 38.94,-24.09 2.57,-1.74 5.02,-3.7 7.84,-5.01 m -12.76,120.27 c 2.14,14.55 -2.18,29.18 -8.42,42.21 -6.57,13.47 -15.15,25.9 -24.73,37.4 -0.42,-9.78 -1.78,-19.9 -6.92,-28.42 -1.26,14.58 -9.55,27 -15.35,40.05 -4.99,10.84 -7.78,23.01 -6.21,34.95 1.3,10.06 6.55,19.23 13.49,26.49 8.17,8.47 18.07,15.07 28.27,20.82 -3.68,-7.88 -6.51,-16.43 -6.21,-25.24 0.27,-8.9 4.15,-17.21 9.14,-24.42 6.22,-8.9 10.67,-19.02 13.05,-29.61 4.86,7.41 6.33,16.67 4.77,25.33 11.22,-13 15.61,-31.13 13.92,-48.02 30.94,22.33 43.14,67.37 26.39,101.9 14.5,-8.4 28.3,-18.96 37.38,-33.29 8.15,-12.61 11.66,-28.16 9.47,-43.03 -2.58,-19.39 -12.21,-37.17 -24.31,-52.27 -3.62,-4.22 -7.15,-8.62 -11.63,-11.97 4.02,10.03 4.49,23.17 -3.72,31.26 -2.29,-9.03 -5.58,-17.81 -9.85,-26.09 -8.43,-16.24 -21.43,-30.82 -38.53,-38.05 z"
       id="path2412" />
  </g>
  <path
     d="m 20.12022,70.727705 q 0,0.573609 -0.217041,1.012858 -0.217041,0.43925 -0.583944,0.72347 -0.434082,0.341065 -0.956014,0.485759 -0.516764,0.144694 -1.317749,0.144694 h -2.728516 v -7.694621 h 2.278931 q 0.842326,0 1.260905,0.06201 0.418579,0.06201 0.800985,0.258382 0.423747,0.222209 0.61495,0.573608 0.191202,0.346233 0.191202,0.831991 0,0.54777 -0.279052,0.935343 -0.279053,0.382406 -0.744141,0.61495 v 0.04134 q 0.780314,0.160197 1.229899,0.687297 0.449585,0.521932 0.449585,1.322916 z m -1.720825,-3.467488 q 0,-0.279053 -0.09302,-0.470256 -0.09302,-0.191203 -0.299723,-0.310058 Q 17.763773,66.340376 17.417541,66.30937 17.071309,66.2732 16.559711,66.2732 H 15.34015 v 2.222086 h 1.322917 q 0.480591,0 0.764811,-0.04651 0.28422,-0.05168 0.5271,-0.206706 0.242879,-0.155029 0.341064,-0.397909 0.103353,-0.248046 0.103353,-0.583944 z m 0.656291,3.508829 q 0,-0.465088 -0.139527,-0.738973 -0.139526,-0.273885 -0.506429,-0.465087 -0.248047,-0.129192 -0.604614,-0.165365 -0.3514,-0.04134 -0.857829,-0.04134 H 15.34015 v 2.862874 h 1.353923 q 0.671793,0 1.100708,-0.06718 0.428914,-0.07235 0.702799,-0.258382 0.289388,-0.201539 0.423747,-0.459921 0.134359,-0.258382 0.134359,-0.666626 z"
     style="font-style:normal;font-variant:normal;font-weight:normal;font-stretch:normal;font-size:medium;line-height:1.25;font-family:Raleway;-inkscape-font-specification:Raleway;font-variant-ligatures:normal;font-variant-caps:normal;font-variant-numeric:normal;font-feature-settings:normal;text-align:start;letter-spacing:0px;word-spacing:0px;writing-mode:lr-tb;text-anchor:start;fill:#ffffff;fill-opacity:1;stroke:none;stroke-width:0.26458332"
     id="path2431" />
  <path
     d="m 25.096661,68.381595 h -0.05168 q -0.217041,-0.05168 -0.423747,-0.07235 -0.201538,-0.02584 -0.48059,-0.02584 -0.449585,0 -0.868164,0.201538 -0.41858,0.196371 -0.806153,0.511597 v 4.097941 h -0.971517 v -5.772258 h 0.971517 v 0.852662 q 0.578776,-0.465088 1.018026,-0.656291 0.444417,-0.196371 0.904337,-0.196371 0.253215,0 0.366903,0.0155 0.113688,0.01034 0.341065,0.04651 z"
     style="font-style:normal;font-variant:normal;font-weight:normal;font-stretch:normal;font-size:medium;line-height:1.25;font-family:Raleway;-inkscape-font-specification:Raleway;font-variant-ligatures:normal;font-variant-caps:normal;font-variant-numeric:normal;font-feature-settings:normal;text-align:start;letter-spacing:0px;word-spacing:0px;writing-mode:lr-tb;text-anchor:start;fill:#ffffff;fill-opacity:1;stroke:none;stroke-width:0.26458332"
     id="path2433" />
  <path
     d="m 30.321148,73.094486 h -0.966349 v -0.61495 q -0.129192,0.08785 -0.3514,0.248047 -0.217041,0.155029 -0.423747,0.248047 -0.242879,0.118856 -0.558105,0.19637 -0.315227,0.08268 -0.738973,0.08268 -0.780314,0 -1.322917,-0.516765 -0.542602,-0.516764 -0.542602,-1.317749 0,-0.65629 0.279052,-1.059366 0.284221,-0.408244 0.806153,-0.640788 0.527099,-0.232544 1.266072,-0.315226 0.738973,-0.08268 1.586467,-0.124024 v -0.149861 q 0,-0.33073 -0.118856,-0.547771 -0.113688,-0.217041 -0.330729,-0.341064 -0.206706,-0.118856 -0.496094,-0.160197 -0.289388,-0.04134 -0.604614,-0.04134 -0.382406,0 -0.852661,0.103353 -0.470256,0.09819 -0.971517,0.289388 h -0.05168 v -0.98702 q 0.284221,-0.07751 0.821655,-0.170532 0.537435,-0.09302 1.059367,-0.09302 0.609782,0 1.059367,0.103353 0.454753,0.09819 0.785482,0.341064 0.325561,0.237712 0.496094,0.61495 0.170532,0.377238 0.170532,0.935343 z m -0.966349,-1.421102 v -1.607137 q -0.444418,0.02584 -1.049032,0.07752 -0.599447,0.05168 -0.950846,0.149861 -0.418579,0.118856 -0.676962,0.372071 -0.258382,0.248046 -0.258382,0.687296 0,0.496094 0.299724,0.749308 0.299723,0.248047 0.914672,0.248047 0.511597,0 0.935344,-0.19637 0.423747,-0.201538 0.785482,-0.480591 z"
     style="font-style:normal;font-variant:normal;font-weight:normal;font-stretch:normal;font-size:medium;line-height:1.25;font-family:Raleway;-inkscape-font-specification:Raleway;font-variant-ligatures:normal;font-variant-caps:normal;font-variant-numeric:normal;font-feature-settings:normal;text-align:start;letter-spacing:0px;word-spacing:0px;writing-mode:lr-tb;text-anchor:start;fill:#ffffff;fill-opacity:1;stroke:none;stroke-width:0.26458332"
     id="path2435" />
  <path
     d="m 37.028747,73.094486 h -0.971516 v -3.286621 q 0,-0.397909 -0.04651,-0.744141 -0.04651,-0.3514 -0.170532,-0.54777 -0.129192,-0.217041 -0.372071,-0.320394 -0.242879,-0.10852 -0.630452,-0.10852 -0.397909,0 -0.831991,0.19637 -0.434082,0.19637 -0.83199,0.501261 v 4.309815 h -0.971517 v -5.772258 h 0.971517 v 0.640788 q 0.454752,-0.377238 0.940511,-0.589111 0.485758,-0.211874 0.997355,-0.211874 0.935343,0 1.426269,0.563274 0.490926,0.563273 0.490926,1.62264 z"
     style="font-style:normal;font-variant:normal;font-weight:normal;font-stretch:normal;font-size:medium;line-height:1.25;font-family:Raleway;-inkscape-font-specification:Raleway;font-variant-ligatures:normal;font-variant-caps:normal;font-variant-numeric:normal;font-feature-settings:normal;text-align:start;letter-spacing:0px;word-spacing:0px;writing-mode:lr-tb;text-anchor:start;fill:#ffffff;fill-opacity:1;stroke:none;stroke-width:0.26458332"
     id="path2437" />
  <path
     d="m 43.581319,73.094486 h -0.971517 v -0.604614 q -0.418579,0.361735 -0.873332,0.563273 -0.454752,0.201538 -0.987019,0.201538 -1.033529,0 -1.643311,-0.795817 -0.604614,-0.795817 -0.604614,-2.206584 0,-0.733805 0.206706,-1.307414 0.211873,-0.573608 0.56844,-0.976684 0.3514,-0.392741 0.816488,-0.599447 0.470255,-0.206706 0.971517,-0.206706 0.454752,0 0.806152,0.09819 0.3514,0.09302 0.738973,0.294555 v -2.501143 h 0.971517 z m -0.971517,-1.421102 v -3.312459 q -0.392741,-0.1757 -0.702799,-0.24288 -0.310059,-0.06718 -0.676962,-0.06718 -0.816487,0 -1.27124,0.568441 -0.454752,0.568441 -0.454752,1.612304 0,1.028361 0.351399,1.565796 0.3514,0.532268 1.126547,0.532268 0.413411,0 0.837158,-0.180868 0.423746,-0.186035 0.790649,-0.475422 z"
     style="font-style:normal;font-variant:normal;font-weight:normal;font-stretch:normal;font-size:medium;line-height:1.25;font-family:Raleway;-inkscape-font-specification:Raleway;font-variant-ligatures:normal;font-variant-caps:normal;font-variant-numeric:normal;font-feature-settings:normal;text-align:start;letter-spacing:0px;word-spacing:0px;writing-mode:lr-tb;text-anchor:start;fill:#ffffff;fill-opacity:1;stroke:none;stroke-width:0.26458332"
     id="path2439" />
  <path
     d="m 49.617128,71.430505 q 0,0.790649 -0.656291,1.297078 -0.651123,0.506429 -1.782837,0.506429 -0.640788,0 -1.178223,-0.149862 -0.532267,-0.155029 -0.894002,-0.335896 v -1.090373 h 0.05168 q 0.45992,0.346232 1.023193,0.552938 0.563273,0.201538 1.080037,0.201538 0.640788,0 1.002523,-0.206706 0.361735,-0.206706 0.361735,-0.651123 0,-0.341064 -0.19637,-0.516764 -0.196371,-0.1757 -0.754476,-0.299723 -0.206706,-0.04651 -0.542603,-0.108521 -0.330729,-0.06201 -0.604614,-0.134359 -0.759643,-0.201538 -1.080037,-0.589111 -0.315227,-0.392741 -0.315227,-0.961182 0,-0.356567 0.144694,-0.671793 0.149862,-0.315226 0.449585,-0.563273 0.289388,-0.24288 0.733806,-0.382406 0.449585,-0.144694 1.002522,-0.144694 0.516765,0 1.043864,0.129191 0.532268,0.124024 0.883667,0.304891 v 1.038696 h -0.05168 q -0.37207,-0.273885 -0.904338,-0.45992 -0.532267,-0.191203 -1.043864,-0.191203 -0.532267,0 -0.899169,0.206706 -0.366903,0.201538 -0.366903,0.604614 0,0.356568 0.222209,0.537435 0.217041,0.180868 0.702799,0.294556 0.268717,0.06201 0.599447,0.124023 0.335896,0.06201 0.558105,0.113688 0.676961,0.15503 1.043864,0.532268 0.366903,0.382405 0.366903,1.012858 z"
     style="font-style:normal;font-variant:normal;font-weight:normal;font-stretch:normal;font-size:medium;line-height:1.25;font-family:Raleway;-inkscape-font-specification:Raleway;font-variant-ligatures:normal;font-variant-caps:normal;font-variant-numeric:normal;font-feature-settings:normal;text-align:start;letter-spacing:0px;word-spacing:0px;writing-mode:lr-tb;text-anchor:start;fill:#ffffff;fill-opacity:1;stroke:none;stroke-width:0.26458332"
     id="path2441" />
  <path
     d="m 55.280865,72.732751 q -0.485759,0.232544 -0.925009,0.361735 -0.434082,0.129191 -0.925008,0.129191 -0.625284,0 -1.147216,-0.180868 -0.521932,-0.186035 -0.894003,-0.558105 -0.377238,-0.37207 -0.583943,-0.940511 -0.206706,-0.568441 -0.206706,-1.328084 0,-1.415935 0.775146,-2.222087 0.780315,-0.806152 2.056722,-0.806152 0.496094,0 0.971517,0.139526 0.480591,0.139526 0.8785,0.341065 v 1.080037 h -0.05168 q -0.444417,-0.346232 -0.91984,-0.532267 -0.470256,-0.186035 -0.919841,-0.186035 -0.826823,0 -1.307413,0.558105 -0.475424,0.552938 -0.475424,1.627808 0,1.043863 0.465088,1.607137 0.470256,0.558105 1.317749,0.558105 0.294556,0 0.599447,-0.07752 0.304891,-0.07751 0.54777,-0.201538 0.211873,-0.10852 0.397909,-0.227376 0.186035,-0.124023 0.294555,-0.211873 h 0.05168 z"
     style="font-style:normal;font-variant:normal;font-weight:normal;font-stretch:normal;font-size:medium;line-height:1.25;font-family:Raleway;-inkscape-font-specification:Raleway;font-variant-ligatures:normal;font-variant-caps:normal;font-variant-numeric:normal;font-feature-settings:normal;text-align:start;letter-spacing:0px;word-spacing:0px;writing-mode:lr-tb;text-anchor:start;fill:#ffffff;fill-opacity:1;stroke:none;stroke-width:0.26458332"
     id="path2443" />
  <path
     d="m 61.358013,73.094486 h -0.971517 v -3.286621 q 0,-0.397909 -0.04651,-0.744141 -0.04651,-0.3514 -0.170532,-0.54777 -0.129191,-0.217041 -0.37207,-0.320394 -0.242879,-0.10852 -0.630453,-0.10852 -0.397908,0 -0.83199,0.19637 -0.434082,0.19637 -0.831991,0.501261 v 4.309815 h -0.971516 v -8.040853 h 0.971517 v 2.909383 q 0.454753,-0.377238 0.940511,-0.589111 0.485759,-0.211874 0.997355,-0.211874 0.935344,0 1.42627,0.563274 0.490926,0.563273 0.490926,1.62264 z"
     style="font-style:normal;font-variant:normal;font-weight:normal;font-stretch:normal;font-size:medium;line-height:1.25;font-family:Raleway;-inkscape-font-specification:Raleway;font-variant-ligatures:normal;font-variant-caps:normal;font-variant-numeric:normal;font-feature-settings:normal;text-align:start;letter-spacing:0px;word-spacing:0px;writing-mode:lr-tb;text-anchor:start;fill:#ffffff;fill-opacity:1;stroke:none;stroke-width:0.26458332"
     id="path2445" />
  <path
     d="m 68.013937,73.094486 h -0.971516 v -0.640788 q -0.490926,0.387573 -0.940511,0.594279 -0.449585,0.206706 -0.992188,0.206706 -0.909505,0 -1.415934,-0.552938 -0.506429,-0.558106 -0.506429,-1.632975 v -3.746542 h 0.971517 v 3.286621 q 0,0.43925 0.04134,0.754476 0.04134,0.310059 0.1757,0.532268 0.139526,0.227376 0.361735,0.330729 0.222208,0.103353 0.645955,0.103353 0.377238,0 0.821655,-0.196371 0.449585,-0.19637 0.837159,-0.501261 v -4.309815 h 0.971516 z"
     style="font-style:normal;font-variant:normal;font-weight:normal;font-stretch:normal;font-size:medium;line-height:1.25;font-family:Raleway;-inkscape-font-specification:Raleway;font-variant-ligatures:normal;font-variant-caps:normal;font-variant-numeric:normal;font-feature-settings:normal;text-align:start;letter-spacing:0px;word-spacing:0px;writing-mode:lr-tb;text-anchor:start;fill:#ffffff;fill-opacity:1;stroke:none;stroke-width:0.26458332"
     id="path2447" />
  <path
     d="m 72.923199,73.042809 q -0.273885,0.07235 -0.599447,0.118856 -0.320394,0.04651 -0.573608,0.04651 -0.883667,0 -1.343588,-0.475423 -0.45992,-0.475423 -0.45992,-1.524455 v -3.06958 h -0.65629 v -0.816488 h 0.65629 v -1.658813 h 0.971517 v 1.658813 h 2.005046 v 0.816488 h -2.005046 v 2.63033 q 0,0.454753 0.02067,0.713135 0.02067,0.253215 0.144694,0.475423 0.113688,0.206706 0.310058,0.304891 0.201538,0.09302 0.609782,0.09302 0.237712,0 0.496094,-0.06718 0.258382,-0.07235 0.37207,-0.118855 h 0.05168 z"
     style="font-style:normal;font-variant:normal;font-weight:normal;font-stretch:normal;font-size:medium;line-height:1.25;font-family:Raleway;-inkscape-font-specification:Raleway;font-variant-ligatures:normal;font-variant-caps:normal;font-variant-numeric:normal;font-feature-settings:normal;text-align:start;letter-spacing:0px;word-spacing:0px;writing-mode:lr-tb;text-anchor:start;fill:#ffffff;fill-opacity:1;stroke:none;stroke-width:0.26458332"
     id="path2449" />
  <path
     d="m 78.28721,73.094486 h -4.661214 v -0.718303 l 3.364135,-4.242635 h -3.291788 v -0.81132 h 4.501017 v 0.692465 l -3.379639,4.258137 h 3.467489 z"
     style="font-style:normal;font-variant:normal;font-weight:normal;font-stretch:normal;font-size:medium;line-height:1.25;font-family:Raleway;-inkscape-font-specification:Raleway;font-variant-ligatures:normal;font-variant-caps:normal;font-variant-numeric:normal;font-feature-settings:normal;text-align:start;letter-spacing:0px;word-spacing:0px;writing-mode:lr-tb;text-anchor:start;fill:#ffffff;fill-opacity:1;stroke:none;stroke-width:0.26458332"
     id="path2451" />
</svg>
