<?xml version="1.0" encoding="UTF-8" standalone="no"?>
<svg
   xmlns:osb="http://www.openswatchbook.org/uri/2009/osb"
   xmlns:dc="http://purl.org/dc/elements/1.1/"
   xmlns:cc="http://creativecommons.org/ns#"
   xmlns:rdf="http://www.w3.org/1999/02/22-rdf-syntax-ns#"
   xmlns:svg="http://www.w3.org/2000/svg"
   xmlns="http://www.w3.org/2000/svg"
   width="350"
   height="350"
   viewBox="0 0 92.604166 92.604166"
   version="1.1"
   id="svg6801">
  <defs
     id="defs6795">
    <linearGradient
       id="linearGradient7356"
       osb:paint="gradient">
      <stop
         style="stop-color:#846a50;stop-opacity:1;"
         offset="0"
         id="stop7352" />
      <stop
         style="stop-color:#846a50;stop-opacity:0;"
         offset="1"
         id="stop7354" />
    </linearGradient>
  </defs>
  <metadata
     id="metadata6798">
    <rdf:RDF>
      <cc:Work
         rdf:about="">
        <dc:format>image/svg+xml</dc:format>
        <dc:type
           rdf:resource="http://purl.org/dc/dcmitype/StillImage" />
        <dc:title></dc:title>
      </cc:Work>
    </rdf:RDF>
  </metadata>
  <rect
     y="1.6717295e-005"
     x="0"
     height="92.604164"
     width="92.604164"
     id="rect7348"
     style="fill:#846a50;fill-opacity:1;stroke-width:0.29464963" />
  <text
     id="text1472"
     y="90.86692"
     x="8.6862602"
     style="font-style:normal;font-variant:normal;font-weight:normal;font-stretch:normal;font-size:10.58333302px;line-height:1.25;font-family:Raleway;-inkscape-font-specification:Raleway;font-variant-ligatures:normal;font-variant-caps:normal;font-variant-numeric:normal;font-feature-settings:normal;text-align:start;letter-spacing:0px;word-spacing:0px;writing-mode:lr-tb;text-anchor:start;fill:#000000;fill-opacity:1;stroke:none;stroke-width:0.26458332"
     xml:space="preserve"><tspan
       style="font-style:normal;font-variant:normal;font-weight:normal;font-stretch:normal;font-family:Raleway;-inkscape-font-specification:Raleway;stroke-width:0.26458332"
       y="100.52241"
       x="8.6862602"
       id="tspan1470" /></text>
  <g
     transform="matrix(0.11431685,0,0,0.11431685,3.0498347,10.249963)"
     id="#323030ff" />
  <g
     style="fill:#ffffff"
     transform="matrix(0.17638889,0,0,0.17638889,26.447465,19.169667)"
     id="g5621">
    <g
       style="fill:#ffffff"
       id="#ffffffff" />
    <g
       style="fill:#ffffff"
       id="#000000ff">
      <path
         style="opacity:1;fill:#ffffff"
         d="m 76.07,0 h 1.54 c 2.67,0.91 4.84,3.22 5.05,6.11 0.17,3.76 -4.04,6.05 -3.7,9.86 -0.17,6.43 4.81,11.29 6.5,17.22 2.71,7.87 -0.16,16.7 -5.7,22.61 -4.22,3.93 -10.53,-2.79 -8.4,-7.3 1.63,-3.23 4.3,-6.47 3.19,-10.36 C 72.79,30.5 66.56,24.25 66.98,16.01 67.48,9.86 70.32,2.92 76.07,0 Z"
         id="path5598" />
      <path
         style="opacity:1;fill:#ffffff"
         d="m 111.53,0 h 1.43 c 3.16,1.04 5.84,4.27 5.06,7.73 -1.25,3.07 -4.2,5.66 -3.69,9.26 0.66,6.63 5.92,11.65 7.1,18.15 1.62,6.05 -0.35,12.48 -3.77,17.54 -1.33,2.02 -3,4.37 -5.69,4.43 -3.61,-0.65 -6.17,-4.54 -5.33,-8.11 1.14,-3.01 3.84,-5.54 3.46,-9.01 -0.3,-7.66 -6.82,-13.37 -7.41,-21 -0.82,-7.14 2.32,-15.51 8.84,-18.99 z"
         id="path5600" />
      <path
         style="opacity:1;fill:#ffffff"
         d="m 146.97,0 h 1.42 c 4.27,1 6.92,6.68 3.78,10.18 -2.17,2.71 -3.04,6.33 -1.85,9.67 1.87,5.89 6.27,10.83 6.89,17.14 1.05,6.85 -1.96,13.73 -6.52,18.73 -4.25,4.16 -10.8,-2.93 -8.31,-7.49 1.64,-3.08 4.14,-6.26 3.09,-9.99 -1.82,-8 -8.59,-14.65 -7.54,-23.33 0.85,-5.75 3.62,-12.17 9.04,-14.91 z"
         id="path5602" />
      <path
         style="opacity:1;fill:#ffffff"
         d="M 37.12,86.22 C 40.9,77.9 49.74,71.99 58.97,72.38 c 6.73,-0.14 13.06,3.13 17.59,7.97 4.69,-5.06 11.41,-8.34 18.4,-7.97 6.61,-0.07 12.82,3.22 17.29,7.95 4.33,-4.65 10.35,-7.84 16.8,-7.94 7.1,-0.47 14.07,2.72 18.81,7.93 4.66,-4.92 11.22,-8.22 18.1,-7.95 10.48,-0.21 20.25,7.72 22.73,17.79 0.91,3.64 0.65,7.42 0.68,11.13 2.27,0.01 4.54,0.01 6.81,-0.02 0.13,-8 -0.18,-16.02 0.13,-24.01 0.3,-4.57 6.62,-6.49 9.71,-3.35 2.02,1.74 1.73,4.65 1.82,7.05 -0.08,8.66 0.08,17.33 -0.07,26 0.14,2.82 -1.85,5.54 -4.73,5.9 -4.53,0.51 -9.11,0.1 -13.66,0.22 -0.04,29.64 0.05,59.29 -0.04,88.93 0.01,12.1 -10.77,22.56 -22.73,22.99 h -2.11 c -6.32,-0.59 -12.37,-3.36 -16.59,-8.15 -4.37,4.85 -10.58,7.77 -17.09,8.15 h -1.52 c -6.53,-0.38 -12.72,-3.33 -17.16,-8.12 -4.13,4.76 -10.12,7.47 -16.33,8.12 h -3.08 c -6.27,-0.64 -11.94,-3.7 -16.38,-8.08 -4.08,4.8 -10.13,7.45 -16.32,8.08 h -2.66 c -8.41,-0.65 -16.29,-5.78 -19.96,-13.42 -2.21,-4.17 -2.42,-8.99 -2.48,-13.6 0.02,-28.3 0.01,-56.6 0,-84.89 -4.8,-0.3 -9.8,0.7 -14.46,-0.69 -4.77,-1.95 -4.01,-9.95 1.11,-10.89 4.43,-0.49 8.9,-0.07 13.35,-0.21 C 34.9,96.22 34.92,90.91 37.12,86.22 M 54.44,84.8 c -4.95,1.77 -8.07,7.03 -7.75,12.21 0.01,34.65 -0.03,69.3 0.03,103.95 -0.27,6.59 5.67,12.57 12.27,12.27 6.39,-0.02 11.94,-5.91 11.73,-12.27 0,-34.99 0.03,-69.97 -0.01,-104.95 C 70.88,87.99 61.93,81.64 54.44,84.8 m 36.09,-0.13 c -4.73,1.57 -8.17,6.29 -8.14,11.29 -0.03,34.99 -0.01,69.99 -0.01,104.99 -0.3,6.71 5.89,12.76 12.59,12.26 6.28,-0.19 11.56,-5.97 11.41,-12.21 0.09,-34.35 -0.01,-68.71 0.05,-103.06 0.03,-3.33 -0.51,-6.93 -2.8,-9.52 -3.01,-3.86 -8.51,-5.31 -13.1,-3.75 m 35.9,-0.09 c -4.8,1.52 -8.45,6.26 -8.31,11.36 -0.04,35.04 -0.01,70.09 -0.01,105.14 -0.26,6.06 4.84,11.68 10.88,12.1 6.79,0.8 13.42,-5.31 13,-12.17 0.01,-35.02 0.03,-70.03 0,-105.04 0.35,-7.79 -8.23,-14 -15.56,-11.39 m 34.99,0.24 c -4.89,1.83 -8.03,7.05 -7.7,12.22 0.02,34.65 -0.03,69.29 0.03,103.94 -0.26,6.58 5.72,12.57 12.31,12.24 6.34,-0.05 11.91,-5.84 11.68,-12.17 0,-35.04 0.02,-70.07 -0.01,-105.11 0.24,-8.02 -8.88,-14.3 -16.31,-11.12 z"
         id="path5604" />
    </g>
  </g>
  <text
     id="text5625"
     y="73.2743"
     x="9.8650303"
     style="font-style:normal;font-variant:normal;font-weight:normal;font-stretch:normal;font-size:10.58333302px;line-height:1.25;font-family:Raleway;-inkscape-font-specification:Raleway;font-variant-ligatures:normal;font-variant-caps:normal;font-variant-numeric:normal;font-feature-settings:normal;text-align:start;letter-spacing:0px;word-spacing:0px;writing-mode:lr-tb;text-anchor:start;fill:#ffffff;fill-opacity:1;stroke:none;stroke-width:0.26458332"
     xml:space="preserve"><tspan
       style="fill:#ffffff;stroke-width:0.26458332"
       y="73.2743"
       x="9.8650303"
       id="tspan5623">Wärmebedarf</tspan></text>
</svg>
