<?xml version="1.0" encoding="UTF-8" standalone="no"?>
<svg
   xmlns:osb="http://www.openswatchbook.org/uri/2009/osb"
   xmlns:dc="http://purl.org/dc/elements/1.1/"
   xmlns:cc="http://creativecommons.org/ns#"
   xmlns:rdf="http://www.w3.org/1999/02/22-rdf-syntax-ns#"
   xmlns:svg="http://www.w3.org/2000/svg"
   xmlns="http://www.w3.org/2000/svg"
   width="350"
   height="350"
   viewBox="0 0 92.604166 92.604166"
   version="1.1"
   id="svg6801">
  <defs
     id="defs6795">
    <linearGradient
       id="linearGradient7356"
       osb:paint="gradient">
      <stop
         style="stop-color:#846a50;stop-opacity:1;"
         offset="0"
         id="stop7352" />
      <stop
         style="stop-color:#846a50;stop-opacity:0;"
         offset="1"
         id="stop7354" />
    </linearGradient>
  </defs>
  <metadata
     id="metadata6798">
    <rdf:RDF>
      <cc:Work
         rdf:about="">
        <dc:format>image/svg+xml</dc:format>
        <dc:type
           rdf:resource="http://purl.org/dc/dcmitype/StillImage" />
        <dc:title></dc:title>
      </cc:Work>
    </rdf:RDF>
  </metadata>
  <rect
     y="1.6243348e-005"
     x="0"
     height="92.604164"
     width="92.604164"
     id="rect7348"
     style="fill:#846a50;fill-opacity:1;stroke-width:0.29464963" />
  <text
     id="text1472"
     y="90.86692"
     x="8.6862602"
     style="font-style:normal;font-variant:normal;font-weight:normal;font-stretch:normal;font-size:10.58333302px;line-height:1.25;font-family:Raleway;-inkscape-font-specification:Raleway;font-variant-ligatures:normal;font-variant-caps:normal;font-variant-numeric:normal;font-feature-settings:normal;text-align:start;letter-spacing:0px;word-spacing:0px;writing-mode:lr-tb;text-anchor:start;fill:#000000;fill-opacity:1;stroke:none;stroke-width:0.26458332"
     xml:space="preserve"><tspan
       style="font-style:normal;font-variant:normal;font-weight:normal;font-stretch:normal;font-family:Raleway;-inkscape-font-specification:Raleway;stroke-width:0.26458332"
       y="100.52241"
       x="8.6862602"
       id="tspan1470" /></text>
  <g
     transform="matrix(0.11431685,0,0,0.11431685,3.0498347,10.249963)"
     id="#323030ff" />
  <g
     transform="matrix(0.73203323,0,0,0.73203323,17.249511,14.308041)"
     id="g1682">
    <path
       id="path1471-2"
       d="m 24.197481,34.907493 c 5.149264,-4.542236 10.279416,-9.107226 15.434141,-13.643091 5.124691,4.47489 10.222078,8.982543 15.341311,13.463804 0.147434,0.141064 0.385877,0.267565 0.342192,0.508738 -0.02639,6.371508 -0.08009,12.743016 -0.106481,19.114526 -0.0036,0.313978 0.02912,0.664363 -0.172916,0.931017 -0.182017,0.275755 -0.522387,0.388607 -0.84092,0.368584 -9.739733,-0.0027 -19.479469,0.0027 -29.219204,-0.0027 -0.502366,0.02912 -0.952859,-0.42319 -0.917366,-0.926466 -0.0019,-6.495269 8.76e-4,-12.99146 -8.75e-4,-19.486741 -0.01456,-0.129232 0.02821,-0.254824 0.140153,-0.327629 z"
       style="opacity:1;fill:#846a50;fill-opacity:1;stroke-width:0.09100855" />
    <path
       id="path1644"
       d="m 46.955075,5.2536686 h 2.138798 c 0.143671,0.089455 0.433724,0.2710771 0.577394,0.3605325 0.149093,2.209278 -0.127406,4.4293989 0.14096,6.6332559 0.311739,-0.0027 0.620767,-0.0027 0.929795,0.0054 0.265655,-2.081872 0.0054,-4.180008 0.138249,-6.2673013 3.347802,1.0978621 5.052876,4.6598143 5.673643,7.8991853 0.693957,0.04608 1.390625,0.09759 2.087293,0.135539 -0.0027,0.571972 -0.0081,1.146656 -0.01355,1.721339 -6.944994,-0.0244 -13.887277,-0.01084 -20.832272,-0.0054 -0.06235,-0.574684 -0.07861,-1.149367 -0.05421,-1.724051 0.707511,-0.03795 1.415022,-0.09217 2.122533,-0.149092 0.45541,-3.269189 2.336685,-6.676628 5.55708,-7.8774993 0.219572,1.9707302 -0.0759,3.957725 0.135539,5.9230333 0.02169,0.582816 0.699378,0.268367 1.051779,0.303607 0.279209,-2.3122876 -0.330714,-4.7031873 0.346978,-6.9585484 z"
       style="opacity:1;fill:#ffffff;stroke-width:0.27107707" />
    <path
       id="path1646"
       d="m 40.583618,15.471989 c 5.066995,-0.05051 10.137147,-0.03473 15.207298,-0.0063 0.498807,4.312469 -3.232774,8.694394 -7.649425,8.498659 -4.381924,0.09786 -7.996696,-4.214602 -7.557873,-8.492346 z"
       style="opacity:1;fill:#ffffff;stroke-width:0.31570059" />
    <path
       id="path1648"
       d="m 18.047424,19.11926 c 2.268915,-0.571972 4.494457,0.403905 6.692892,0.837628 0.813231,0.235837 1.753869,0.265656 2.436983,0.799678 0.466252,0.807809 0.618056,1.748447 0.886422,2.632158 0.927083,3.258346 1.86501,6.513982 2.792094,9.772328 0.468963,-1.040936 0.721065,-2.17946 1.355385,-3.141783 1.374361,-2.222832 3.776103,-3.846584 6.400129,-4.090553 1.986995,-0.173489 3.97399,-0.38764 5.971828,-0.300896 4.808907,0.09759 9.653054,-0.287341 14.429432,0.444567 4.209827,0.864736 7.191674,5.039322 7.194385,9.25186 0.05693,6.242905 -0.0081,12.485809 0.02982,18.728714 0,1.184607 -0.02169,2.510174 -0.862026,3.442679 -1.016539,1.230689 -3.117386,1.157499 -4.144768,-0.0244 -0.721065,-0.761727 -0.848471,-1.8623 -0.84576,-2.865285 0.03795,-5.608584 -0.0081,-11.217169 0.02982,-16.825753 -0.0027,-0.618056 -0.04337,-1.236111 -0.08946,-1.851456 -0.531311,-0.0027 -1.065333,-0.0027 -1.596644,-0.0027 -0.135539,7.460041 0.04066,14.922792 -0.09488,22.382833 -6.749819,-0.01627 -13.499638,-0.01355 -20.252167,-0.0027 -0.173489,-7.454619 0.03524,-14.920081 -0.08675,-22.380122 -0.585526,0.0054 -1.171053,0.01355 -1.756579,0.0244 0.01355,3.231238 0.01084,6.462477 0.01355,9.693716 -0.01627,1.406889 0.151803,2.849019 -0.287342,4.212537 -0.750883,1.908383 1.051779,3.708334 0.569262,5.649246 -0.38764,2.024946 -2.252651,3.244792 -4.033627,3.963147 h -2.721614 c -1.030092,-0.577395 -2.098136,-1.255087 -2.621315,-2.361082 -0.954191,-1.911093 -1.753868,-3.895377 -2.727035,-5.795627 -1.027382,0.168068 -2.100847,0.680403 -3.13094,0.257523 -1.797241,-0.593659 -2.737878,-2.870706 -1.932779,-4.570359 0.433723,-0.891844 1.341831,-1.385204 2.108979,-1.949044 -2.81378,-6.202243 -5.746834,-12.355693 -8.636515,-18.525407 v -2.721613 c 0.821363,-2.17946 2.550835,-4.188141 4.909206,-4.684212 m 0.891843,1.705075 c -1.553271,0.168068 -2.892392,1.263219 -3.608036,2.615894 -0.897265,1.721339 -0.24939,4.044469 1.417733,5.039322 1.518032,0.902687 4.020073,0.534022 4.638129,-1.306591 -0.718354,0.444566 -1.374361,1.157499 -2.28518,1.116837 -1.837902,0.214151 -3.309851,-1.75929 -2.92221,-3.486051 0.292763,-2.081872 2.759564,-3.242081 4.648971,-2.553546 1.363518,0.436434 2.193014,1.710497 2.697217,2.976426 2.350238,5.058298 4.738427,10.100332 7.075111,15.166762 0.195176,0.420169 0.436434,0.818653 0.696668,1.203582 C 31.164842,40.791871 30.934427,40.008458 30.695879,39.230467 29.050441,33.54056 27.445665,27.837098 25.77312,22.155323 24.561405,21.781237 23.317162,21.531846 22.091893,21.214686 21.0618,20.959873 20.007311,20.672532 18.939267,20.824335 m 1.89754,9.484986 c -1.127681,0.577394 -2.42614,0.395773 -3.645987,0.414748 2.0385,4.524276 4.163744,9.010602 6.29712,13.488795 1.103284,-0.20873 2.366503,-0.504204 3.355934,0.21144 1.68881,1.062622 2.122534,3.814054 0.544865,5.153175 -0.341557,0.390351 -1.236111,0.683114 -0.80781,1.322856 0.924373,1.889407 1.710497,3.849294 2.721614,5.692618 1.550561,2.18217 5.473046,0.750883 5.76852,-1.745736 0.01084,-0.856604 -0.49065,-1.604776 -0.826785,-2.361081 -3.467076,-7.392272 -6.920597,-14.792676 -10.379541,-22.190369 -0.265655,-0.612634 -0.534022,-1.227979 -0.918951,-1.772844 -0.637031,0.661428 -1.238822,1.417733 -2.108979,1.786398 z"
       style="opacity:1;fill:#ffffff;stroke-width:0.27107707" />
  </g>
  <path
     d="m 24.791765,69.897571 q 0,0.573609 -0.217041,1.012858 -0.217041,0.43925 -0.583944,0.72347 -0.434082,0.341065 -0.956014,0.485759 -0.516764,0.144694 -1.317749,0.144694 h -2.728515 v -7.694621 h 2.27893 q 0.842326,0 1.260905,0.06201 0.418579,0.06201 0.800985,0.258382 0.423747,0.222209 0.614949,0.573608 0.191203,0.346233 0.191203,0.831991 0,0.54777 -0.279053,0.935343 -0.279052,0.382406 -0.74414,0.61495 v 0.04134 q 0.780314,0.160197 1.229899,0.687297 0.449585,0.521932 0.449585,1.322916 z M 23.07094,66.430083 q 0,-0.279053 -0.09302,-0.470256 -0.09302,-0.191203 -0.299723,-0.310058 -0.242879,-0.139527 -0.589111,-0.170533 -0.346233,-0.03617 -0.857829,-0.03617 h -1.219564 v 2.222086 h 1.322917 q 0.48059,0 0.764811,-0.04651 0.28422,-0.05168 0.527099,-0.206706 0.24288,-0.155029 0.341065,-0.397909 0.103353,-0.248046 0.103353,-0.583943 z m 0.65629,3.508829 q 0,-0.465088 -0.139526,-0.738973 -0.139526,-0.273885 -0.506429,-0.465087 -0.248047,-0.129192 -0.604614,-0.165365 -0.3514,-0.04134 -0.857829,-0.04134 h -1.607137 v 2.862874 h 1.353922 q 0.671794,0 1.100708,-0.06718 0.428915,-0.07235 0.7028,-0.258382 0.289388,-0.201539 0.423747,-0.459921 0.134358,-0.258382 0.134358,-0.666626 z"
     style="font-style:normal;font-variant:normal;font-weight:normal;font-stretch:normal;font-size:medium;line-height:1.25;font-family:Raleway;-inkscape-font-specification:Raleway;font-variant-ligatures:normal;font-variant-caps:normal;font-variant-numeric:normal;font-feature-settings:normal;text-align:start;letter-spacing:0px;word-spacing:0px;writing-mode:lr-tb;text-anchor:start;fill:#ffffff;fill-opacity:1;stroke:none;stroke-width:0.26458332"
     id="path2381" />
  <path
     d="m 30.651872,72.264352 h -0.966349 v -0.61495 q -0.129191,0.08785 -0.3514,0.248047 -0.217041,0.155029 -0.423746,0.248047 -0.24288,0.118856 -0.558106,0.19637 -0.315226,0.08268 -0.738973,0.08268 -0.780314,0 -1.322916,-0.516765 -0.542603,-0.516764 -0.542603,-1.317749 0,-0.65629 0.279053,-1.059366 0.28422,-0.408244 0.806152,-0.640788 0.5271,-0.232544 1.266073,-0.315226 0.738973,-0.08268 1.586466,-0.124024 v -0.149861 q 0,-0.33073 -0.118856,-0.547771 -0.113688,-0.217041 -0.330729,-0.341064 -0.206706,-0.118856 -0.496094,-0.160197 -0.289388,-0.04134 -0.604614,-0.04134 -0.382405,0 -0.852661,0.103353 -0.470255,0.09819 -0.971517,0.289388 h -0.05168 v -0.98702 q 0.28422,-0.07751 0.821655,-0.170532 0.537435,-0.09302 1.059367,-0.09302 0.609782,0 1.059367,0.103353 0.454752,0.09819 0.785481,0.341064 0.325562,0.237712 0.496094,0.61495 0.170532,0.377238 0.170532,0.935343 z M 29.685523,70.84325 v -1.607137 q -0.444417,0.02584 -1.049031,0.07752 -0.599447,0.05168 -0.950847,0.149861 -0.418579,0.118856 -0.676961,0.37207 -0.258382,0.248047 -0.258382,0.687297 0,0.496094 0.299723,0.749308 0.299723,0.248047 0.914673,0.248047 0.511597,0 0.935343,-0.19637 0.423747,-0.201538 0.785482,-0.480591 z"
     style="font-style:normal;font-variant:normal;font-weight:normal;font-stretch:normal;font-size:medium;line-height:1.25;font-family:Raleway;-inkscape-font-specification:Raleway;font-variant-ligatures:normal;font-variant-caps:normal;font-variant-numeric:normal;font-feature-settings:normal;text-align:start;letter-spacing:0px;word-spacing:0px;writing-mode:lr-tb;text-anchor:start;fill:#ffffff;fill-opacity:1;stroke:none;stroke-width:0.26458332"
     id="path2383" />
  <path
     d="m 37.318132,72.264352 h -0.971517 v -0.640788 q -0.490926,0.387573 -0.940511,0.594279 -0.449585,0.206706 -0.992188,0.206706 -0.909505,0 -1.415934,-0.552938 -0.506429,-0.558106 -0.506429,-1.632975 v -3.746542 h 0.971517 v 3.286621 q 0,0.43925 0.04134,0.754476 0.04134,0.310059 0.1757,0.532268 0.139526,0.227376 0.361735,0.330729 0.222209,0.103353 0.645955,0.103353 0.377238,0 0.821656,-0.196371 0.449585,-0.19637 0.837158,-0.501261 v -4.309815 h 0.971517 z"
     style="font-style:normal;font-variant:normal;font-weight:normal;font-stretch:normal;font-size:medium;line-height:1.25;font-family:Raleway;-inkscape-font-specification:Raleway;font-variant-ligatures:normal;font-variant-caps:normal;font-variant-numeric:normal;font-feature-settings:normal;text-align:start;letter-spacing:0px;word-spacing:0px;writing-mode:lr-tb;text-anchor:start;fill:#ffffff;fill-opacity:1;stroke:none;stroke-width:0.26458332"
     id="path2385" />
  <path
     d="m 40.212011,72.264352 h -0.971517 v -8.040853 h 0.971517 z"
     style="font-style:normal;font-variant:normal;font-weight:normal;font-stretch:normal;font-size:medium;line-height:1.25;font-family:Raleway;-inkscape-font-specification:Raleway;font-variant-ligatures:normal;font-variant-caps:normal;font-variant-numeric:normal;font-feature-settings:normal;text-align:start;letter-spacing:0px;word-spacing:0px;writing-mode:lr-tb;text-anchor:start;fill:#ffffff;fill-opacity:1;stroke:none;stroke-width:0.26458332"
     id="path2387" />
  <path
     d="m 46.976456,69.478992 h -4.25297 q 0,0.532267 0.160197,0.930176 0.160197,0.392741 0.439249,0.645955 0.268718,0.248047 0.63562,0.372071 0.372071,0.124023 0.816488,0.124023 0.589111,0 1.18339,-0.232544 0.599447,-0.237712 0.852661,-0.465088 h 0.05168 v 1.059367 q -0.490926,0.206706 -1.002523,0.346232 -0.511597,0.139526 -1.07487,0.139526 -1.436604,0 -2.242757,-0.775146 -0.806152,-0.780314 -0.806152,-2.211751 0,-1.415934 0.769979,-2.247925 0.775146,-0.831991 2.036051,-0.831991 1.167887,0 1.79834,0.682129 0.63562,0.682129 0.63562,1.937867 z m -0.945679,-0.74414 q -0.0052,-0.764812 -0.387573,-1.183391 -0.377238,-0.418579 -1.152384,-0.418579 -0.780314,0 -1.245402,0.45992 -0.459921,0.459921 -0.521932,1.14205 z"
     style="font-style:normal;font-variant:normal;font-weight:normal;font-stretch:normal;font-size:medium;line-height:1.25;font-family:Raleway;-inkscape-font-specification:Raleway;font-variant-ligatures:normal;font-variant-caps:normal;font-variant-numeric:normal;font-feature-settings:normal;text-align:start;letter-spacing:0px;word-spacing:0px;writing-mode:lr-tb;text-anchor:start;fill:#ffffff;fill-opacity:1;stroke:none;stroke-width:0.26458332"
     id="path2389" />
  <path
     d="m 49.493099,65.525745 h -1.09554 v -1.00769 h 1.09554 z m -0.06201,6.738607 H 48.45957 v -5.772258 h 0.971517 z"
     style="font-style:normal;font-variant:normal;font-weight:normal;font-stretch:normal;font-size:medium;line-height:1.25;font-family:Raleway;-inkscape-font-specification:Raleway;font-variant-ligatures:normal;font-variant-caps:normal;font-variant-numeric:normal;font-feature-settings:normal;text-align:start;letter-spacing:0px;word-spacing:0px;writing-mode:lr-tb;text-anchor:start;fill:#ffffff;fill-opacity:1;stroke:none;stroke-width:0.26458332"
     id="path2391" />
  <path
     d="m 54.361017,72.212675 q -0.273885,0.07235 -0.599447,0.118856 -0.320394,0.04651 -0.573608,0.04651 -0.883667,0 -1.343587,-0.475423 -0.45992,-0.475423 -0.45992,-1.524455 v -3.06958 h -0.656291 v -0.816488 h 0.656291 v -1.658814 h 0.971516 v 1.658813 h 2.005046 v 0.816488 h -2.005046 v 2.63033 q 0,0.454753 0.02067,0.713135 0.02067,0.253215 0.144694,0.475423 0.113688,0.206706 0.310059,0.304891 0.201538,0.09302 0.609781,0.09302 0.237712,0 0.496094,-0.06718 0.258382,-0.07235 0.372071,-0.118855 h 0.05168 z"
     style="font-style:normal;font-variant:normal;font-weight:normal;font-stretch:normal;font-size:medium;line-height:1.25;font-family:Raleway;-inkscape-font-specification:Raleway;font-variant-ligatures:normal;font-variant-caps:normal;font-variant-numeric:normal;font-feature-settings:normal;text-align:start;letter-spacing:0px;word-spacing:0px;writing-mode:lr-tb;text-anchor:start;fill:#ffffff;fill-opacity:1;stroke:none;stroke-width:0.26458332"
     id="path2393" />
  <path
     d="m 60.324478,72.264352 h -0.971516 v -0.640788 q -0.490927,0.387573 -0.940511,0.594279 -0.449585,0.206706 -0.992188,0.206706 -0.909505,0 -1.415934,-0.552938 Q 55.4979,71.313505 55.4979,70.238636 v -3.746542 h 0.971517 v 3.286621 q 0,0.43925 0.04134,0.754476 0.04134,0.310059 0.1757,0.532268 0.139526,0.227376 0.361735,0.330729 0.222208,0.103353 0.645955,0.103353 0.377238,0 0.821655,-0.196371 0.449585,-0.19637 0.837159,-0.501261 v -4.309815 h 0.971516 z"
     style="font-style:normal;font-variant:normal;font-weight:normal;font-stretch:normal;font-size:medium;line-height:1.25;font-family:Raleway;-inkscape-font-specification:Raleway;font-variant-ligatures:normal;font-variant-caps:normal;font-variant-numeric:normal;font-feature-settings:normal;text-align:start;letter-spacing:0px;word-spacing:0px;writing-mode:lr-tb;text-anchor:start;fill:#ffffff;fill-opacity:1;stroke:none;stroke-width:0.26458332"
     id="path2395" />
  <path
     d="m 67.063085,72.264352 h -0.971517 v -3.286621 q 0,-0.397909 -0.04651,-0.744141 -0.04651,-0.3514 -0.170533,-0.54777 -0.129191,-0.217041 -0.37207,-0.320394 -0.242879,-0.10852 -0.630452,-0.10852 -0.397909,0 -0.831991,0.19637 -0.434082,0.19637 -0.831991,0.501261 v 4.309815 h -0.971516 v -5.772258 h 0.971516 v 0.640788 q 0.454753,-0.377238 0.940512,-0.589111 0.485758,-0.211874 0.997355,-0.211874 0.935343,0 1.426269,0.563274 0.490926,0.563273 0.490926,1.62264 z"
     style="font-style:normal;font-variant:normal;font-weight:normal;font-stretch:normal;font-size:medium;line-height:1.25;font-family:Raleway;-inkscape-font-specification:Raleway;font-variant-ligatures:normal;font-variant-caps:normal;font-variant-numeric:normal;font-feature-settings:normal;text-align:start;letter-spacing:0px;word-spacing:0px;writing-mode:lr-tb;text-anchor:start;fill:#ffffff;fill-opacity:1;stroke:none;stroke-width:0.26458332"
     id="path2397" />
  <path
     d="m 73.615657,71.608061 q 0,1.467611 -0.666626,2.154907 -0.666626,0.687297 -2.051554,0.687297 -0.459921,0 -0.89917,-0.06718 -0.434082,-0.06201 -0.857829,-0.180867 V 73.21003 h 0.05168 q 0.237712,0.09302 0.754476,0.227377 0.516765,0.139526 1.033529,0.139526 0.496094,0 0.821655,-0.118856 0.325562,-0.118855 0.506429,-0.330729 0.180868,-0.201538 0.258382,-0.485758 0.07752,-0.284221 0.07752,-0.63562 v -0.5271 q -0.43925,0.3514 -0.842326,0.5271 -0.397908,0.170532 -1.018026,0.170532 -1.033528,0 -1.64331,-0.744141 -0.604614,-0.749308 -0.604614,-2.108398 0,-0.744141 0.206705,-1.281576 0.211874,-0.542602 0.573609,-0.935343 0.335897,-0.366903 0.816487,-0.568441 0.480591,-0.206706 0.956014,-0.206706 0.501262,0 0.837159,0.103353 0.341064,0.09819 0.718302,0.304891 l 0.06201,-0.248047 h 0.909505 z M 72.64414,70.677885 v -3.147094 q -0.387573,-0.1757 -0.72347,-0.248047 -0.330729,-0.07752 -0.661458,-0.07752 -0.800985,0 -1.260905,0.537435 -0.459921,0.537435 -0.459921,1.560628 0,0.971517 0.341065,1.472779 0.341064,0.501261 1.131714,0.501261 0.423746,0 0.847493,-0.160197 0.428915,-0.165365 0.785482,-0.43925 z"
     style="font-style:normal;font-variant:normal;font-weight:normal;font-stretch:normal;font-size:medium;line-height:1.25;font-family:Raleway;-inkscape-font-specification:Raleway;font-variant-ligatures:normal;font-variant-caps:normal;font-variant-numeric:normal;font-feature-settings:normal;text-align:start;letter-spacing:0px;word-spacing:0px;writing-mode:lr-tb;text-anchor:start;fill:#ffffff;fill-opacity:1;stroke:none;stroke-width:0.26458332"
     id="path2399" />
</svg>
