<?xml version="1.0" encoding="UTF-8" standalone="no"?>
<svg
   xmlns:osb="http://www.openswatchbook.org/uri/2009/osb"
   xmlns:dc="http://purl.org/dc/elements/1.1/"
   xmlns:cc="http://creativecommons.org/ns#"
   xmlns:rdf="http://www.w3.org/1999/02/22-rdf-syntax-ns#"
   xmlns:svg="http://www.w3.org/2000/svg"
   xmlns="http://www.w3.org/2000/svg"
   width="350"
   height="350"
   viewBox="0 0 92.604166 92.604166"
   version="1.1"
   id="svg6801">
  <defs
     id="defs6795">
    <linearGradient
       id="linearGradient7356"
       osb:paint="gradient">
      <stop
         style="stop-color:#846a50;stop-opacity:1;"
         offset="0"
         id="stop7352" />
      <stop
         style="stop-color:#846a50;stop-opacity:0;"
         offset="1"
         id="stop7354" />
    </linearGradient>
  </defs>
  <metadata
     id="metadata6798">
    <rdf:RDF>
      <cc:Work
         rdf:about="">
        <dc:format>image/svg+xml</dc:format>
        <dc:type
           rdf:resource="http://purl.org/dc/dcmitype/StillImage" />
        <dc:title></dc:title>
      </cc:Work>
    </rdf:RDF>
  </metadata>
  <rect
     y="1.5289674e-005"
     x="0"
     height="92.604164"
     width="92.604164"
     id="rect7348"
     style="fill:#846a50;fill-opacity:1;stroke-width:0.29464963" />
  <text
     id="text1472"
     y="90.86692"
     x="8.6862602"
     style="font-style:normal;font-variant:normal;font-weight:normal;font-stretch:normal;font-size:10.58333302px;line-height:1.25;font-family:Raleway;-inkscape-font-specification:Raleway;font-variant-ligatures:normal;font-variant-caps:normal;font-variant-numeric:normal;font-feature-settings:normal;text-align:start;letter-spacing:0px;word-spacing:0px;writing-mode:lr-tb;text-anchor:start;fill:#000000;fill-opacity:1;stroke:none;stroke-width:0.26458332"
     xml:space="preserve"><tspan
       style="font-style:normal;font-variant:normal;font-weight:normal;font-stretch:normal;font-family:Raleway;-inkscape-font-specification:Raleway;stroke-width:0.26458332"
       y="100.52241"
       x="8.6862602"
       id="tspan1470" /></text>
  <g
     transform="matrix(0.11431685,0,0,0.11431685,3.0498347,10.249963)"
     id="#323030ff" />
  <path
     style="opacity:1;fill:#ffffff;stroke-width:0.08127946"
     d="m 40.574136,23.763634 c 1.893811,-1.69874 3.80144,-3.383662 5.685498,-5.092156 4.474434,3.994884 8.974878,7.962134 13.458252,11.948892 2.125458,1.857236 4.218404,3.75186 6.32029,5.63673 0.04552,0.05121 0.166624,0.126796 0.07315,0.198322 -0.690876,0.733141 -1.34924,1.495542 -2.046618,2.22218 -1.152542,-1.002988 -2.29208,-2.019793 -3.439746,-3.027659 -2.204299,-1.88162 -4.355766,-3.825823 -6.537307,-5.734266 -0.600655,-0.509622 -1.154168,-1.07045 -1.754823,-1.580072 -2.026297,-1.77677 -4.0339,-3.576296 -6.070763,-5.340061 -5.948844,5.210013 -11.860298,10.464731 -17.803452,15.682058 -0.675432,-0.761589 -1.353303,-1.523176 -2.000287,-2.308335 4.709331,-4.197272 9.40891,-8.405922 14.115803,-12.605632 z"
     id="path1469" />
  <path
     style="opacity:1;fill:#ffffff;stroke-width:0.08127946"
     d="m 32.467995,37.767274 c 4.598791,-4.056658 9.180514,-8.133636 13.784183,-12.184604 4.576846,3.99651 9.129308,8.022283 13.701278,12.024483 0.131672,0.125983 0.344625,0.238961 0.30561,0.454352 -0.02357,5.690375 -0.07153,11.38075 -0.0951,17.071124 -0.0033,0.280414 0.02601,0.59334 -0.154431,0.831488 -0.162559,0.246277 -0.466544,0.347063 -0.751022,0.329183 -8.698528,-0.0024 -17.397056,0.0024 -26.095583,-0.0024 -0.448662,0.02601 -0.850995,-0.37795 -0.819297,-0.827424 -0.0016,-5.800915 7.82e-4,-11.602642 -7.82e-4,-17.403557 -0.013,-0.115417 0.0252,-0.227583 0.12517,-0.292606 z"
     id="path1471" />
  <path
     style="opacity:1;fill:#846a50;fill-opacity:1;stroke-width:0.06470722"
     d="m 35.288655,38.911549 c 3.661135,-3.229537 7.308681,-6.475251 10.973698,-9.700257 3.643663,3.181652 7.267913,6.3866 10.907696,9.572785 0.104826,0.100297 0.274359,0.190239 0.243299,0.361713 -0.01876,4.530152 -0.05694,9.060304 -0.07571,13.590458 -0.0026,0.223238 0.0207,0.472363 -0.122944,0.661953 -0.129414,0.196063 -0.371418,0.276302 -0.597895,0.262064 -6.924965,-0.0019 -13.849933,0.0019 -20.774899,-0.0019 -0.357183,0.0207 -0.677484,-0.300888 -0.652249,-0.658719 -0.0014,-4.618147 6.23e-4,-9.236947 -6.22e-4,-13.855102 -0.01035,-0.09188 0.02006,-0.18118 0.09965,-0.232945 z"
     id="path1471-2" />
  <g
     style="fill:#ffffff"
     id="#000000ff"
     transform="matrix(0.03022731,-0.01566478,0.01566478,0.03022731,34.834531,40.242839)">
    <path
       style="opacity:1;fill:#ffffff"
       id="path896"
       d="m 104.05,136.79 c 12.91,-1.21 26.04,-0.94 38.84,1.26 17.07,3.94 33.64,10.78 47.71,21.32 12.67,9.3 23.15,21.34 31.53,34.58 0.87,0.96 1.41,2.86 2.99,2.7 79.98,-0.02 159.97,0.06 239.96,-0.04 10.47,9.95 20.33,20.54 30.54,30.77 5.02,5.34 10.65,10.3 14.32,16.71 1.93,3.33 0.91,7.55 -1.58,10.28 -16.02,17.95 -33.47,34.53 -50.35,51.66 -0.85,0.71 -2.19,2.53 -3.33,1.27 -9.1,-9.19 -18.08,-18.51 -27.36,-27.52 -0.85,-1.03 -2.17,-0.03 -2.78,0.72 -9.18,9.2 -18.32,18.42 -27.57,27.54 -9.95,-9.1 -18.87,-19.33 -28.96,-28.26 -9.71,8.53 -18.18,18.44 -28.03,26.85 -5.54,-3.91 -10.15,-8.92 -15,-13.61 -4.78,-4.9 -9.78,-9.6 -14.42,-14.63 -13.04,12.49 -25.7,25.42 -38.57,38.11 -16.23,0.06 -32.46,0.06 -48.69,-0.01 -3.1,4.21 -5.67,8.78 -8.95,12.87 -9.73,12.23 -21.57,22.8 -34.81,31.11 -16.49,9.61 -35.43,14.82 -54.48,15.52 -5.72,-0.04 -11.45,0.18 -17.17,-0.14 C 80.1,373.09 53.55,359.9 34.37,339.62 15.77,320.06 2.97,294.27 1.43,267.09 0.84,253.71 0.32,239.99 4.18,227 c 6.46,-25.67 21.46,-49.11 42.3,-65.48 16.56,-13.09 36.66,-21.77 57.57,-24.73 M 60.5,224.72 c -5.08,1.21 -9.92,3.54 -13.86,6.99 -10.47,9.43 -13.52,26.02 -6.92,38.51 4.48,8.17 12.44,14.87 21.83,16.3 6.81,0.43 14.02,0.63 20.25,-2.62 10.44,-6.04 18.02,-17.64 17.47,-29.93 -0.78,-11.65 -8.37,-22.5 -19.01,-27.27 -6.2,-2.54 -13.21,-4.31 -19.76,-1.98 z" />
  </g>
  <path
     d="m 14.280783,69.550527 q 0,0.449585 -0.211874,0.888834 -0.206705,0.43925 -0.583943,0.744141 -0.413412,0.330729 -0.966349,0.516764 -0.547771,0.186035 -1.322917,0.186035 -0.831991,0 -1.4986166,-0.155029 -0.6614583,-0.155029 -1.3487548,-0.45992 v -1.281576 h 0.072347 q 0.5839436,0.485759 1.3487548,0.749309 0.7648116,0.263549 1.4366046,0.263549 0.950847,0 1.477946,-0.356567 0.532267,-0.356567 0.532267,-0.950846 0,-0.511597 -0.253214,-0.754476 Q 12.714987,68.697866 12.20339,68.563507 11.815817,68.460154 11.361065,68.392975 10.91148,68.325795 10.405051,68.222442 9.3818572,68.005401 8.8857634,67.483469 8.3948373,66.95637 8.3948373,66.114044 q 0,-0.966349 0.8164877,-1.581299 0.816488,-0.620117 2.072225,-0.620117 0.81132,0 1.488281,0.155029 0.676961,0.15503 1.198893,0.382406 v 1.209228 h -0.07235 q -0.439249,-0.37207 -1.157552,-0.614949 -0.713135,-0.248047 -1.462443,-0.248047 -0.821655,0 -1.3229164,0.341065 -0.4960938,0.341065 -0.4960938,0.8785 0,0.480591 0.2480469,0.754476 0.2480469,0.273885 0.8733313,0.418578 0.33073,0.07235 0.940511,0.175701 0.609782,0.103352 1.033529,0.211872 0.857829,0.227377 1.291911,0.687297 0.434082,0.45992 0.434082,1.286743 z"
     style="font-style:normal;font-variant:normal;font-weight:normal;font-stretch:normal;font-size:medium;line-height:1.25;font-family:Raleway;-inkscape-font-specification:Raleway;font-variant-ligatures:normal;font-variant-caps:normal;font-variant-numeric:normal;font-feature-settings:normal;text-align:start;letter-spacing:0px;word-spacing:0px;writing-mode:lr-tb;text-anchor:start;fill:#ffffff;fill-opacity:1;stroke:none;stroke-width:0.26458332"
     id="path1549" />
  <path
     d="m 20.115051,71.38504 q -0.485758,0.232544 -0.925008,0.361735 -0.434082,0.129191 -0.925008,0.129191 -0.625285,0 -1.147217,-0.180867 -0.521931,-0.186036 -0.894001,-0.558106 -0.377238,-0.37207 -0.583944,-0.940511 -0.206706,-0.568441 -0.206706,-1.328084 0,-1.415933 0.775147,-2.222087 0.780313,-0.806152 2.056721,-0.806152 0.496094,0 0.971517,0.139527 0.480591,0.139527 0.878499,0.341065 v 1.080037 h -0.05168 q -0.444417,-0.346232 -0.919841,-0.532267 -0.470255,-0.186036 -0.91984,-0.186036 -0.826823,0 -1.307414,0.558105 -0.475422,0.552938 -0.475422,1.627808 0,1.043864 0.465087,1.607137 0.470256,0.558105 1.317749,0.558105 0.294556,0 0.599447,-0.07751 0.304891,-0.07752 0.54777,-0.201539 0.211873,-0.10852 0.397908,-0.227376 0.186035,-0.124023 0.294556,-0.211873 h 0.05168 z"
     style="font-style:normal;font-variant:normal;font-weight:normal;font-stretch:normal;font-size:medium;line-height:1.25;font-family:Raleway;-inkscape-font-specification:Raleway;font-variant-ligatures:normal;font-variant-caps:normal;font-variant-numeric:normal;font-feature-settings:normal;text-align:start;letter-spacing:0px;word-spacing:0px;writing-mode:lr-tb;text-anchor:start;fill:#ffffff;fill-opacity:1;stroke:none;stroke-width:0.26458332"
     id="path1551" />
  <path
     d="m 26.1922,71.746775 h -0.971517 v -3.286621 q 0,-0.397909 -0.04651,-0.744141 -0.04651,-0.351399 -0.170532,-0.54777 -0.129191,-0.217041 -0.37207,-0.320394 -0.24288,-0.10852 -0.630453,-0.10852 -0.397908,0 -0.83199,0.19637 -0.434082,0.196371 -0.831991,0.501262 v 4.309814 H 21.36562 v -8.040853 h 0.971517 v 2.909384 q 0.454753,-0.377239 0.940511,-0.589111 0.485759,-0.211873 0.997355,-0.211873 0.935344,0 1.42627,0.563272 0.490926,0.563273 0.490926,1.622641 z"
     style="font-style:normal;font-variant:normal;font-weight:normal;font-stretch:normal;font-size:medium;line-height:1.25;font-family:Raleway;-inkscape-font-specification:Raleway;font-variant-ligatures:normal;font-variant-caps:normal;font-variant-numeric:normal;font-feature-settings:normal;text-align:start;letter-spacing:0px;word-spacing:0px;writing-mode:lr-tb;text-anchor:start;fill:#ffffff;fill-opacity:1;stroke:none;stroke-width:0.26458332"
     id="path1553" />
  <path
     d="m 29.044738,71.746775 h -0.971517 v -8.040853 h 0.971517 z"
     style="font-style:normal;font-variant:normal;font-weight:normal;font-stretch:normal;font-size:medium;line-height:1.25;font-family:Raleway;-inkscape-font-specification:Raleway;font-variant-ligatures:normal;font-variant-caps:normal;font-variant-numeric:normal;font-feature-settings:normal;text-align:start;letter-spacing:0px;word-spacing:0px;writing-mode:lr-tb;text-anchor:start;fill:#ffffff;fill-opacity:1;stroke:none;stroke-width:0.26458332"
     id="path1555" />
  <path
     d="m 35.762674,71.746775 h -0.971517 v -0.640788 q -0.490926,0.387573 -0.940511,0.594279 -0.449585,0.206706 -0.992187,0.206706 -0.909506,0 -1.415935,-0.552938 -0.506429,-0.558105 -0.506429,-1.632975 v -3.746541 h 0.971517 v 3.286621 q 0,0.439249 0.04134,0.754476 0.04134,0.310058 0.1757,0.532267 0.139527,0.227376 0.361735,0.330729 0.222209,0.103353 0.645956,0.103353 0.377238,0 0.821655,-0.196371 0.449585,-0.19637 0.837158,-0.501261 v -4.309814 h 0.971517 z m -0.806152,-6.738607 h -1.028361 v -1.00769 h 1.028361 z m -2.134237,0 h -1.028361 v -1.00769 h 1.028361 z"
     style="font-style:normal;font-variant:normal;font-weight:normal;font-stretch:normal;font-size:medium;line-height:1.25;font-family:Raleway;-inkscape-font-specification:Raleway;font-variant-ligatures:normal;font-variant-caps:normal;font-variant-numeric:normal;font-feature-settings:normal;text-align:start;letter-spacing:0px;word-spacing:0px;writing-mode:lr-tb;text-anchor:start;fill:#ffffff;fill-opacity:1;stroke:none;stroke-width:0.26458332"
     id="path1557" />
  <path
     d="m 41.798481,70.082794 q 0,0.790649 -0.65629,1.297078 -0.651123,0.506429 -1.782837,0.506429 -0.640788,0 -1.178223,-0.149861 -0.532267,-0.15503 -0.894002,-0.335897 V 70.31017 h 0.05168 q 0.459921,0.346232 1.023194,0.552938 0.563273,0.201538 1.080037,0.201538 0.640788,0 1.002523,-0.206706 0.361735,-0.206705 0.361735,-0.651123 0,-0.341064 -0.196371,-0.516764 -0.19637,-0.1757 -0.754475,-0.299723 -0.206706,-0.04651 -0.542603,-0.108521 -0.330729,-0.06201 -0.604614,-0.134359 -0.759644,-0.201538 -1.080038,-0.589111 -0.315226,-0.392741 -0.315226,-0.961181 0,-0.356568 0.144694,-0.671794 0.149862,-0.315226 0.449585,-0.563273 0.289388,-0.242879 0.733805,-0.382406 0.449585,-0.144694 1.002523,-0.144694 0.516765,0 1.043864,0.129191 0.532267,0.124024 0.883667,0.304891 v 1.038697 h -0.05168 q -0.372071,-0.273886 -0.904338,-0.459921 -0.532267,-0.191202 -1.043864,-0.191202 -0.532267,0 -0.89917,0.206705 -0.366902,0.201538 -0.366902,0.604614 0,0.356568 0.222208,0.537435 0.217041,0.180868 0.7028,0.294556 0.268717,0.06201 0.599446,0.124023 0.335897,0.06201 0.558106,0.113689 0.676961,0.155029 1.043864,0.532267 0.366902,0.382405 0.366902,1.012858 z"
     style="font-style:normal;font-variant:normal;font-weight:normal;font-stretch:normal;font-size:medium;line-height:1.25;font-family:Raleway;-inkscape-font-specification:Raleway;font-variant-ligatures:normal;font-variant-caps:normal;font-variant-numeric:normal;font-feature-settings:normal;text-align:start;letter-spacing:0px;word-spacing:0px;writing-mode:lr-tb;text-anchor:start;fill:#ffffff;fill-opacity:1;stroke:none;stroke-width:0.26458332"
     id="path1559" />
  <path
     d="m 47.317524,70.082794 q 0,0.790649 -0.65629,1.297078 -0.651123,0.506429 -1.782837,0.506429 -0.640788,0 -1.178223,-0.149861 -0.532267,-0.15503 -0.894002,-0.335897 V 70.31017 h 0.05168 q 0.459921,0.346232 1.023194,0.552938 0.563273,0.201538 1.080037,0.201538 0.640788,0 1.002523,-0.206706 0.361735,-0.206705 0.361735,-0.651123 0,-0.341064 -0.196371,-0.516764 -0.19637,-0.1757 -0.754475,-0.299723 -0.206706,-0.04651 -0.542603,-0.108521 -0.330729,-0.06201 -0.604614,-0.134359 -0.759644,-0.201538 -1.080038,-0.589111 -0.315226,-0.392741 -0.315226,-0.961181 0,-0.356568 0.144694,-0.671794 0.149862,-0.315226 0.449585,-0.563273 0.289388,-0.242879 0.733805,-0.382406 0.449585,-0.144694 1.002523,-0.144694 0.516764,0 1.043864,0.129191 0.532267,0.124024 0.883667,0.304891 v 1.038697 h -0.05168 q -0.372071,-0.273886 -0.904338,-0.459921 -0.532267,-0.191202 -1.043864,-0.191202 -0.532267,0 -0.89917,0.206705 -0.366902,0.201538 -0.366902,0.604614 0,0.356568 0.222208,0.537435 0.217041,0.180868 0.7028,0.294556 0.268717,0.06201 0.599446,0.124023 0.335897,0.06201 0.558106,0.113689 0.676961,0.155029 1.043864,0.532267 0.366902,0.382405 0.366902,1.012858 z"
     style="font-style:normal;font-variant:normal;font-weight:normal;font-stretch:normal;font-size:medium;line-height:1.25;font-family:Raleway;-inkscape-font-specification:Raleway;font-variant-ligatures:normal;font-variant-caps:normal;font-variant-numeric:normal;font-feature-settings:normal;text-align:start;letter-spacing:0px;word-spacing:0px;writing-mode:lr-tb;text-anchor:start;fill:#ffffff;fill-opacity:1;stroke:none;stroke-width:0.26458332"
     id="path1561" />
  <path
     d="m 53.544534,68.961415 h -4.25297 q 0,0.532268 0.160197,0.930176 0.160197,0.392741 0.43925,0.645955 0.268717,0.248047 0.63562,0.372071 0.37207,0.124023 0.816487,0.124023 0.589112,0 1.183391,-0.232544 0.599446,-0.237711 0.852661,-0.465088 h 0.05168 v 1.059367 q -0.490926,0.206706 -1.002522,0.346232 -0.511597,0.139527 -1.07487,0.139527 -1.436605,0 -2.242757,-0.775147 -0.806153,-0.780314 -0.806153,-2.211751 0,-1.415934 0.769979,-2.247925 0.775147,-0.83199 2.036052,-0.83199 1.167887,0 1.798339,0.682129 0.63562,0.682128 0.63562,1.937866 z m -0.945678,-0.74414 q -0.0052,-0.764811 -0.387573,-1.183391 -0.377238,-0.418579 -1.152385,-0.418579 -0.780314,0 -1.245402,0.459921 -0.45992,0.45992 -0.521932,1.142049 z"
     style="font-style:normal;font-variant:normal;font-weight:normal;font-stretch:normal;font-size:medium;line-height:1.25;font-family:Raleway;-inkscape-font-specification:Raleway;font-variant-ligatures:normal;font-variant-caps:normal;font-variant-numeric:normal;font-feature-settings:normal;text-align:start;letter-spacing:0px;word-spacing:0px;writing-mode:lr-tb;text-anchor:start;fill:#ffffff;fill-opacity:1;stroke:none;stroke-width:0.26458332"
     id="path1563" />
  <path
     d="m 55.999164,71.746775 h -0.971517 v -8.040853 h 0.971517 z"
     style="font-style:normal;font-variant:normal;font-weight:normal;font-stretch:normal;font-size:medium;line-height:1.25;font-family:Raleway;-inkscape-font-specification:Raleway;font-variant-ligatures:normal;font-variant-caps:normal;font-variant-numeric:normal;font-feature-settings:normal;text-align:start;letter-spacing:0px;word-spacing:0px;writing-mode:lr-tb;text-anchor:start;fill:#ffffff;fill-opacity:1;stroke:none;stroke-width:0.26458332"
     id="path1565" />
  <path
     d="m 61.037616,64.646433 h -0.05168 q -0.160196,-0.04651 -0.418579,-0.09302 -0.258382,-0.05168 -0.454752,-0.05168 -0.625285,0 -0.909505,0.279053 -0.279053,0.273885 -0.279053,0.997355 v 0.196371 h 1.751831 v 0.816487 h -1.720825 v 4.95577 h -0.971517 v -4.95577 h -0.656291 v -0.816487 h 0.656291 v -0.191203 q 0,-1.028361 0.511596,-1.576131 0.511597,-0.552938 1.477946,-0.552938 0.325562,0 0.583944,0.03101 0.26355,0.03101 0.480591,0.07235 z"
     style="font-style:normal;font-variant:normal;font-weight:normal;font-stretch:normal;font-size:medium;line-height:1.25;font-family:Raleway;-inkscape-font-specification:Raleway;font-variant-ligatures:normal;font-variant-caps:normal;font-variant-numeric:normal;font-feature-settings:normal;text-align:start;letter-spacing:0px;word-spacing:0px;writing-mode:lr-tb;text-anchor:start;fill:#ffffff;fill-opacity:1;stroke:none;stroke-width:0.26458332"
     id="path1567" />
  <path
     d="m 66.484312,68.961415 h -4.25297 q 0,0.532268 0.160196,0.930176 0.160197,0.392741 0.43925,0.645955 0.268718,0.248047 0.63562,0.372071 0.372071,0.124023 0.816488,0.124023 0.589111,0 1.18339,-0.232544 0.599447,-0.237711 0.852661,-0.465088 h 0.05168 v 1.059367 q -0.490926,0.206706 -1.002523,0.346232 -0.511597,0.139527 -1.07487,0.139527 -1.436605,0 -2.242757,-0.775147 -0.806152,-0.780314 -0.806152,-2.211751 0,-1.415934 0.769979,-2.247925 0.775146,-0.83199 2.036051,-0.83199 1.167887,0 1.79834,0.682129 0.63562,0.682128 0.63562,1.937866 z m -0.945679,-0.74414 q -0.0052,-0.764811 -0.387573,-1.183391 -0.377238,-0.418579 -1.152385,-0.418579 -0.780314,0 -1.245402,0.459921 -0.45992,0.45992 -0.521931,1.142049 z"
     style="font-style:normal;font-variant:normal;font-weight:normal;font-stretch:normal;font-size:medium;line-height:1.25;font-family:Raleway;-inkscape-font-specification:Raleway;font-variant-ligatures:normal;font-variant-caps:normal;font-variant-numeric:normal;font-feature-settings:normal;text-align:start;letter-spacing:0px;word-spacing:0px;writing-mode:lr-tb;text-anchor:start;fill:#ffffff;fill-opacity:1;stroke:none;stroke-width:0.26458332"
     id="path1569" />
  <path
     d="m 71.55894,67.033884 h -0.05168 q -0.217041,-0.05168 -0.423747,-0.07235 -0.201538,-0.02584 -0.480591,-0.02584 -0.449585,0 -0.868164,0.201538 -0.418579,0.196371 -0.806152,0.511597 v 4.097941 h -0.971513 v -5.772257 h 0.971517 v 0.852661 q 0.578776,-0.465088 1.018025,-0.656291 0.444418,-0.19637 0.904338,-0.19637 0.253214,0 0.366903,0.0155 0.113688,0.01033 0.341064,0.04651 z"
     style="font-style:normal;font-variant:normal;font-weight:normal;font-stretch:normal;font-size:medium;line-height:1.25;font-family:Raleway;-inkscape-font-specification:Raleway;font-variant-ligatures:normal;font-variant-caps:normal;font-variant-numeric:normal;font-feature-settings:normal;text-align:start;letter-spacing:0px;word-spacing:0px;writing-mode:lr-tb;text-anchor:start;fill:#ffffff;fill-opacity:1;stroke:none;stroke-width:0.26458332"
     id="path1571" />
  <path
     d="m 75.481181,71.695099 q -0.273885,0.07235 -0.599446,0.118855 -0.320394,0.04651 -0.573609,0.04651 -0.883667,0 -1.343587,-0.475423 -0.45992,-0.475423 -0.45992,-1.524455 v -3.06958 h -0.656291 v -0.816487 h 0.656291 v -1.658814 h 0.971517 v 1.658814 h 2.005045 v 0.816487 h -2.005045 v 2.630331 q 0,0.454752 0.02067,0.713134 0.02067,0.253215 0.144694,0.475423 0.113688,0.206706 0.310059,0.304891 0.201538,0.09302 0.609782,0.09302 0.237711,0 0.496094,-0.06718 0.258382,-0.07235 0.37207,-0.118856 h 0.05168 z"
     style="font-style:normal;font-variant:normal;font-weight:normal;font-stretch:normal;font-size:medium;line-height:1.25;font-family:Raleway;-inkscape-font-specification:Raleway;font-variant-ligatures:normal;font-variant-caps:normal;font-variant-numeric:normal;font-feature-settings:normal;text-align:start;letter-spacing:0px;word-spacing:0px;writing-mode:lr-tb;text-anchor:start;fill:#ffffff;fill-opacity:1;stroke:none;stroke-width:0.26458332"
     id="path1573" />
  <path
     d="m 77.703265,65.008168 h -1.09554 v -1.00769 h 1.09554 z m -0.06201,6.738607 h -0.971517 v -5.772256 h 0.971517 z"
     style="font-style:normal;font-variant:normal;font-weight:normal;font-stretch:normal;font-size:medium;line-height:1.25;font-family:Raleway;-inkscape-font-specification:Raleway;font-variant-ligatures:normal;font-variant-caps:normal;font-variant-numeric:normal;font-feature-settings:normal;text-align:start;letter-spacing:0px;word-spacing:0px;writing-mode:lr-tb;text-anchor:start;fill:#ffffff;fill-opacity:1;stroke:none;stroke-width:0.26458332"
     id="path1575" />
  <path
     d="m 84.255837,71.090484 q 0,1.467611 -0.666626,2.154907 -0.666626,0.687297 -2.051554,0.687297 -0.459921,0 -0.89917,-0.06718 -0.434082,-0.06201 -0.857829,-0.180868 v -0.992187 h 0.05168 q 0.237712,0.09302 0.754476,0.227376 0.516765,0.139526 1.033529,0.139526 0.496094,0 0.821655,-0.118855 0.325562,-0.118855 0.506429,-0.33073 0.180868,-0.201538 0.258382,-0.485758 0.07751,-0.28422 0.07751,-0.63562 v -0.5271 q -0.43925,0.3514 -0.842326,0.5271 -0.397908,0.170532 -1.018026,0.170532 -1.033528,0 -1.64331,-0.744141 -0.604614,-0.749308 -0.604614,-2.108398 0,-0.744141 0.206705,-1.281575 0.211874,-0.542603 0.573609,-0.935344 0.335897,-0.366902 0.816487,-0.568441 0.480591,-0.206705 0.956014,-0.206705 0.501262,0 0.837159,0.103353 0.341064,0.09819 0.718302,0.304891 l 0.06201,-0.248047 h 0.909505 z M 83.28432,70.160309 v -3.147095 q -0.387573,-0.1757 -0.72347,-0.248047 -0.330729,-0.07752 -0.661458,-0.07752 -0.800985,0 -1.260905,0.537435 -0.459921,0.537435 -0.459921,1.560628 0,0.971517 0.341065,1.472779 0.341064,0.501261 1.131714,0.501261 0.423746,0 0.847493,-0.160197 0.428915,-0.165364 0.785482,-0.439249 z"
     style="font-style:normal;font-variant:normal;font-weight:normal;font-stretch:normal;font-size:medium;line-height:1.25;font-family:Raleway;-inkscape-font-specification:Raleway;font-variant-ligatures:normal;font-variant-caps:normal;font-variant-numeric:normal;font-feature-settings:normal;text-align:start;letter-spacing:0px;word-spacing:0px;writing-mode:lr-tb;text-anchor:start;fill:#ffffff;fill-opacity:1;stroke:none;stroke-width:0.26458332"
     id="path1577" />
  <path
     d="m 124.57251,100.57804 h -0.0517 q -0.21704,-0.0517 -0.42375,-0.0724 -0.20154,-0.0258 -0.48059,-0.0258 -0.44958,0 -0.86816,0.20153 -0.41859,0.19638 -0.80616,0.5116 v 4.09794 h -0.97151 v -5.772256 h 0.97152 v 0.852666 q 0.57878,-0.465093 1.01802,-0.656296 0.44442,-0.19637 0.90434,-0.19637 0.25322,0 0.3669,0.0155 0.11369,0.01033 0.34107,0.04651 z"
     style="font-style:normal;font-variant:normal;font-weight:normal;font-stretch:normal;font-size:medium;line-height:1.25;font-family:Raleway;-inkscape-font-specification:Raleway;font-variant-ligatures:normal;font-variant-caps:normal;font-variant-numeric:normal;font-feature-settings:normal;text-align:start;letter-spacing:0px;word-spacing:0px;writing-mode:lr-tb;text-anchor:start;fill:#ffffff;fill-opacity:1;stroke:none;stroke-width:0.26458332"
     id="path1571-9" />
  <path
     d="m 128.49475,105.23925 q -0.27389,0.0724 -0.59945,0.11886 -0.32039,0.0465 -0.5736,0.0465 -0.88367,0 -1.34359,-0.47543 -0.45992,-0.47542 -0.45992,-1.52445 v -3.06958 h -0.65629 v -0.816489 h 0.65629 v -1.658814 h 0.97152 v 1.658814 h 2.00504 v 0.816489 h -2.00504 v 2.63033 q 0,0.45475 0.0207,0.71313 0.0207,0.25322 0.14469,0.47543 0.11369,0.2067 0.31006,0.30489 0.20154,0.093 0.60978,0.093 0.23771,0 0.49609,-0.0672 0.25839,-0.0724 0.37208,-0.11886 h 0.0517 z"
     style="font-style:normal;font-variant:normal;font-weight:normal;font-stretch:normal;font-size:medium;line-height:1.25;font-family:Raleway;-inkscape-font-specification:Raleway;font-variant-ligatures:normal;font-variant-caps:normal;font-variant-numeric:normal;font-feature-settings:normal;text-align:start;letter-spacing:0px;word-spacing:0px;writing-mode:lr-tb;text-anchor:start;fill:#ffffff;fill-opacity:1;stroke:none;stroke-width:0.26458332"
     id="path1573-0" />
  <path
     d="m 130.71683,98.55232 h -1.09554 v -1.00769 h 1.09554 z m -0.062,6.73861 h -0.97151 v -5.77226 h 0.97151 z"
     style="font-style:normal;font-variant:normal;font-weight:normal;font-stretch:normal;font-size:medium;line-height:1.25;font-family:Raleway;-inkscape-font-specification:Raleway;font-variant-ligatures:normal;font-variant-caps:normal;font-variant-numeric:normal;font-feature-settings:normal;text-align:start;letter-spacing:0px;word-spacing:0px;writing-mode:lr-tb;text-anchor:start;fill:#ffffff;fill-opacity:1;stroke:none;stroke-width:0.26458332"
     id="path1575-6" />
  <path
     d="m 137.2694,104.63464 q 0,1.46761 -0.66662,2.1549 -0.66663,0.6873 -2.05155,0.6873 -0.45993,0 -0.89917,-0.0672 -0.43408,-0.062 -0.85783,-0.18087 v -0.99218 h 0.0517 q 0.23771,0.093 0.75447,0.22737 0.51677,0.13953 1.03353,0.13953 0.49609,0 0.82166,-0.11886 0.32556,-0.11885 0.50642,-0.33073 0.18087,-0.20154 0.25839,-0.48576 0.0775,-0.28422 0.0775,-0.63562 v -0.5271 q -0.43925,0.3514 -0.84233,0.5271 -0.39791,0.17054 -1.01803,0.17054 -1.03352,0 -1.64331,-0.74414 -0.60461,-0.74931 -0.60461,-2.1084 0,-0.74414 0.2067,-1.28158 0.21188,-0.5426 0.57362,-0.93534 0.33589,-0.366904 0.81648,-0.568443 0.48059,-0.206705 0.95602,-0.206705 0.50126,0 0.83716,0.103353 0.34106,0.09819 0.7183,0.304891 l 0.062,-0.248047 h 0.9095 z m -0.97151,-0.93018 v -3.14709 q -0.38757,-0.1757 -0.72347,-0.24805 -0.33073,-0.0775 -0.66146,-0.0775 -0.80098,0 -1.2609,0.53743 -0.45992,0.53744 -0.45992,1.56063 0,0.97152 0.34106,1.47278 0.34106,0.50126 1.13172,0.50126 0.42374,0 0.84749,-0.16019 0.42891,-0.16537 0.78548,-0.43925 z"
     style="font-style:normal;font-variant:normal;font-weight:normal;font-stretch:normal;font-size:medium;line-height:1.25;font-family:Raleway;-inkscape-font-specification:Raleway;font-variant-ligatures:normal;font-variant-caps:normal;font-variant-numeric:normal;font-feature-settings:normal;text-align:start;letter-spacing:0px;word-spacing:0px;writing-mode:lr-tb;text-anchor:start;fill:#ffffff;fill-opacity:1;stroke:none;stroke-width:0.26458332"
     id="path1577-5" />
</svg>
