<?xml version="1.0" encoding="UTF-8" standalone="no"?>
<svg
   xmlns:osb="http://www.openswatchbook.org/uri/2009/osb"
   xmlns:dc="http://purl.org/dc/elements/1.1/"
   xmlns:cc="http://creativecommons.org/ns#"
   xmlns:rdf="http://www.w3.org/1999/02/22-rdf-syntax-ns#"
   xmlns:svg="http://www.w3.org/2000/svg"
   xmlns="http://www.w3.org/2000/svg"
   id="svg6801"
   version="1.1"
   viewBox="0 0 92.604166 92.604166"
   height="350"
   width="350">
  <defs
     id="defs6795">
    <linearGradient
       osb:paint="gradient"
       id="linearGradient7356">
      <stop
         id="stop7352"
         offset="0"
         style="stop-color:#846a50;stop-opacity:1;" />
      <stop
         id="stop7354"
         offset="1"
         style="stop-color:#846a50;stop-opacity:0;" />
    </linearGradient>
  </defs>
  <metadata
     id="metadata6798">
    <rdf:RDF>
      <cc:Work
         rdf:about="">
        <dc:format>image/svg+xml</dc:format>
        <dc:type
           rdf:resource="http://purl.org/dc/dcmitype/StillImage" />
        <dc:title></dc:title>
      </cc:Work>
    </rdf:RDF>
  </metadata>
  <rect
     style="fill:#846a50;fill-opacity:1;stroke-width:0.29464963"
     id="rect7348"
     width="92.604164"
     height="92.604164"
     x="0"
     y="1.5289674e-005" />
  <text
     xml:space="preserve"
     style="font-style:normal;font-variant:normal;font-weight:normal;font-stretch:normal;font-size:10.58333302px;line-height:1.25;font-family:Raleway;-inkscape-font-specification:Raleway;font-variant-ligatures:normal;font-variant-caps:normal;font-variant-numeric:normal;font-feature-settings:normal;text-align:start;letter-spacing:0px;word-spacing:0px;writing-mode:lr-tb;text-anchor:start;fill:#000000;fill-opacity:1;stroke:none;stroke-width:0.26458332"
     x="8.6862602"
     y="90.86692"
     id="text1472"><tspan
       id="tspan1470"
       x="8.6862602"
       y="100.52241"
       style="font-style:normal;font-variant:normal;font-weight:normal;font-stretch:normal;font-family:Raleway;-inkscape-font-specification:Raleway;stroke-width:0.26458332" /></text>
  <g
     id="#323030ff"
     transform="matrix(0.11431685,0,0,0.11431685,3.0498347,10.249963)" />
  <path
     id="path1577-5"
     style="font-style:normal;font-variant:normal;font-weight:normal;font-stretch:normal;font-size:medium;line-height:1.25;font-family:Raleway;-inkscape-font-specification:Raleway;font-variant-ligatures:normal;font-variant-caps:normal;font-variant-numeric:normal;font-feature-settings:normal;text-align:start;letter-spacing:0px;word-spacing:0px;writing-mode:lr-tb;text-anchor:start;fill:#ffffff;fill-opacity:1;stroke:none;stroke-width:0.26458332"
     d="m 137.2694,104.63464 q 0,1.46761 -0.66662,2.1549 -0.66663,0.6873 -2.05155,0.6873 -0.45993,0 -0.89917,-0.0672 -0.43408,-0.062 -0.85783,-0.18087 v -0.99218 h 0.0517 q 0.23771,0.093 0.75447,0.22737 0.51677,0.13953 1.03353,0.13953 0.49609,0 0.82166,-0.11886 0.32556,-0.11885 0.50642,-0.33073 0.18087,-0.20154 0.25839,-0.48576 0.0775,-0.28422 0.0775,-0.63562 v -0.5271 q -0.43925,0.3514 -0.84233,0.5271 -0.39791,0.17054 -1.01803,0.17054 -1.03352,0 -1.64331,-0.74414 -0.60461,-0.74931 -0.60461,-2.1084 0,-0.74414 0.2067,-1.28158 0.21188,-0.5426 0.57362,-0.93534 0.33589,-0.366904 0.81648,-0.568443 0.48059,-0.206705 0.95602,-0.206705 0.50126,0 0.83716,0.103353 0.34106,0.09819 0.7183,0.304891 l 0.062,-0.248047 h 0.9095 z m -0.97151,-0.93018 v -3.14709 q -0.38757,-0.1757 -0.72347,-0.24805 -0.33073,-0.0775 -0.66146,-0.0775 -0.80098,0 -1.2609,0.53743 -0.45992,0.53744 -0.45992,1.56063 0,0.97152 0.34106,1.47278 0.34106,0.50126 1.13172,0.50126 0.42374,0 0.84749,-0.16019 0.42891,-0.16537 0.78548,-0.43925 z" />
  <g
     id="g9359"
     transform="translate(5.1595455,-2.30957)">
    <path
       style="opacity:1;fill:#ffffff;stroke-width:0.08127946"
       d="m 33.959553,25.967741 c 1.893811,-1.69874 3.80144,-3.383663 5.685498,-5.092157 4.474434,3.994885 8.974878,7.962135 13.458252,11.948893 2.125458,1.857235 4.218404,3.75186 6.32029,5.63673 0.04552,0.05121 0.166624,0.126796 0.07315,0.198322 -0.690876,0.733141 -1.34924,1.495542 -2.046618,2.22218 -1.152542,-1.002988 -2.29208,-2.019794 -3.439746,-3.027659 -2.204299,-1.88162 -4.355766,-3.825824 -6.537307,-5.734266 -0.600655,-0.509622 -1.154168,-1.070451 -1.754823,-1.580073 -2.026297,-1.776769 -4.0339,-3.576296 -6.070763,-5.34006 -5.948844,5.210013 -11.860298,10.46473 -17.803452,15.682058 -0.675432,-0.761589 -1.353303,-1.523176 -2.000287,-2.308336 4.709331,-4.197271 9.40891,-8.405922 14.115803,-12.605632 z"
       id="path1469" />
    <path
       style="opacity:1;fill:#ffffff;stroke-width:0.08127946"
       d="m 25.853412,39.97138 c 4.598791,-4.056658 9.180514,-8.133636 13.784183,-12.184604 4.576846,3.996511 9.129308,8.022283 13.701278,12.024483 0.131672,0.125983 0.344625,0.238961 0.30561,0.454352 -0.02357,5.690375 -0.07153,11.38075 -0.0951,17.071125 -0.0033,0.280414 0.02601,0.59334 -0.154431,0.831488 -0.162559,0.246277 -0.466544,0.347063 -0.751022,0.329182 -8.698528,-0.0024 -17.397056,0.0024 -26.095583,-0.0024 -0.448662,0.02601 -0.850995,-0.37795 -0.819297,-0.827425 -0.0016,-5.800914 7.82e-4,-11.602642 -7.82e-4,-17.403557 -0.013,-0.115417 0.0252,-0.227583 0.12517,-0.292606 z"
       id="path1471" />
    <path
       style="opacity:1;fill:#846a50;fill-opacity:1;stroke-width:0.06470722"
       d="m 28.674072,41.115656 c 3.661135,-3.229537 7.308681,-6.475251 10.973698,-9.700258 3.643663,3.181653 7.267913,6.386601 10.907696,9.572785 0.104826,0.100297 0.274359,0.190239 0.243299,0.361713 -0.01876,4.530152 -0.05694,9.060304 -0.07571,13.590458 -0.0026,0.223239 0.0207,0.472363 -0.122944,0.661954 -0.129414,0.196063 -0.371418,0.276301 -0.597895,0.262064 -6.924965,-0.0019 -13.849933,0.0019 -20.774899,-0.0019 -0.357183,0.0207 -0.677484,-0.300888 -0.652249,-0.658718 -0.0014,-4.618147 6.23e-4,-9.236948 -6.22e-4,-13.855103 -0.01035,-0.09188 0.02006,-0.18118 0.09965,-0.232945 z"
       id="path1471-2" />
    <g
       style="fill:#ffffff"
       transform="matrix(0.16947002,0,0,0.16947002,13.381563,30.311427)"
       id="g9350">
      <g
         style="fill:#ffffff"
         id="#ffffffff" />
      <g
         style="fill:#ffffff"
         id="#59997cff">
        <path
           style="opacity:1;fill:#ffffff"
           d="m 149.22,69.19 c 9.68,-4.73 21.65,-4.55 31.18,0.5 -1.26,4.56 -2.54,9.11 -3.59,13.73 -3.68,-2.78 -7.96,-5.48 -12.8,-4.74 -4.09,0.04 -7.17,3.1 -8.96,6.51 4.79,0.09 9.58,0.07 14.37,0 -0.54,2.34 -1.1,4.68 -1.61,7.03 -4.66,0.07 -9.31,0.05 -13.96,0.02 -0.05,1.42 -0.1,2.84 -0.14,4.26 4.86,0.26 9.74,0.05 14.61,0.14 -0.55,2.3 -1.11,4.6 -1.63,6.91 -4.04,0.01 -8.09,-0.03 -12.13,0.01 1.09,3.2 3.42,6.13 6.85,6.94 6.69,1.45 13.59,-1.01 19.08,-4.81 -0.01,4.82 0.32,9.67 -0.12,14.48 -7.39,4.94 -17.02,4.55 -25.39,2.85 -9.38,-1.88 -15.96,-10.33 -18.23,-19.24 -2.3,0.02 -4.6,0.05 -6.9,0.08 0.62,-2.33 1.27,-4.64 1.97,-6.94 1.37,0.01 2.74,0.03 4.11,0.04 0.01,-1.43 0.02,-2.86 0.04,-4.29 -1.7,0.02 -3.39,0.03 -5.08,0.06 0.66,-2.36 1.3,-4.73 1.97,-7.09 1.37,0.02 2.75,0.05 4.13,0.07 1.83,-6.77 5.8,-13.29 12.23,-16.52 z"
           id="path9336" />
      </g>
    </g>
  </g>
  <path
     d="m 16.409853,64.157618 -1.999878,7.694621 H 13.257591 L 11.640119,65.465032 10.05882,71.852239 H 8.9322736 L 6.8962222,64.157618 h 1.0490316 l 1.6174723,6.397543 1.5916339,-6.397543 h 1.038696 l 1.607137,6.459554 1.607138,-6.459554 z"
     style="font-style:normal;font-variant:normal;font-weight:normal;font-stretch:normal;font-size:medium;line-height:1.25;font-family:Raleway;-inkscape-font-specification:Raleway;font-variant-ligatures:normal;font-variant-caps:normal;font-variant-numeric:normal;font-feature-settings:normal;text-align:start;letter-spacing:0px;word-spacing:0px;writing-mode:lr-tb;text-anchor:start;fill:#ffffff;fill-opacity:1;stroke:none;stroke-width:0.26458332"
     id="path846" />
  <path
     d="m 22.151104,69.066879 h -4.25297 q 0,0.532268 0.160197,0.930176 0.160197,0.392741 0.43925,0.645955 0.268717,0.248047 0.63562,0.372071 0.37207,0.124023 0.816487,0.124023 0.589112,0 1.183391,-0.232544 0.599446,-0.237711 0.852661,-0.465088 h 0.05168 v 1.059367 q -0.490926,0.206706 -1.002522,0.346232 -0.511597,0.139527 -1.07487,0.139527 -1.436605,0 -2.242757,-0.775147 -0.806153,-0.780314 -0.806153,-2.211751 0,-1.415934 0.769979,-2.247925 0.775147,-0.83199 2.036052,-0.83199 1.167887,0 1.798339,0.682129 0.63562,0.682128 0.63562,1.937866 z m -0.945678,-0.74414 q -0.0052,-0.764811 -0.387573,-1.183391 -0.377238,-0.418579 -1.152385,-0.418579 -0.780314,0 -1.245402,0.459921 -0.45992,0.45992 -0.521932,1.142049 z"
     style="font-style:normal;font-variant:normal;font-weight:normal;font-stretch:normal;font-size:medium;line-height:1.25;font-family:Raleway;-inkscape-font-specification:Raleway;font-variant-ligatures:normal;font-variant-caps:normal;font-variant-numeric:normal;font-feature-settings:normal;text-align:start;letter-spacing:0px;word-spacing:0px;writing-mode:lr-tb;text-anchor:start;fill:#ffffff;fill-opacity:1;stroke:none;stroke-width:0.26458332"
     id="path848" />
  <path
     d="m 27.225731,67.139348 h -0.05168 q -0.217041,-0.05168 -0.423746,-0.07235 -0.201538,-0.02584 -0.480591,-0.02584 -0.449585,0 -0.868164,0.201538 -0.418579,0.196371 -0.806153,0.511597 v 4.097941 H 23.623884 V 66.079977 H 24.5954 v 0.852661 q 0.578776,-0.465088 1.018026,-0.656291 0.444417,-0.19637 0.904338,-0.19637 0.253214,0 0.366902,0.0155 0.113688,0.01034 0.341065,0.04651 z"
     style="font-style:normal;font-variant:normal;font-weight:normal;font-stretch:normal;font-size:medium;line-height:1.25;font-family:Raleway;-inkscape-font-specification:Raleway;font-variant-ligatures:normal;font-variant-caps:normal;font-variant-numeric:normal;font-feature-settings:normal;text-align:start;letter-spacing:0px;word-spacing:0px;writing-mode:lr-tb;text-anchor:start;fill:#ffffff;fill-opacity:1;stroke:none;stroke-width:0.26458332"
     id="path850" />
  <path
     d="m 31.147972,71.800563 q -0.273885,0.07235 -0.599447,0.118855 -0.320393,0.04651 -0.573608,0.04651 -0.883667,0 -1.343587,-0.475423 -0.45992,-0.475423 -0.45992,-1.524455 v -3.06958 h -0.656291 v -0.816487 h 0.656291 v -1.658814 h 0.971516 v 1.658814 h 2.005046 v 0.816487 h -2.005046 v 2.630331 q 0,0.454752 0.02067,0.713134 0.02067,0.253215 0.144694,0.475423 0.113688,0.206706 0.310059,0.304891 0.201538,0.09302 0.609782,0.09302 0.237711,0 0.496093,-0.06718 0.258382,-0.07235 0.372071,-0.118856 h 0.05168 z"
     style="font-style:normal;font-variant:normal;font-weight:normal;font-stretch:normal;font-size:medium;line-height:1.25;font-family:Raleway;-inkscape-font-specification:Raleway;font-variant-ligatures:normal;font-variant-caps:normal;font-variant-numeric:normal;font-feature-settings:normal;text-align:start;letter-spacing:0px;word-spacing:0px;writing-mode:lr-tb;text-anchor:start;fill:#ffffff;fill-opacity:1;stroke:none;stroke-width:0.26458332"
     id="path852" />
  <path
     d="m 37.15794,69.066879 h -4.25297 q 0,0.532268 0.160197,0.930176 0.160197,0.392741 0.43925,0.645955 0.268717,0.248047 0.63562,0.372071 0.37207,0.124023 0.816487,0.124023 0.589112,0 1.183391,-0.232544 0.599446,-0.237711 0.852661,-0.465088 h 0.05168 v 1.059367 q -0.490926,0.206706 -1.002523,0.346232 -0.511596,0.139527 -1.074869,0.139527 -1.436605,0 -2.242757,-0.775147 -0.806153,-0.780314 -0.806153,-2.211751 0,-1.415934 0.769979,-2.247925 0.775147,-0.83199 2.036051,-0.83199 1.167888,0 1.79834,0.682129 0.63562,0.682128 0.63562,1.937866 z m -0.945678,-0.74414 q -0.0052,-0.764811 -0.387574,-1.183391 -0.377237,-0.418579 -1.152384,-0.418579 -0.780314,0 -1.245402,0.459921 -0.45992,0.45992 -0.521932,1.142049 z"
     style="font-style:normal;font-variant:normal;font-weight:normal;font-stretch:normal;font-size:medium;line-height:1.25;font-family:Raleway;-inkscape-font-specification:Raleway;font-variant-ligatures:normal;font-variant-caps:normal;font-variant-numeric:normal;font-feature-settings:normal;text-align:start;letter-spacing:0px;word-spacing:0px;writing-mode:lr-tb;text-anchor:start;fill:#ffffff;fill-opacity:1;stroke:none;stroke-width:0.26458332"
     id="path854" />
  <path
     d="m 42.232565,67.139348 h -0.05168 q -0.217041,-0.05168 -0.423746,-0.07235 -0.201538,-0.02584 -0.480591,-0.02584 -0.449585,0 -0.868164,0.201538 -0.418579,0.196371 -0.806153,0.511597 v 4.097941 h -0.971516 v -5.772257 h 0.971516 v 0.852661 q 0.578776,-0.465088 1.018026,-0.656291 0.444417,-0.19637 0.904338,-0.19637 0.253214,0 0.366902,0.0155 0.113689,0.01034 0.341065,0.04651 z"
     style="font-style:normal;font-variant:normal;font-weight:normal;font-stretch:normal;font-size:medium;line-height:1.25;font-family:Raleway;-inkscape-font-specification:Raleway;font-variant-ligatures:normal;font-variant-caps:normal;font-variant-numeric:normal;font-feature-settings:normal;text-align:start;letter-spacing:0px;word-spacing:0px;writing-mode:lr-tb;text-anchor:start;fill:#ffffff;fill-opacity:1;stroke:none;stroke-width:0.26458332"
     id="path856" />
  <path
     d="m 51.580833,71.852239 h -0.971517 v -3.286621 q 0,-0.37207 -0.03617,-0.718302 -0.03101,-0.346233 -0.139527,-0.552938 -0.118855,-0.222209 -0.341064,-0.335897 -0.222209,-0.113688 -0.640788,-0.113688 -0.408244,0 -0.816487,0.206706 -0.408244,0.201538 -0.816488,0.516764 0.0155,0.118856 0.02584,0.279053 0.01034,0.155029 0.01034,0.310058 v 3.694865 h -0.971517 v -3.286621 q 0,-0.382406 -0.03617,-0.72347 -0.03101,-0.346232 -0.139526,-0.552938 -0.118856,-0.222209 -0.341065,-0.330729 -0.222208,-0.113688 -0.640787,-0.113688 -0.397909,0 -0.800985,0.19637 -0.397909,0.196371 -0.795817,0.501262 v 4.309814 h -0.971517 v -5.772257 h 0.971517 v 0.640787 q 0.454752,-0.377238 0.904337,-0.589111 0.454753,-0.211873 0.96635,-0.211873 0.589111,0 0.997355,0.248047 0.413411,0.248046 0.614949,0.687296 0.589112,-0.496094 1.07487,-0.713135 0.485758,-0.222208 1.038696,-0.222208 0.950847,0 1.400432,0.578776 0.454752,0.573608 0.454752,1.607137 z"
     style="font-style:normal;font-variant:normal;font-weight:normal;font-stretch:normal;font-size:medium;line-height:1.25;font-family:Raleway;-inkscape-font-specification:Raleway;font-variant-ligatures:normal;font-variant-caps:normal;font-variant-numeric:normal;font-feature-settings:normal;text-align:start;letter-spacing:0px;word-spacing:0px;writing-mode:lr-tb;text-anchor:start;fill:#ffffff;fill-opacity:1;stroke:none;stroke-width:0.26458332"
     id="path858" />
  <path
     d="m 54.495384,65.113632 h -1.09554 v -1.00769 h 1.09554 z m -0.06201,6.738607 h -0.971516 v -5.772257 h 0.971516 z"
     style="font-style:normal;font-variant:normal;font-weight:normal;font-stretch:normal;font-size:medium;line-height:1.25;font-family:Raleway;-inkscape-font-specification:Raleway;font-variant-ligatures:normal;font-variant-caps:normal;font-variant-numeric:normal;font-feature-settings:normal;text-align:start;letter-spacing:0px;word-spacing:0px;writing-mode:lr-tb;text-anchor:start;fill:#ffffff;fill-opacity:1;stroke:none;stroke-width:0.26458332"
     id="path860" />
  <path
     d="m 59.363304,71.800563 q -0.273885,0.07235 -0.599447,0.118855 -0.320393,0.04651 -0.573608,0.04651 -0.883667,0 -1.343587,-0.475423 -0.45992,-0.475423 -0.45992,-1.524455 v -3.06958 h -0.656291 v -0.816487 h 0.656291 v -1.658814 h 0.971517 v 1.658814 h 2.005045 v 0.816487 h -2.005045 v 2.630331 q 0,0.454752 0.02067,0.713134 0.02067,0.253215 0.144694,0.475423 0.113688,0.206706 0.310059,0.304891 0.201538,0.09302 0.609782,0.09302 0.237711,0 0.496093,-0.06718 0.258382,-0.07235 0.372071,-0.118856 h 0.05168 z"
     style="font-style:normal;font-variant:normal;font-weight:normal;font-stretch:normal;font-size:medium;line-height:1.25;font-family:Raleway;-inkscape-font-specification:Raleway;font-variant-ligatures:normal;font-variant-caps:normal;font-variant-numeric:normal;font-feature-settings:normal;text-align:start;letter-spacing:0px;word-spacing:0px;writing-mode:lr-tb;text-anchor:start;fill:#ffffff;fill-opacity:1;stroke:none;stroke-width:0.26458332"
     id="path862" />
  <path
     d="m 63.538757,71.800563 q -0.273885,0.07235 -0.599446,0.118855 -0.320394,0.04651 -0.573609,0.04651 -0.883667,0 -1.343587,-0.475423 -0.45992,-0.475423 -0.45992,-1.524455 v -3.06958 h -0.656291 v -0.816487 h 0.656291 v -1.658814 h 0.971517 v 1.658814 h 2.005045 v 0.816487 h -2.005045 v 2.630331 q 0,0.454752 0.02067,0.713134 0.02067,0.253215 0.144694,0.475423 0.113688,0.206706 0.310059,0.304891 0.201538,0.09302 0.609782,0.09302 0.237711,0 0.496093,-0.06718 0.258383,-0.07235 0.372071,-0.118856 h 0.05168 z"
     style="font-style:normal;font-variant:normal;font-weight:normal;font-stretch:normal;font-size:medium;line-height:1.25;font-family:Raleway;-inkscape-font-specification:Raleway;font-variant-ligatures:normal;font-variant-caps:normal;font-variant-numeric:normal;font-feature-settings:normal;text-align:start;letter-spacing:0px;word-spacing:0px;writing-mode:lr-tb;text-anchor:start;fill:#ffffff;fill-opacity:1;stroke:none;stroke-width:0.26458332"
     id="path864" />
  <path
     d="m 65.698833,71.852239 h -0.971516 v -8.040853 h 0.971516 z"
     style="font-style:normal;font-variant:normal;font-weight:normal;font-stretch:normal;font-size:medium;line-height:1.25;font-family:Raleway;-inkscape-font-specification:Raleway;font-variant-ligatures:normal;font-variant-caps:normal;font-variant-numeric:normal;font-feature-settings:normal;text-align:start;letter-spacing:0px;word-spacing:0px;writing-mode:lr-tb;text-anchor:start;fill:#ffffff;fill-opacity:1;stroke:none;stroke-width:0.26458332"
     id="path866" />
  <path
     d="m 72.416769,71.852239 h -0.971516 v -0.640788 q -0.490926,0.387573 -0.940511,0.594279 -0.449585,0.206706 -0.992188,0.206706 -0.909505,0 -1.415934,-0.552938 -0.506429,-0.558105 -0.506429,-1.632975 v -3.746541 h 0.971517 v 3.286621 q 0,0.439249 0.04134,0.754476 0.04134,0.310058 0.1757,0.532267 0.139526,0.227376 0.361735,0.330729 0.222208,0.103353 0.645955,0.103353 0.377238,0 0.821655,-0.196371 0.449585,-0.19637 0.837159,-0.501261 v -4.309814 h 0.971516 z"
     style="font-style:normal;font-variant:normal;font-weight:normal;font-stretch:normal;font-size:medium;line-height:1.25;font-family:Raleway;-inkscape-font-specification:Raleway;font-variant-ligatures:normal;font-variant-caps:normal;font-variant-numeric:normal;font-feature-settings:normal;text-align:start;letter-spacing:0px;word-spacing:0px;writing-mode:lr-tb;text-anchor:start;fill:#ffffff;fill-opacity:1;stroke:none;stroke-width:0.26458332"
     id="path868" />
  <path
     d="m 79.155372,71.852239 h -0.971516 v -3.286621 q 0,-0.397909 -0.04651,-0.744141 -0.04651,-0.351399 -0.170532,-0.54777 -0.129192,-0.217041 -0.372071,-0.320394 -0.242879,-0.10852 -0.630452,-0.10852 -0.397909,0 -0.831991,0.19637 -0.434082,0.196371 -0.83199,0.501262 v 4.309814 h -0.971516 v -5.772257 h 0.971517 v 0.640787 q 0.454752,-0.377238 0.940511,-0.589111 0.485758,-0.211873 0.997355,-0.211873 0.935343,0 1.426269,0.563273 0.490926,0.563273 0.490926,1.62264 z"
     style="font-style:normal;font-variant:normal;font-weight:normal;font-stretch:normal;font-size:medium;line-height:1.25;font-family:Raleway;-inkscape-font-specification:Raleway;font-variant-ligatures:normal;font-variant-caps:normal;font-variant-numeric:normal;font-feature-settings:normal;text-align:start;letter-spacing:0px;word-spacing:0px;writing-mode:lr-tb;text-anchor:start;fill:#ffffff;fill-opacity:1;stroke:none;stroke-width:0.26458332"
     id="path870" />
  <path
     d="m 85.707944,71.195948 q 0,1.467611 -0.666626,2.154907 -0.666626,0.687297 -2.051554,0.687297 -0.45992,0 -0.89917,-0.06718 -0.434082,-0.06201 -0.857829,-0.180868 v -0.992187 h 0.05168 q 0.237711,0.09302 0.754475,0.227376 0.516765,0.139526 1.033529,0.139526 0.496094,0 0.821655,-0.118855 0.325562,-0.118856 0.506429,-0.33073 0.180868,-0.201538 0.258383,-0.485758 0.07751,-0.28422 0.07751,-0.63562 v -0.5271 q -0.439249,0.3514 -0.842326,0.5271 -0.397908,0.170532 -1.018025,0.170532 -1.033529,0 -1.643311,-0.744141 -0.604614,-0.749308 -0.604614,-2.108398 0,-0.744141 0.206706,-1.281575 0.211873,-0.542603 0.573608,-0.935344 0.335897,-0.366902 0.816488,-0.568441 0.48059,-0.206705 0.956014,-0.206705 0.501261,0 0.837158,0.103353 0.341064,0.09819 0.718302,0.304891 l 0.06201,-0.248047 h 0.909508 z m -0.971517,-0.930175 v -3.147095 q -0.387573,-0.1757 -0.72347,-0.248047 -0.330729,-0.07752 -0.661458,-0.07752 -0.800985,0 -1.260905,0.537435 -0.45992,0.537435 -0.45992,1.560628 0,0.971517 0.341064,1.472779 0.341065,0.501261 1.131714,0.501261 0.423747,0 0.847493,-0.160197 0.428915,-0.165364 0.785482,-0.439249 z"
     style="font-style:normal;font-variant:normal;font-weight:normal;font-stretch:normal;font-size:medium;line-height:1.25;font-family:Raleway;-inkscape-font-specification:Raleway;font-variant-ligatures:normal;font-variant-caps:normal;font-variant-numeric:normal;font-feature-settings:normal;text-align:start;letter-spacing:0px;word-spacing:0px;writing-mode:lr-tb;text-anchor:start;fill:#ffffff;fill-opacity:1;stroke:none;stroke-width:0.26458332"
     id="path872" />
</svg>
