<?xml version="1.0" encoding="UTF-8" standalone="no"?>
<svg
   xmlns:dc="http://purl.org/dc/elements/1.1/"
   xmlns:cc="http://creativecommons.org/ns#"
   xmlns:rdf="http://www.w3.org/1999/02/22-rdf-syntax-ns#"
   xmlns:svg="http://www.w3.org/2000/svg"
   xmlns="http://www.w3.org/2000/svg"
   viewBox="0 0 430 200"
   height="200"
   width="430"
   xml:space="preserve"
   id="svg3732"
   version="1.1"><metadata
     id="metadata3738"><rdf:RDF><cc:Work
         rdf:about=""><dc:format>image/svg+xml</dc:format><dc:type
           rdf:resource="http://purl.org/dc/dcmitype/StillImage" /><dc:title></dc:title></cc:Work></rdf:RDF></metadata><defs
     id="defs3736" /><g
     transform="matrix(1.3333333,0,0,-1.3333333,0,200)"
     id="g3740"><g
       transform="matrix(0.10016443,0,0,0.1001644,-26.059179,-43.874788)"
       id="g3742"><path
         id="path3744"
         style="fill:#4f4c4c;fill-opacity:1;fill-rule:nonzero;stroke:none"
         d="m 599.836,1280.93 c 0,17.33 -6.027,31.2 -18.066,41.71 -12.075,10.52 -33.207,20.38 -63.5,29.61 -51.875,15.66 -91.266,34.08 -118.075,55.33 -26.882,21.17 -40.312,50.1 -40.312,86.74 0,36.87 15.117,66.97 45.383,90.36 30.242,23.35 68.867,35.01 115.808,35.01 49.824,0 89.903,-12.56 120.305,-37.64 30.32,-25.15 45,-58.06 43.965,-98.84 l -0.598,-1.86 h -87.391 c 0,22.42 -6.82,39.7 -20.382,51.71 -13.594,12.07 -32.61,18.12 -57.149,18.12 -22.234,0 -39.426,-5.36 -51.57,-16.11 -12.102,-10.7 -18.203,-24.4 -18.203,-41.07 0,-15.21 6.597,-27.71 19.785,-37.49 13.184,-9.78 35.894,-20.13 68.238,-31.08 49.387,-13.95 87.094,-32.2 113.031,-54.79 25.938,-22.56 38.907,-52.25 38.907,-89.05 0,-38.55 -15.024,-68.9 -45.09,-91.13 -30.078,-22.23 -69.824,-33.35 -119.192,-33.35 -48.433,0 -89.902,12.05 -124.609,36.13 -34.703,24.08 -51.558,60.02 -50.523,107.8 l 0.672,1.85 h 87.343 c 0,-26.59 7.84,-46.15 23.477,-58.71 15.691,-12.55 36.836,-18.82 63.64,-18.82 24.114,0 42.473,5.04 55.11,15.14 12.644,10.08 18.996,23.54 18.996,40.43" /><path
         id="path3746"
         style="fill:#4f4c4c;fill-opacity:1;fill-rule:nonzero;stroke:none"
         d="m 852.727,1163.57 h -90.149 v 449.64 h 90.149 v -449.64" /><path
         id="path3748"
         style="fill:#4f4c4c;fill-opacity:1;fill-rule:nonzero;stroke:none"
         d="m 1286.64,1225.05 c -14.03,-18.33 -34.92,-34.23 -62.71,-47.72 -27.79,-13.46 -63.59,-20.22 -107.45,-20.22 -54.37,0 -98.83,17.08 -133.421,51.24 -34.602,34.17 -51.875,78.55 -51.875,133.11 v 93.86 c 0,54.4 16.777,98.67 50.339,132.97 33.537,34.25 76.687,51.4 129.407,51.4 54.95,0 97.04,-13.01 126.33,-39.03 29.22,-26.05 43.31,-60.81 42.27,-104.26 l -0.62,-1.85 h -84.9 c 0,23.91 -6.94,42.47 -20.72,55.76 -13.82,13.3 -33.84,19.92 -60.21,19.92 -27.6,0 -49.8,-10.66 -66.71,-31.96 -16.9,-21.3 -25.32,-48.76 -25.32,-82.3 v -94.51 c 0,-33.94 8.64,-61.67 25.94,-83.09 17.3,-21.38 40.48,-32.11 69.49,-32.11 21.36,0 38.33,2.17 50.79,6.51 12.5,4.31 22.09,9.75 28.87,16.35 v 87.06 h -86.46 v 62.44 h 176.96 v -173.57" /><path
         id="path3750"
         style="fill:#846a50;fill-opacity:1;fill-rule:nonzero;stroke:none"
         d="m 1576.31,1387.15 -112.43,-154.06 h 199.18 v -69.52 h -318.99 v 46.97 l 136.81,179.39 -136.81,176.67 v 46.61 h 310.68 v -69.5 h -190.24 l 111.8,-151.3 v -5.26" /><path
         id="path3752"
         style="fill:#4f4c4c;fill-opacity:1;fill-rule:nonzero;stroke:none"
         d="m 1833.23,1331.27 h 101.62 l -49.74,158.45 h -1.86 z m 123.5,-70.72 h -145.75 l -30.24,-96.98 h -94.21 l 151.6,449.64 h 92.36 l 151.03,-449.64 h -94.18 l -30.61,96.98" /><path
         id="path3754"
         style="fill:#4f4c4c;fill-opacity:1;fill-rule:nonzero;stroke:none"
         d="m 2261.61,955.57 h 11.87 c 3.45,0 6.07,1.34 7.87,4.012 1.78,2.668 2.67,6.027 2.67,10.078 0,4.102 -0.89,7.488 -2.65,10.219 -1.78,2.723 -4.41,4.082 -7.89,4.082 h -11.87 z m 0,-7.769 v -28.602 h -8.91 v 72.531 h 20.78 c 6.06,0 10.82,-2.011 14.25,-6.05 3.45,-4.032 5.17,-9.34 5.17,-15.91 0,-6.61 -1.72,-11.918 -5.17,-15.95 -3.43,-4.011 -8.19,-6.019 -14.25,-6.019 h -11.87" /><path
         id="path3756"
         style="fill:#4f4c4c;fill-opacity:1;fill-rule:nonzero;stroke:none"
         d="m 2311.27,926.879 h 25.89 v -7.68 h -34.81 v 72.531 h 8.92 v -64.851" /><path
         id="path3758"
         style="fill:#4f4c4c;fill-opacity:1;fill-rule:nonzero;stroke:none"
         d="m 2357.77,945.551 h 15.12 l -7.38,29.488 h -0.27 z m 17.1,-8.02 h -19.12 l -4.61,-18.332 h -9.27 l 19.19,72.531 h 8.67 l 19.03,-72.531 h -9.28 l -4.61,18.332" /><path
         id="path3760"
         style="fill:#4f4c4c;fill-opacity:1;fill-rule:nonzero;stroke:none"
         d="m 2439.03,919.199 h -8.96 l -24.79,53.512 -0.26,-0.109 v -53.403 h -8.92 v 72.531 h 8.92 l 24.78,-53.351 0.27,0.051 v 53.3 h 8.96 v -72.531" /><path
         id="path3762"
         style="fill:#4f4c4c;fill-opacity:1;fill-rule:nonzero;stroke:none"
         d="m 2493.13,991.73 v -47.968 c 0,-8.032 -1.99,-14.313 -5.97,-18.821 -3.99,-4.519 -9.16,-6.781 -15.51,-6.781 -6.25,0 -11.32,2.27 -15.23,6.801 -3.91,4.527 -5.86,10.801 -5.86,18.801 v 47.968 h 8.91 v -47.968 c 0,-5.614 1.13,-10 3.36,-13.172 2.25,-3.168 5.18,-4.758 8.82,-4.758 3.74,0 6.77,1.578 9.07,4.727 2.3,3.16 3.45,7.562 3.45,13.203 v 47.968 h 8.96" /><path
         id="path3764"
         style="fill:#4f4c4c;fill-opacity:1;fill-rule:nonzero;stroke:none"
         d="m 2547.49,919.199 h -8.96 l -24.79,53.512 -0.26,-0.109 v -53.403 h -8.92 v 72.531 h 8.92 l 24.78,-53.351 0.27,0.051 v 53.3 h 8.96 v -72.531" /><path
         id="path3766"
         style="fill:#4f4c4c;fill-opacity:1;fill-rule:nonzero;stroke:none"
         d="m 2600.54,928.672 c -1.53,-2.762 -3.95,-5.203 -7.28,-7.332 -3.32,-2.121 -7.61,-3.18 -12.85,-3.18 -6.68,0 -12.06,2.301 -16.15,6.918 -4.08,4.621 -6.13,11.192 -6.13,19.731 v 21.519 c 0,8.402 1.98,14.91 5.93,19.524 3.96,4.617 9.21,6.929 15.77,6.929 6.48,0 11.48,-1.902 14.99,-5.679 3.52,-3.782 5.22,-8.961 5.1,-15.543 l -0.09,-0.297 h -8.39 c 0,4.347 -0.97,7.726 -2.92,10.136 -1.95,2.403 -4.79,3.614 -8.51,3.614 -4.01,0 -7.17,-1.59 -9.46,-4.762 -2.31,-3.16 -3.45,-7.77 -3.45,-13.82 v -21.621 c 0,-6.18 1.19,-10.887 3.57,-14.118 2.4,-3.242 5.64,-4.859 9.74,-4.859 3.02,0 5.43,0.527 7.23,1.598 1.8,1.05 3.11,2.351 3.93,3.879 v 16.89 h -11.78 v 7.371 h 20.75 v -26.898" /><path
         id="path3768"
         style="fill:#4f4c4c;fill-opacity:1;fill-rule:nonzero;stroke:none"
         d="M 2261.61,860.738 V 803.66 h 9.23 c 4.39,0 7.91,2.18 10.55,6.539 2.63,4.371 3.95,9.992 3.95,16.871 v 10.41 c 0,6.77 -1.32,12.34 -3.95,16.711 -2.64,4.368 -6.16,6.547 -10.55,6.547 z m -8.91,-64.758 v 72.532 h 18.14 c 6.91,0 12.56,-2.91 16.94,-8.723 4.38,-5.809 6.58,-13.277 6.58,-22.41 V 827.07 c 0,-9.172 -2.2,-16.64 -6.58,-22.422 -4.38,-5.777 -10.03,-8.668 -16.94,-8.668 h -18.14" /><path
         id="path3770"
         style="fill:#4f4c4c;fill-opacity:1;fill-rule:nonzero;stroke:none"
         d="m 2335.65,829.648 h -21.7 V 803.66 h 25.57 v -7.68 h -34.49 v 72.532 h 34.28 v -7.774 h -25.36 v -23.359 h 21.7 v -7.731" /><path
         id="path3772"
         style="fill:#4f4c4c;fill-opacity:1;fill-rule:nonzero;stroke:none"
         d="m 2377.67,814.211 c 0,3.32 -0.84,6.059 -2.51,8.199 -1.67,2.141 -4.62,4.09 -8.84,5.852 -6.01,2.129 -10.62,4.867 -13.84,8.218 -3.22,3.36 -4.83,7.821 -4.83,13.399 0,5.711 1.77,10.422 5.34,14.121 3.55,3.711 8.11,5.559 13.68,5.559 5.92,0 10.66,-2.059 14.24,-6.18 3.57,-4.117 5.3,-9.277 5.19,-15.488 l -0.09,-0.301 h -8.57 c 0,4.25 -0.99,7.691 -2.99,10.32 -1.99,2.61 -4.62,3.93 -7.86,3.93 -3.16,0 -5.62,-1.129 -7.36,-3.391 -1.75,-2.258 -2.62,-5.09 -2.62,-8.461 0,-3.168 0.92,-5.777 2.77,-7.828 1.84,-2.058 4.95,-4 9.32,-5.832 5.82,-2.148 10.26,-4.976 13.31,-8.457 3.05,-3.492 4.57,-8.012 4.57,-13.562 0,-5.911 -1.79,-10.61 -5.38,-14.118 -3.59,-3.511 -8.3,-5.25 -14.13,-5.25 -5.62,0 -10.52,1.887 -14.68,5.668 -4.16,3.789 -6.17,9.219 -6.01,16.289 l 0.08,0.301 h 8.61 c 0,-4.91 1.15,-8.578 3.46,-11 2.29,-2.437 5.14,-3.648 8.54,-3.648 3.31,0 5.9,1.058 7.78,3.168 1.87,2.109 2.82,4.941 2.82,8.492" /><path
         id="path3774"
         style="fill:#4f4c4c;fill-opacity:1;fill-rule:nonzero;stroke:none"
         d="m 2406.27,795.98 h -8.93 v 72.532 h 8.93 V 795.98" /><path
         id="path3776"
         style="fill:#4f4c4c;fill-opacity:1;fill-rule:nonzero;stroke:none"
         d="m 2460.15,805.441 c -1.53,-2.75 -3.95,-5.191 -7.28,-7.32 -3.32,-2.121 -7.61,-3.18 -12.85,-3.18 -6.68,0 -12.06,2.297 -16.15,6.918 -4.08,4.621 -6.13,11.192 -6.13,19.731 v 21.519 c 0,8.403 1.98,14.903 5.93,19.52 3.96,4.621 9.21,6.93 15.77,6.93 6.48,0 11.48,-1.899 14.99,-5.68 3.52,-3.789 5.22,-8.957 5.1,-15.539 l -0.09,-0.301 h -8.4 c 0,4.352 -0.96,7.731 -2.91,10.141 -1.95,2.398 -4.79,3.601 -8.51,3.601 -4.01,0 -7.17,-1.582 -9.46,-4.75 -2.31,-3.172 -3.45,-7.781 -3.45,-13.82 V 821.59 c 0,-6.18 1.19,-10.891 3.57,-14.121 2.4,-3.25 5.64,-4.867 9.74,-4.867 3.02,0 5.43,0.539 7.23,1.597 1.8,1.063 3.11,2.36 3.93,3.891 v 16.89 h -11.78 v 7.372 h 20.75 v -26.911" /><path
         id="path3778"
         style="fill:#4f4c4c;fill-opacity:1;fill-rule:nonzero;stroke:none"
         d="m 2514.9,795.98 h -8.96 l -24.79,53.508 -0.26,-0.109 V 795.98 h -8.92 v 72.532 h 8.92 l 24.78,-53.352 0.27,0.051 v 53.301 h 8.96 V 795.98" /><path
         id="path3780"
         style="fill:#4f4c4c;fill-opacity:1;fill-rule:nonzero;stroke:none"
         d="m 2266.01,705.391 h -4.4 v -32.629 h -8.91 v 72.527 h 8.91 v -31.777 h 3.78 l 17.84,31.777 h 10.81 l -21.09,-34.07 22.71,-38.457 h -11.32 l -18.33,32.629" /><path
         id="path3782"
         style="fill:#4f4c4c;fill-opacity:1;fill-rule:nonzero;stroke:none"
         d="m 2335.17,719.09 c 0,6.308 -1.2,11.101 -3.58,14.371 -2.39,3.269 -5.8,4.898 -10.21,4.898 -4.29,0 -7.57,-1.629 -9.88,-4.898 -2.29,-3.27 -3.44,-8.063 -3.44,-14.371 v -20.078 c 0,-6.383 1.15,-11.203 3.47,-14.492 2.31,-3.29 5.61,-4.93 9.89,-4.93 4.42,0 7.82,1.629 10.19,4.898 2.37,3.274 3.56,8.114 3.56,14.524 z m 8.88,-20.078 c 0,-8.602 -2.06,-15.301 -6.15,-20.102 -4.11,-4.789 -9.6,-7.199 -16.48,-7.199 -6.8,0 -12.21,2.41 -16.21,7.199 -4.03,4.801 -6.03,11.5 -6.03,20.102 v 19.929 c 0,8.571 2,15.27 6.03,20.118 4,4.851 9.39,7.269 16.17,7.269 6.87,0 12.38,-2.406 16.49,-7.238 4.12,-4.84 6.18,-11.559 6.18,-20.149 v -19.929" /><path
         id="path3784"
         style="fill:#4f4c4c;fill-opacity:1;fill-rule:nonzero;stroke:none"
         d="m 2381.19,686.109 h 0.27 l 15.33,59.18 h 11.42 v -72.527 h -8.86 v 52.25 l -0.28,0.047 -14.67,-52.297 h -6.11 l -14.9,53.097 -0.26,-0.039 v -53.058 h -8.88 v 72.527 h 11.65 l 15.29,-59.18" /><path
         id="path3786"
         style="fill:#4f4c4c;fill-opacity:1;fill-rule:nonzero;stroke:none"
         d="m 2429.08,709.129 h 11.87 c 3.45,0 6.07,1.332 7.87,4 1.78,2.68 2.67,6.043 2.67,10.09 0,4.09 -0.88,7.492 -2.65,10.211 -1.78,2.73 -4.41,4.082 -7.89,4.082 h -11.87 z m 0,-7.777 v -28.59 h -8.91 v 72.527 h 20.78 c 6.06,0 10.82,-2.008 14.26,-6.059 3.44,-4.031 5.16,-9.332 5.16,-15.898 0,-6.621 -1.72,-11.934 -5.16,-15.953 -3.44,-4.02 -8.2,-6.027 -14.26,-6.027 h -11.87" /><path
         id="path3788"
         style="fill:#4f4c4c;fill-opacity:1;fill-rule:nonzero;stroke:none"
         d="m 2478.75,680.43 h 25.89 v -7.668 h -34.81 v 72.527 h 8.92 V 680.43" /><path
         id="path3790"
         style="fill:#4f4c4c;fill-opacity:1;fill-rule:nonzero;stroke:none"
         d="m 2543.82,706.43 h -21.71 v -26 h 25.58 v -7.668 h -34.5 v 72.527 h 34.28 v -7.777 h -25.36 V 714.16 h 21.71 v -7.73" /><path
         id="path3792"
         style="fill:#4f4c4c;fill-opacity:1;fill-rule:nonzero;stroke:none"
         d="m 2594.92,737.512 h -16.96 v -64.75 h -8.97 v 64.75 h -16.83 v 7.777 h 42.76 v -7.777" /><path
         id="path3794"
         style="fill:#4f4c4c;fill-opacity:1;fill-rule:nonzero;stroke:none"
         d="m 2641.54,737.512 h -16.96 v -64.75 h -8.96 v 64.75 h -16.84 v 7.777 h 42.76 v -7.777" /><path
         id="path3796"
         style="fill:#4f4c4c;fill-opacity:1;fill-rule:nonzero;stroke:none"
         d="m 2658.11,680.43 h 25.88 v -7.668 h -34.8 v 72.527 h 8.92 V 680.43" /><path
         id="path3798"
         style="fill:#4f4c4c;fill-opacity:1;fill-rule:nonzero;stroke:none"
         d="m 2724.52,754.352 h -9.19 v 9.218 h 9.19 z m -0.62,-35.262 c 0,6.308 -1.19,11.101 -3.58,14.371 -2.39,3.269 -5.8,4.898 -10.21,4.898 -4.29,0 -7.57,-1.629 -9.88,-4.898 -2.29,-3.27 -3.44,-8.063 -3.44,-14.371 v -20.078 c 0,-6.383 1.15,-11.203 3.47,-14.492 2.31,-3.29 5.61,-4.93 9.89,-4.93 4.42,0 7.82,1.629 10.19,4.898 2.37,3.274 3.56,8.114 3.56,14.524 z m -18.54,35.262 h -9.19 v 9.218 h 9.19 z m 27.42,-55.34 c 0,-8.602 -2.06,-15.301 -6.15,-20.102 -4.11,-4.789 -9.6,-7.199 -16.48,-7.199 -6.8,0 -12.21,2.41 -16.21,7.199 -4.03,4.801 -6.03,11.5 -6.03,20.102 v 19.929 c 0,8.571 2,15.27 6.03,20.118 4,4.851 9.39,7.269 16.17,7.269 6.87,0 12.38,-2.406 16.49,-7.238 4.12,-4.84 6.18,-11.559 6.18,-20.149 v -19.929" /><path
         id="path3800"
         style="fill:#4f4c4c;fill-opacity:1;fill-rule:nonzero;stroke:none"
         d="m 2772.42,690.988 c 0,3.321 -0.84,6.063 -2.51,8.192 -1.67,2.14 -4.62,4.101 -8.84,5.851 -6,2.129 -10.61,4.879 -13.83,8.231 -3.23,3.359 -4.84,7.816 -4.84,13.398 0,5.711 1.78,10.422 5.34,14.121 3.56,3.707 8.12,5.547 13.69,5.547 5.91,0 10.66,-2.058 14.23,-6.168 3.58,-4.121 5.31,-9.289 5.2,-15.5 l -0.1,-0.289 h -8.56 c 0,4.25 -1,7.688 -2.99,10.309 -1.99,2.621 -4.62,3.941 -7.86,3.941 -3.17,0 -5.63,-1.133 -7.37,-3.391 -1.74,-2.269 -2.61,-5.089 -2.61,-8.468 0,-3.16 0.92,-5.774 2.77,-7.821 1.84,-2.062 4.94,-4 9.32,-5.832 5.82,-2.16 10.26,-4.98 13.31,-8.468 3.04,-3.481 4.57,-8 4.57,-13.551 0,-5.91 -1.8,-10.621 -5.38,-14.121 -3.6,-3.508 -8.3,-5.258 -14.13,-5.258 -5.63,0 -10.52,1.898 -14.68,5.68 -4.16,3.789 -6.17,9.218 -6.02,16.289 l 0.08,0.3 h 8.61 c 0,-4.91 1.16,-8.582 3.46,-11.011 2.3,-2.43 5.15,-3.641 8.55,-3.641 3.31,0 5.89,1.063 7.78,3.172 1.86,2.102 2.81,4.941 2.81,8.488" /><path
         id="path3802"
         style="fill:#4f4c4c;fill-opacity:1;fill-rule:nonzero;stroke:none"
         d="M 2833.19,745.289 V 697.32 c 0,-8.039 -1.99,-14.32 -5.97,-18.832 -3.99,-4.519 -9.16,-6.777 -15.51,-6.777 -6.25,0 -11.32,2.269 -15.24,6.801 -3.9,4.527 -5.85,10.797 -5.85,18.808 v 47.969 h 8.91 V 697.32 c 0,-5.621 1.12,-10.011 3.36,-13.172 2.25,-3.179 5.18,-4.769 8.82,-4.769 3.74,0 6.77,1.582 9.07,4.742 2.3,3.149 3.45,7.559 3.45,13.199 v 47.969 h 8.96" /><path
         id="path3804"
         style="fill:#4f4c4c;fill-opacity:1;fill-rule:nonzero;stroke:none"
         d="m 2887.55,672.762 h -8.97 l -24.78,53.5 -0.26,-0.102 v -53.398 h -8.92 v 72.527 h 8.92 l 24.78,-53.348 0.26,0.047 v 53.301 h 8.97 v -72.527" /><path
         id="path3806"
         style="fill:#4f4c4c;fill-opacity:1;fill-rule:nonzero;stroke:none"
         d="m 2940.6,682.219 c -1.53,-2.75 -3.95,-5.188 -7.28,-7.321 -3.32,-2.117 -7.61,-3.187 -12.85,-3.187 -6.68,0 -12.06,2.309 -16.15,6.93 -4.09,4.621 -6.13,11.187 -6.13,19.718 v 21.532 c 0,8.398 1.98,14.898 5.93,19.519 3.96,4.621 9.21,6.918 15.77,6.918 6.48,0 11.48,-1.887 14.99,-5.668 3.52,-3.789 5.22,-8.969 5.1,-15.551 l -0.09,-0.289 h -8.4 c 0,4.352 -0.96,7.719 -2.92,10.141 -1.94,2.398 -4.78,3.598 -8.5,3.598 -4.02,0 -7.17,-1.579 -9.46,-4.758 -2.31,-3.16 -3.45,-7.77 -3.45,-13.813 v -21.629 c 0,-6.179 1.19,-10.879 3.57,-14.121 2.4,-3.238 5.64,-4.859 9.74,-4.859 3.02,0 5.43,0.543 7.23,1.601 1.8,1.059 3.11,2.36 3.93,3.891 v 16.879 h -11.78 v 7.379 h 20.75 v -26.91" /><path
         id="path3808"
         style="fill:#4f4c4c;fill-opacity:1;fill-rule:nonzero;stroke:none"
         d="m 2983.05,706.43 h -21.71 v -26 h 25.57 v -7.668 h -34.49 v 72.527 h 34.28 v -7.777 h -25.36 V 714.16 h 21.71 v -7.73" /><path
         id="path3810"
         style="fill:#4f4c4c;fill-opacity:1;fill-rule:nonzero;stroke:none"
         d="m 3038.82,672.762 h -8.97 l -24.78,53.5 -0.27,-0.102 v -53.398 h -8.91 v 72.527 h 8.91 l 24.79,-53.348 0.26,0.047 v 53.301 h 8.97 v -72.527" /><path
         id="path3812"
         style="fill:#4f4c4c;fill-opacity:1;fill-rule:nonzero;stroke:none"
         d="m 2261.61,589.75 v -26.148 h 12.35 c 3.22,0 5.71,1.097 7.47,3.308 1.75,2.211 2.63,5.371 2.63,9.488 0,3.993 -0.85,7.172 -2.57,9.563 -1.7,2.391 -4.12,3.648 -7.22,3.789 h -0.48 z m 0,7.27 h 10.15 c 2.87,0.101 5.12,1.152 6.75,3.16 1.63,2.011 2.44,4.859 2.44,8.55 0,3.981 -0.9,6.969 -2.69,8.961 -1.79,1.989 -4.4,2.989 -7.86,2.989 h -8.79 z m -8.91,-41.098 v 72.527 h 17.7 c 6.12,0 10.91,-1.629 14.35,-4.879 3.44,-3.25 5.16,-8.14 5.16,-14.64 0,-3.391 -0.75,-6.399 -2.23,-9.02 -1.51,-2.621 -3.59,-4.551 -6.25,-5.781 3.72,-0.699 6.59,-2.699 8.59,-6 2.01,-3.309 3.01,-7.199 3.01,-11.68 0,-6.679 -1.69,-11.769 -5.07,-15.269 -3.39,-3.508 -8.06,-5.258 -14,-5.258 h -21.26" /><path
         id="path3814"
         style="fill:#4f4c4c;fill-opacity:1;fill-rule:nonzero;stroke:none"
         d="m 2313.55,582.27 h 15.12 l -7.38,29.492 h -0.26 z m 17.1,-8.02 h -19.12 l -4.61,-18.328 h -9.27 l 19.2,72.527 h 8.66 l 19.03,-72.527 h -9.28 l -4.61,18.328" /><path
         id="path3816"
         style="fill:#4f4c4c;fill-opacity:1;fill-rule:nonzero;stroke:none"
         d="M 2393.02,628.449 V 580.48 c 0,-8.031 -1.99,-14.308 -5.98,-18.82 -3.98,-4.531 -9.16,-6.781 -15.51,-6.781 -6.25,0 -11.32,2.262 -15.23,6.801 -3.91,4.531 -5.86,10.8 -5.86,18.8 v 47.969 h 8.92 V 580.48 c 0,-5.609 1.12,-10.011 3.35,-13.171 2.25,-3.168 5.18,-4.77 8.82,-4.77 3.74,0 6.77,1.59 9.08,4.742 2.29,3.149 3.44,7.559 3.44,13.199 v 47.969 h 8.97" /><path
         id="path3818"
         style="fill:#4f4c4c;fill-opacity:1;fill-rule:nonzero;stroke:none"
         d="m 2413.36,563.602 h 25.89 v -7.68 h -34.81 v 72.527 h 8.92 v -64.847" /><path
         id="path3820"
         style="fill:#4f4c4c;fill-opacity:1;fill-rule:nonzero;stroke:none"
         d="m 2478.45,589.59 h -21.71 v -25.988 h 25.57 v -7.68 h -34.49 v 72.527 h 34.28 v -7.769 h -25.36 v -23.36 h 21.71 v -7.73" /><path
         id="path3822"
         style="fill:#4f4c4c;fill-opacity:1;fill-rule:nonzero;stroke:none"
         d="m 2500.99,555.922 h -8.93 v 72.527 h 8.93 v -72.527" /><path
         id="path3824"
         style="fill:#4f4c4c;fill-opacity:1;fill-rule:nonzero;stroke:none"
         d="m 2551.04,620.68 h -16.97 v -64.758 h -8.96 v 64.758 h -16.84 v 7.769 h 42.77 v -7.769" /><path
         id="path3826"
         style="fill:#4f4c4c;fill-opacity:1;fill-rule:nonzero;stroke:none"
         d="M 2600.57,628.449 V 580.48 c 0,-8.031 -2,-14.308 -5.98,-18.82 -3.98,-4.531 -9.16,-6.781 -15.51,-6.781 -6.25,0 -11.32,2.262 -15.23,6.801 -3.91,4.531 -5.86,10.8 -5.86,18.8 v 47.969 h 8.91 V 580.48 c 0,-5.609 1.13,-10.011 3.36,-13.171 2.25,-3.168 5.18,-4.77 8.82,-4.77 3.74,0 6.77,1.59 9.07,4.742 2.3,3.149 3.45,7.559 3.45,13.199 v 47.969 h 8.97" /><path
         id="path3828"
         style="fill:#4f4c4c;fill-opacity:1;fill-rule:nonzero;stroke:none"
         d="m 2654.92,555.922 h -8.96 l -24.79,53.508 -0.26,-0.11 v -53.398 h -8.92 v 72.527 h 8.92 l 24.78,-53.347 0.27,0.046 v 53.301 h 8.96 v -72.527" /><path
         id="path3830"
         style="fill:#4f4c4c;fill-opacity:1;fill-rule:nonzero;stroke:none"
         d="m 2707.97,565.391 c -1.52,-2.762 -3.95,-5.2 -7.28,-7.332 -3.32,-2.118 -7.6,-3.18 -12.85,-3.18 -6.68,0 -12.06,2.301 -16.15,6.922 -4.08,4.621 -6.12,11.187 -6.12,19.73 v 21.52 c 0,8.398 1.97,14.898 5.92,19.519 3.96,4.621 9.21,6.93 15.78,6.93 6.47,0 11.47,-1.898 14.99,-5.68 3.51,-3.789 5.21,-8.961 5.09,-15.539 l -0.08,-0.301 h -8.4 c 0,4.348 -0.97,7.731 -2.92,10.141 -1.95,2.399 -4.79,3.598 -8.51,3.598 -4.01,0 -7.17,-1.578 -9.46,-4.75 -2.31,-3.168 -3.45,-7.778 -3.45,-13.821 v -21.617 c 0,-6.179 1.19,-10.89 3.58,-14.121 2.39,-3.238 5.63,-4.871 9.73,-4.871 3.02,0 5.43,0.539 7.23,1.609 1.81,1.051 3.11,2.352 3.93,3.883 v 16.891 h -11.77 v 7.367 h 20.74 v -26.898" /><path
         id="path3832"
         style="fill:none;stroke:#bdbcbc;stroke-width:10;stroke-linecap:butt;stroke-linejoin:miter;stroke-miterlimit:10;stroke-dasharray:none;stroke-opacity:1"
         d="m 269.363,1686.79 852.817,156.67 2357.18,-156.67" /><path
         id="path3834"
         style="fill:none;stroke:#bdbcbc;stroke-width:10;stroke-linecap:butt;stroke-linejoin:miter;stroke-miterlimit:10;stroke-dasharray:none;stroke-opacity:1"
         d="m 269.363,1686.79 852.817,185.03 2357.18,-185.03" /><path
         id="path3836"
         style="fill:none;stroke:#bdbcbc;stroke-width:10;stroke-linecap:butt;stroke-linejoin:miter;stroke-miterlimit:10;stroke-dasharray:none;stroke-opacity:1"
         d="m 269.363,1686.79 852.817,213.37 2357.18,-213.37" /><path
         id="path3838"
         style="fill:none;stroke:#bdbcbc;stroke-width:10;stroke-linecap:butt;stroke-linejoin:miter;stroke-miterlimit:10;stroke-dasharray:none;stroke-opacity:1"
         d="m 269.363,1686.79 852.817,241.72 2357.18,-241.72" /><path
         id="path3840"
         style="fill:none;stroke:#bdbcbc;stroke-width:10;stroke-linecap:butt;stroke-linejoin:miter;stroke-miterlimit:10;stroke-dasharray:none;stroke-opacity:1"
         d="M 2174.36,1845.8 V 440.012" /><path
         id="path3842"
         style="fill:none;stroke:#bdbcbc;stroke-width:10;stroke-linecap:butt;stroke-linejoin:miter;stroke-miterlimit:10;stroke-dasharray:none;stroke-opacity:1"
         d="M 3407.51,1739.66 V 961.289" /><path
         id="path3844"
         style="fill:none;stroke:#bdbcbc;stroke-width:10;stroke-linecap:butt;stroke-linejoin:miter;stroke-miterlimit:10;stroke-dasharray:none;stroke-opacity:1"
         d="M 260.164,1063 H 3479.36" /><path
         id="path3846"
         style="fill:#846a50;fill-opacity:1;fill-rule:nonzero;stroke:none"
         d="m 2328.16,1224.47 c 0,14.39 -2.83,26.22 -8.5,35.48 -5.68,9.26 -14.02,13.9 -25.02,13.9 -6.66,0 -12.33,-1.52 -17.02,-4.52 -4.69,-3.01 -8.49,-7.11 -11.37,-12.39 v -61.31 c 2.88,-5.23 6.68,-9.33 11.37,-12.25 4.69,-2.94 10.44,-4.4 17.22,-4.4 10.97,0 19.25,4.01 24.87,12.03 5.63,8 8.45,18.34 8.45,31 z m 23.09,-2.46 c 0,-18.29 -4.37,-33.04 -13.12,-44.27 -8.75,-11.21 -20.84,-16.81 -36.25,-16.81 -7.81,0 -14.67,1.31 -20.56,3.91 -5.91,2.64 -10.93,6.57 -15.07,11.8 v -62.04 h -23.11 v 175.66 h 17.71 l 3.63,-16.41 c 4.14,6.1 9.32,10.75 15.47,13.95 6.19,3.21 13.39,4.81 21.57,4.81 15.74,0 27.95,-6.23 36.67,-18.71 8.71,-12.46 13.06,-28.95 13.06,-49.43 v -2.46" /><path
         id="path3848"
         style="fill:#846a50;fill-opacity:1;fill-rule:nonzero;stroke:none"
         d="m 2404.62,1163.38 h -23.11 v 182.93 h 23.11 v -182.93" /><path
         id="path3850"
         style="fill:#846a50;fill-opacity:1;fill-rule:nonzero;stroke:none"
         d="m 2479.78,1180.28 c 8.36,0 15.89,2.13 22.63,6.43 6.71,4.3 11.11,9.24 13.14,14.78 v 20.64 h -25.92 c -9.29,0 -16.75,-2.35 -22.34,-7.02 -5.6,-4.7 -8.38,-10.22 -8.38,-16.55 0,-5.62 1.75,-10.07 5.26,-13.36 3.54,-3.29 8.74,-4.92 15.61,-4.92 z m 38.34,-16.9 c -0.77,3.84 -1.39,7.21 -1.82,10.15 -0.42,2.94 -0.67,5.87 -0.75,8.86 -4.3,-6.11 -9.92,-11.21 -16.84,-15.3 -6.9,-4.13 -14.36,-6.16 -22.32,-6.16 -13.22,0 -23.29,3.38 -30.2,10.13 -6.92,6.77 -10.39,16.08 -10.39,27.97 0,12.13 4.9,21.61 14.73,28.44 9.8,6.84 23.1,10.25 39.93,10.25 h 25.09 v 12.56 c 0,7.42 -2.29,13.32 -6.82,17.64 -4.53,4.36 -10.93,6.52 -19.21,6.52 -7.5,0 -13.57,-1.89 -18.18,-5.64 -4.6,-3.75 -6.91,-8.24 -6.91,-13.49 l -21.93,-0.22 -0.23,0.7 c -0.56,9.22 3.76,17.68 12.94,25.31 9.18,7.68 21.05,11.51 35.58,11.51 14.4,0 25.98,-3.65 34.73,-10.96 8.74,-7.3 13.13,-17.85 13.13,-31.6 v -61.11 c 0,-4.52 0.23,-8.89 0.7,-13.11 0.46,-4.24 1.32,-8.38 2.57,-12.45 h -23.8" /><path
         id="path3852"
         style="fill:#846a50;fill-opacity:1;fill-rule:nonzero;stroke:none"
         d="m 2592.82,1290.26 1.62,-18.89 c 4.25,6.73 9.54,11.96 15.9,15.66 6.38,3.7 13.63,5.58 21.76,5.58 13.68,0 24.28,-4.01 31.78,-12.01 7.51,-8.01 11.26,-20.39 11.26,-37.11 v -80.11 h -23.1 v 79.64 c 0,11.15 -2.23,19.1 -6.64,23.79 -4.41,4.69 -11.13,7.04 -20.21,7.04 -7.13,0 -13.17,-1.44 -18.11,-4.28 -4.98,-2.86 -8.91,-6.86 -11.78,-12.02 v -94.17 h -23.1 v 126.88 h 20.62" /><path
         id="path3854"
         style="fill:#846a50;fill-opacity:1;fill-rule:nonzero;stroke:none"
         d="m 3026.32,1224.83 c 0,14.52 -2.66,26.4 -8.02,35.58 -5.36,9.19 -13.51,13.78 -24.45,13.78 -7.11,0 -13.13,-1.74 -18,-5.22 -4.88,-3.48 -8.78,-8.14 -11.67,-14.01 v -55 c 2.98,-6.25 6.86,-11.14 11.67,-14.66 4.81,-3.51 10.89,-5.26 18.23,-5.26 10.88,0 18.95,3.86 24.27,11.6 5.32,7.75 7.97,17.98 7.97,30.71 z m 23.1,-2.48 c 0,-18.29 -4.38,-33.04 -13.18,-44.26 -8.79,-11.2 -20.89,-16.83 -36.29,-16.83 -8.46,0 -15.77,1.66 -21.96,5 -6.23,3.32 -11.39,8.21 -15.45,14.71 l -3.75,-17.23 h -17.72 v 182.91 h 23.11 v -71.05 c 3.98,5.64 8.94,9.93 14.83,12.91 5.91,2.95 12.82,4.45 20.71,4.45 15.63,0 27.82,-6.27 36.6,-18.77 8.73,-12.51 13.1,-28.97 13.1,-49.36 v -2.48" /><path
         id="path3856"
         style="fill:#846a50;fill-opacity:1;fill-rule:nonzero;stroke:none"
         d="m 3117.21,1180.62 c 8.36,0 15.9,2.15 22.61,6.44 6.71,4.32 11.11,9.23 13.16,14.78 v 20.65 h -25.92 c -9.31,0 -16.74,-2.34 -22.32,-7.05 -5.59,-4.69 -8.4,-10.22 -8.4,-16.52 0,-5.65 1.76,-10.1 5.26,-13.38 3.54,-3.28 8.72,-4.92 15.61,-4.92 z m 38.33,-16.88 c -0.78,3.82 -1.38,7.21 -1.8,10.14 -0.44,2.93 -0.68,5.88 -0.76,8.84 -4.32,-6.09 -9.9,-11.2 -16.84,-15.31 -6.91,-4.09 -14.36,-6.15 -22.32,-6.15 -13.21,0 -23.29,3.38 -30.21,10.16 -6.91,6.75 -10.38,16.05 -10.38,27.97 0,12.1 4.92,21.59 14.71,28.43 9.82,6.84 23.13,10.26 39.92,10.26 h 25.12 v 12.54 c 0,7.44 -2.28,13.3 -6.83,17.64 -4.53,4.35 -10.94,6.52 -19.21,6.52 -7.52,0 -13.55,-1.88 -18.18,-5.63 -4.61,-3.75 -6.91,-8.26 -6.91,-13.5 l -21.94,-0.22 -0.21,0.71 c -0.57,9.21 3.76,17.65 12.94,25.32 9.19,7.65 21.06,11.5 35.58,11.5 14.39,0 25.98,-3.65 34.71,-10.98 8.78,-7.3 13.12,-17.84 13.12,-31.6 v -61.09 c 0,-4.53 0.25,-8.91 0.71,-13.13 0.49,-4.22 1.34,-8.37 2.59,-12.42 h -23.81" /><path
         id="path3858"
         style="fill:#846a50;fill-opacity:1;fill-rule:nonzero;stroke:none"
         d="m 3290.16,1182.48 c -3.98,-6.8 -9.11,-12.02 -15.36,-15.71 -6.25,-3.67 -13.48,-5.51 -21.7,-5.51 -13.83,0 -24.61,4.43 -32.35,13.25 -7.74,8.84 -11.61,22.61 -11.61,41.28 v 74.83 h 23.1 v -75.06 c 0,-13.53 1.99,-22.83 5.98,-27.91 3.97,-5.08 10.18,-7.61 18.63,-7.61 8.22,0 14.98,1.64 20.37,4.97 5.33,3.32 9.39,8.03 12.12,14.14 v 91.47 h 23.1 v -126.88 h -20.74 l -1.54,18.74" /><path
         id="path3860"
         style="fill:none;stroke:#bdbcbc;stroke-width:10;stroke-linecap:butt;stroke-linejoin:miter;stroke-miterlimit:10;stroke-dasharray:none;stroke-opacity:1"
         d="M 311.023,1739.66 V 1025.82" /><path
         id="path3862"
         style="fill:#4f4c4c;fill-opacity:1;fill-rule:nonzero;stroke:none"
         d="m 2826.61,1263.27 h 47.01 v -32.93 h -47.01 v -54.04 h -36.04 v 54.04 h -47.28 v 32.93 h 47.28 v 51.45 h 36.04 v -51.45" /><path
         id="path3864"
         style="fill:none;stroke:#bdbcbc;stroke-width:10;stroke-linecap:butt;stroke-linejoin:miter;stroke-miterlimit:10;stroke-dasharray:none;stroke-opacity:1"
         d="M 2002.06,493.34 H 3142.33" /></g></g></svg>